<?xml version="1.0" encoding="UTF-8" standalone="no"?>
<!-- Created with Inkscape (http://www.inkscape.org/) -->

<svg
   version="1.1"
   id="svg9"
   xml:space="preserve"
   width="666.66669"
   height="666.66669"
   viewBox="0 0 666.66669 666.66669"
   sodipodi:docname="Advantages.svg"
   inkscape:version="1.1.2 (b8e25be833, 2022-02-05)"
   xmlns:inkscape="http://www.inkscape.org/namespaces/inkscape"
   xmlns:sodipodi="http://sodipodi.sourceforge.net/DTD/sodipodi-0.dtd"
   xmlns="http://www.w3.org/2000/svg"
   xmlns:svg="http://www.w3.org/2000/svg"><defs
     id="defs13"><clipPath
       clipPathUnits="userSpaceOnUse"
       id="clipPath23"><path
         d="M 0,500 H 500 V 0 H 0 Z"
         id="path21" /></clipPath><clipPath
       clipPathUnits="userSpaceOnUse"
       id="clipPath187"><path
         d="M 0,500 H 500 V 0 H 0 Z"
         id="path185" /></clipPath><clipPath
       clipPathUnits="userSpaceOnUse"
       id="clipPath203"><path
         d="M 0,500 H 500 V 0 H 0 Z"
         id="path201" /></clipPath><clipPath
       clipPathUnits="userSpaceOnUse"
       id="clipPath215"><path
         d="M 0,500 H 500 V 0 H 0 Z"
         id="path213" /></clipPath><clipPath
       clipPathUnits="userSpaceOnUse"
       id="clipPath243"><path
         d="m 392.215,162.254 h 17.811 v -37.932 h -17.811 z"
         id="path241" /></clipPath><clipPath
       clipPathUnits="userSpaceOnUse"
       id="clipPath275"><path
         d="m 365.743,109.569 h 33.289 V 88.7382 h -33.289 z"
         id="path273" /></clipPath><clipPath
       clipPathUnits="userSpaceOnUse"
       id="clipPath333"><path
         d="M 0,500 H 500 V 0 H 0 Z"
         id="path331" /></clipPath><clipPath
       clipPathUnits="userSpaceOnUse"
       id="clipPath345"><path
         d="m 88.77,98.5768 h 67.683 V 30.8936 H 88.77 Z"
         id="path343" /></clipPath><clipPath
       clipPathUnits="userSpaceOnUse"
       id="clipPath381"><path
         d="M 0,500 H 500 V 0 H 0 Z"
         id="path379" /></clipPath><clipPath
       clipPathUnits="userSpaceOnUse"
       id="clipPath485"><path
         d="M 0,500 H 500 V 0 H 0 Z"
         id="path483" /></clipPath><clipPath
       clipPathUnits="userSpaceOnUse"
       id="clipPath529"><path
         d="m 261.529,50.1212 h 3.147 v -3.1907 h -3.147 z"
         id="path527" /></clipPath><clipPath
       clipPathUnits="userSpaceOnUse"
       id="clipPath673"><path
         d="m 303.83,372.456 h 26.802 V 356.263 H 303.83 Z"
         id="path671" /></clipPath><clipPath
       clipPathUnits="userSpaceOnUse"
       id="clipPath741"><path
         d="M 289.159,406.757 H 441.98 V 245.781 H 289.159 Z"
         id="path739" /></clipPath><clipPath
       clipPathUnits="userSpaceOnUse"
       id="clipPath797"><path
         d="m 370.19,404.525 h 15.319 V 377.136 H 370.19 Z"
         id="path795" /></clipPath><clipPath
       clipPathUnits="userSpaceOnUse"
       id="clipPath813"><path
         d="m 402.957,365.216 h 41.237 v -15.595 h -41.237 z"
         id="path811" /></clipPath></defs><sodipodi:namedview
     id="namedview11"
     pagecolor="#ffffff"
     bordercolor="#666666"
     borderopacity="1.0"
     inkscape:pageshadow="2"
     inkscape:pageopacity="0.0"
     inkscape:pagecheckerboard="0"
     showgrid="false"
     inkscape:zoom="0.74399998"
     inkscape:cx="399.8656"
     inkscape:cy="318.5484"
     inkscape:window-width="1366"
     inkscape:window-height="705"
     inkscape:window-x="-8"
     inkscape:window-y="-8"
     inkscape:window-maximized="1"
     inkscape:current-layer="g15" /><g
     id="g15"
     inkscape:groupmode="layer"
     inkscape:label="6099982"
     transform="matrix(1.3333333,0,0,-1.3333333,0,666.66667)"><g
       id="g25"
       transform="translate(275.6443,147.197)"
       style="fill:#ecf1f7;fill-opacity:1"><path
         d="m 0,0 h -208.928 c -3.976,0 -7.198,3.223 -7.198,7.198 v 291.383 c 0,3.975 3.222,7.198 7.198,7.198 H 0 c 3.975,0 7.198,-3.223 7.198,-7.198 V 7.198 C 7.198,3.223 3.975,0 0,0"
         style="fill:#ecf1f7;fill-opacity:1;fill-rule:nonzero;stroke:none"
         id="path27" /></g><g
       id="g29"
       transform="translate(445.2353,434.7632)"
       style="fill:#ecf1f7;fill-opacity:1"><path
         d="m 0,0 0.419,-2.123 -4.206,-22.754 c -3.017,-2.213 -6.814,-3.082 -10.493,-2.402 l -23.799,4.399 c 0,0 -3.783,0.845 -2.729,5.756 0,0 0.187,2.591 2.407,2.764 0,0 -4.613,1.874 -4.102,5.427 0.51,3.552 3.128,3.506 3.128,3.506 0,0 -4.321,1.09 -3.873,5.092 0.448,4.002 2.783,4.008 2.783,4.008 0,0 -5.026,1.221 -3.768,5.657 1.257,4.435 5.578,3.345 5.578,3.345 L -21.727,9.549 -6.889,6.807 C -3.414,6.164 -0.684,3.466 0,0"
         style="fill:#ecf1f7;fill-opacity:1;fill-rule:nonzero;stroke:none"
         id="path31" /></g><g
       id="g33"
       transform="translate(441.0436,440.5839)"
       style="fill:#ecf1f7;fill-opacity:1"><path
         d="m 0,0 c 0,0 -5.213,4.716 -7.047,9.846 -1.331,3.723 -1.239,7.921 -1.239,7.921 0.037,0.201 0.343,1.994 0.593,3.46 0.204,1.202 -0.578,2.34 -1.769,2.602 -2.504,0.551 -6.91,-0.887 -8.236,-5.457 -1.979,-6.818 -0.287,-11.465 -0.23,-13.541 l 0.056,-2.076 z"
         style="fill:#ecf1f7;fill-opacity:1;fill-rule:nonzero;stroke:none"
         id="path35" /></g><g
       id="g37"
       transform="translate(437.7762,406.4856)"
       style="fill:#ecf1f7;fill-opacity:1"><path
         d="M 0,0 16.623,-3.073 22.866,30.701 6.243,33.773 Z"
         style="fill:#ecf1f7;fill-opacity:1;fill-rule:nonzero;stroke:none"
         id="path39" /></g><g
       id="g41"
       transform="translate(437.7762,406.4856)"><path
         d="M 0,0 C -0.036,0.007 1.332,7.573 3.056,16.898 4.78,26.226 6.207,33.78 6.243,33.773 6.279,33.767 4.91,26.202 3.186,16.874 1.463,7.549 0.036,-0.007 0,0"
         style="fill:#e1e1e1;fill-opacity:1;fill-rule:nonzero;stroke:none"
         id="path43" /></g><g
       id="g45"
       transform="translate(454.3992,403.413)"><path
         d="M 0,0 C -0.036,0.007 1.332,7.573 3.056,16.898 4.78,26.226 6.207,33.78 6.243,33.773 6.279,33.767 4.911,26.202 3.186,16.874 1.463,7.549 0.036,-0.007 0,0"
         style="fill:#e1e1e1;fill-opacity:1;fill-rule:nonzero;stroke:none"
         id="path47" /></g><g
       id="g49"
       transform="translate(448.4583,431.4433)"><path
         d="M 0,0 C -0.318,-1.718 0.818,-3.368 2.535,-3.685 4.253,-4.003 5.903,-2.868 6.221,-1.15 6.539,0.568 5.403,2.218 3.685,2.536 1.967,2.853 0.318,1.718 0,0"
         style="fill:#ffffff;fill-opacity:1;fill-rule:nonzero;stroke:none"
         id="path51" /></g><g
       id="g53"
       transform="translate(419.6131,445.0326)"><path
         d="M 0,0 C 0.007,0.036 1.824,-0.27 4.06,-0.683 6.296,-1.096 8.102,-1.46 8.096,-1.496 8.089,-1.532 6.272,-1.227 4.036,-0.813 1.8,-0.4 -0.007,-0.036 0,0"
         style="fill:#e1e1e1;fill-opacity:1;fill-rule:nonzero;stroke:none"
         id="path55" /></g><g
       id="g57"
       transform="translate(405.4934,429.2385)"><path
         d="M 0,0 C 0.007,0.036 1.171,-0.149 2.599,-0.413 4.028,-0.677 5.181,-0.921 5.174,-0.956 5.168,-0.992 4.004,-0.808 2.575,-0.543 1.146,-0.279 -0.007,-0.036 0,0"
         style="fill:#e1e1e1;fill-opacity:1;fill-rule:nonzero;stroke:none"
         id="path59" /></g><g
       id="g61"
       transform="translate(404.4579,438.5789)"><path
         d="M 0,0 C 0.007,0.036 1.656,-0.239 3.684,-0.614 5.713,-0.988 7.351,-1.322 7.345,-1.357 7.338,-1.393 5.689,-1.119 3.66,-0.744 1.632,-0.369 -0.007,-0.036 0,0"
         style="fill:#e1e1e1;fill-opacity:1;fill-rule:nonzero;stroke:none"
         id="path63" /></g><g
       id="g65"
       transform="translate(405.7868,420.553)"><path
         d="M 0,0 C 0.007,0.036 1.656,-0.239 3.684,-0.614 5.713,-0.988 7.351,-1.322 7.345,-1.358 7.338,-1.394 5.689,-1.119 3.66,-0.744 1.632,-0.369 -0.007,-0.036 0,0"
         style="fill:#e1e1e1;fill-opacity:1;fill-rule:nonzero;stroke:none"
         id="path67" /></g><g
       id="g69"
       transform="translate(447.7622,438.577)"><path
         d="m 0,0 c 0.007,0.036 2.335,-0.364 5.2,-0.894 2.865,-0.529 5.182,-0.988 5.176,-1.024 -0.007,-0.036 -2.335,0.364 -5.2,0.894 C 2.311,-0.494 -0.007,-0.036 0,0"
         style="fill:#ffffff;fill-opacity:1;fill-rule:nonzero;stroke:none"
         id="path71" /></g><g
       id="g73"
       transform="translate(403.577,432.7227)"><path
         d="m 0,0 c -0.009,-0.003 -0.035,0.065 -0.074,0.191 -0.043,0.126 -0.082,0.314 -0.111,0.549 -0.031,0.235 -0.035,0.518 -0.009,0.831 0.033,0.312 0.1,0.653 0.217,0.996 0.122,0.342 0.28,0.651 0.448,0.917 C 0.644,3.745 0.823,3.965 0.994,4.13 1.162,4.297 1.31,4.42 1.421,4.491 1.53,4.566 1.592,4.603 1.598,4.596 1.612,4.575 1.374,4.408 1.062,4.066 0.904,3.896 0.737,3.676 0.574,3.418 0.417,3.157 0.266,2.856 0.148,2.524 0.035,2.19 -0.034,1.861 -0.073,1.558 -0.104,1.255 -0.11,0.979 -0.092,0.748 -0.059,0.286 0.024,0.007 0,0"
         style="fill:#ffffff;fill-opacity:1;fill-rule:nonzero;stroke:none"
         id="path75" /></g><g
       id="g77"
       transform="translate(402.6975,441.7326)"><path
         d="m 0,0 c -0.009,-0.009 -0.166,0.132 -0.33,0.428 -0.165,0.292 -0.311,0.751 -0.303,1.27 0.011,0.518 0.174,0.971 0.35,1.257 C -0.108,3.245 0.054,3.38 0.063,3.37 0.081,3.355 -0.054,3.199 -0.201,2.91 -0.35,2.623 -0.49,2.189 -0.5,1.695 -0.508,1.201 -0.384,0.762 -0.247,0.47 -0.11,0.175 0.019,0.015 0,0"
         style="fill:#ffffff;fill-opacity:1;fill-rule:nonzero;stroke:none"
         id="path79" /></g><g
       id="g81"
       transform="translate(404.8171,423.0319)"><path
         d="m 0,0 c -0.006,-0.011 -0.221,0.109 -0.463,0.416 -0.24,0.3 -0.486,0.815 -0.478,1.419 0.009,0.605 0.27,1.112 0.519,1.406 0.25,0.3 0.468,0.413 0.474,0.402 0.015,-0.019 -0.18,-0.157 -0.4,-0.46 C -0.569,2.886 -0.8,2.401 -0.809,1.833 -0.816,1.266 -0.599,0.774 -0.387,0.471 -0.175,0.163 0.015,0.018 0,0"
         style="fill:#ffffff;fill-opacity:1;fill-rule:nonzero;stroke:none"
         id="path83" /></g><g
       id="g85"
       transform="translate(406.717,414.3869)"><path
         d="m 0,0 c -0.01,-0.009 -0.161,0.146 -0.32,0.454 -0.16,0.306 -0.305,0.775 -0.308,1.306 0,0.532 0.142,1.002 0.299,1.309 0.157,0.309 0.307,0.464 0.317,0.456 C 0.007,3.511 -0.113,3.338 -0.243,3.03 -0.375,2.723 -0.496,2.27 -0.495,1.761 -0.492,1.251 -0.368,0.8 -0.235,0.494 -0.103,0.186 0.019,0.013 0,0"
         style="fill:#ffffff;fill-opacity:1;fill-rule:nonzero;stroke:none"
         id="path87" /></g><g
       id="g89"
       transform="translate(423.5315,451.0589)"><path
         d="m 0,0 c -0.009,-0.002 -0.05,0.131 -0.116,0.376 -0.035,0.122 -0.073,0.272 -0.106,0.449 -0.035,0.177 -0.082,0.377 -0.109,0.602 -0.073,0.448 -0.12,0.987 -0.133,1.587 -0.005,0.6 0.029,1.261 0.125,1.947 0.103,0.686 0.26,1.329 0.436,1.902 0.184,0.572 0.382,1.075 0.58,1.484 0.09,0.208 0.192,0.386 0.276,0.546 0.082,0.16 0.162,0.293 0.229,0.4 C 1.316,9.508 1.393,9.625 1.401,9.62 1.409,9.615 1.346,9.49 1.227,9.267 1.167,9.157 1.094,9.021 1.018,8.859 0.942,8.697 0.846,8.517 0.762,8.308 0.577,7.898 0.389,7.395 0.213,6.828 0.046,6.257 -0.105,5.621 -0.207,4.942 -0.303,4.263 -0.34,3.609 -0.342,3.015 -0.335,2.421 -0.299,1.886 -0.238,1.44 -0.217,1.215 -0.177,1.016 -0.149,0.839 -0.124,0.662 -0.093,0.511 -0.066,0.388 -0.015,0.14 0.009,0.002 0,0"
         style="fill:#ffffff;fill-opacity:1;fill-rule:nonzero;stroke:none"
         id="path91" /></g><g
       id="g93"
       transform="translate(419.5046,226.7095)"
       style="fill:#ecf1f7;fill-opacity:1"><path
         d="m 0,0 1.127,-1.29 6.119,-17.265 c -1.192,-2.711 -3.451,-4.809 -6.243,-5.798 l -18.058,-6.4 c 0,0 -2.927,-0.918 -4.148,2.866 0,0 -0.897,1.851 0.557,2.848 0,0 -3.905,-0.54 -4.96,2.097 -1.056,2.638 0.757,3.642 0.757,3.642 0,0 -3.394,-0.962 -4.67,1.959 -1.276,2.921 0.322,3.849 0.322,3.849 0,0 -3.928,-1.152 -4.821,2.387 -0.893,3.539 2.501,4.501 2.501,4.501 l 12.842,4.555 11.259,3.99 C -4.78,2.876 -1.84,2.106 0,0"
         style="fill:#ecf1f7;fill-opacity:1;fill-rule:nonzero;stroke:none"
         id="path95" /></g><g
       id="g97"
       transform="translate(414.3277,229.0418)"
       style="fill:#ecf1f7;fill-opacity:1"><path
         d="m 0,0 c 0,0 -5.44,1.171 -8.727,3.962 -2.386,2.026 -3.984,4.941 -3.984,4.941 -0.054,0.153 -0.553,1.503 -0.963,2.607 -0.335,0.905 -1.321,1.375 -2.241,1.084 -1.935,-0.613 -4.387,-3.342 -3.488,-7 1.341,-5.457 4.339,-7.975 5.199,-9.375 l 0.861,-1.401 z"
         style="fill:#ecf1f7;fill-opacity:1;fill-rule:nonzero;stroke:none"
         id="path99" /></g><g
       id="g101"
       transform="translate(425.5788,204.3708)"
       style="fill:#ecf1f7;fill-opacity:1"><path
         d="M 0,0 12.613,4.47 3.53,30.096 -9.083,25.625 Z"
         style="fill:#ecf1f7;fill-opacity:1;fill-rule:nonzero;stroke:none"
         id="path103" /></g><g
       id="g105"
       transform="translate(425.5789,204.3708)"><path
         d="M 0,0 C -0.027,-0.01 -2.083,5.719 -4.591,12.795 -7.099,19.872 -9.11,25.616 -9.083,25.625 -9.055,25.635 -7,19.907 -4.492,12.83 -1.984,5.754 0.027,0.01 0,0"
         style="fill:#e1e1e1;fill-opacity:1;fill-rule:nonzero;stroke:none"
         id="path107" /></g><g
       id="g109"
       transform="translate(438.1915,208.8412)"><path
         d="M 0,0 C -0.027,-0.01 -2.083,5.719 -4.59,12.795 -7.099,19.872 -9.11,25.616 -9.083,25.626 -9.055,25.635 -7,19.907 -4.492,12.83 -1.984,5.754 0.027,0.01 0,0"
         style="fill:#e1e1e1;fill-opacity:1;fill-rule:nonzero;stroke:none"
         id="path111" /></g><g
       id="g113"
       transform="translate(423.0279,225.7086)"><path
         d="M 0,0 C 0.462,-1.303 1.893,-1.986 3.197,-1.524 4.5,-1.062 5.182,0.37 4.72,1.673 4.258,2.976 2.827,3.659 1.523,3.197 0.22,2.735 -0.462,1.303 0,0"
         style="fill:#ffffff;fill-opacity:1;fill-rule:nonzero;stroke:none"
         id="path115" /></g><g
       id="g117"
       transform="translate(397.8745,223.6127)"><path
         d="M 0,0 C -0.01,0.027 1.358,0.537 3.054,1.138 4.75,1.739 6.133,2.204 6.143,2.177 6.152,2.15 4.785,1.64 3.089,1.039 1.393,0.438 0.01,-0.027 0,0"
         style="fill:#e1e1e1;fill-opacity:1;fill-rule:nonzero;stroke:none"
         id="path119" /></g><g
       id="g121"
       transform="translate(394.443,207.1974)"><path
         d="M 0,0 C -0.01,0.027 0.861,0.361 1.945,0.745 3.03,1.13 3.917,1.419 3.926,1.392 3.936,1.364 3.065,1.031 1.98,0.646 0.896,0.262 0.01,-0.027 0,0"
         style="fill:#e1e1e1;fill-opacity:1;fill-rule:nonzero;stroke:none"
         id="path123" /></g><g
       id="g125"
       transform="translate(390.0374,213.1916)"><path
         d="M 0,0 C -0.01,0.027 1.23,0.492 2.769,1.037 4.308,1.582 5.563,2.003 5.573,1.975 5.582,1.948 4.343,1.484 2.804,0.938 1.265,0.393 0.01,-0.027 0,0"
         style="fill:#e1e1e1;fill-opacity:1;fill-rule:nonzero;stroke:none"
         id="path127" /></g><g
       id="g129"
       transform="translate(398.0806,201.3586)"><path
         d="M 0,0 C -0.01,0.027 1.23,0.492 2.769,1.037 4.308,1.583 5.563,2.003 5.573,1.975 5.582,1.948 4.343,1.484 2.804,0.938 1.265,0.393 0.01,-0.027 0,0"
         style="fill:#e1e1e1;fill-opacity:1;fill-rule:nonzero;stroke:none"
         id="path131" /></g><g
       id="g133"
       transform="translate(419.7281,230.3241)"><path
         d="M 0,0 C -0.01,0.027 1.745,0.674 3.918,1.445 6.093,2.215 7.863,2.818 7.872,2.79 7.882,2.763 6.128,2.116 3.954,1.346 1.78,0.575 0.01,-0.027 0,0"
         style="fill:#ffffff;fill-opacity:1;fill-rule:nonzero;stroke:none"
         id="path135" /></g><g
       id="g137"
       transform="translate(391.7504,208.828)"><path
         d="m 0,0 c -0.005,-0.005 -0.049,0.031 -0.126,0.102 -0.079,0.069 -0.181,0.182 -0.293,0.332 -0.115,0.149 -0.23,0.342 -0.336,0.567 -0.1,0.226 -0.189,0.487 -0.245,0.768 -0.052,0.283 -0.066,0.557 -0.055,0.806 0.015,0.248 0.051,0.469 0.102,0.65 0.05,0.181 0.103,0.323 0.15,0.416 0.045,0.095 0.074,0.145 0.08,0.142 C -0.705,3.775 -0.802,3.565 -0.881,3.207 -0.922,3.029 -0.949,2.812 -0.959,2.571 -0.963,2.329 -0.947,2.063 -0.897,1.789 -0.843,1.515 -0.759,1.262 -0.666,1.04 -0.568,0.819 -0.463,0.627 -0.359,0.477 -0.153,0.173 0.014,0.014 0,0"
         style="fill:#ffffff;fill-opacity:1;fill-rule:nonzero;stroke:none"
         id="path139" /></g><g
       id="g141"
       transform="translate(387.5826,214.6573)"><path
         d="m 0,0 c -0.003,-0.01 -0.166,0.025 -0.396,0.162 -0.229,0.136 -0.51,0.393 -0.709,0.751 -0.198,0.36 -0.266,0.735 -0.259,1.001 0.006,0.268 0.064,0.425 0.074,0.422 0.018,-0.004 -0.013,-0.164 0.001,-0.42 0.012,-0.256 0.087,-0.609 0.276,-0.952 0.19,-0.342 0.448,-0.593 0.658,-0.74 C -0.145,0.076 0.007,0.018 0,0"
         style="fill:#ffffff;fill-opacity:1;fill-rule:nonzero;stroke:none"
         id="path143" /></g><g
       id="g145"
       transform="translate(396.435,202.6745)"><path
         d="m 0,0 c 0,-0.01 -0.195,-0.013 -0.482,0.102 -0.283,0.111 -0.656,0.366 -0.89,0.784 -0.232,0.418 -0.254,0.869 -0.2,1.169 0.053,0.304 0.158,0.468 0.166,0.463 C -1.388,2.511 -1.467,2.339 -1.498,2.045 -1.532,1.754 -1.498,1.33 -1.28,0.937 -1.06,0.545 -0.717,0.294 -0.452,0.17 -0.184,0.042 0.003,0.018 0,0"
         style="fill:#ffffff;fill-opacity:1;fill-rule:nonzero;stroke:none"
         id="path147" /></g><g
       id="g149"
       transform="translate(401.158,197.4991)"><path
         d="m 0,0 c -0.003,-0.01 -0.168,0.036 -0.399,0.185 -0.23,0.146 -0.515,0.41 -0.728,0.773 -0.211,0.365 -0.299,0.743 -0.312,1.016 -0.015,0.274 0.026,0.44 0.037,0.438 0.018,-0.002 0.004,-0.168 0.036,-0.431 0.032,-0.262 0.128,-0.62 0.33,-0.97 C -0.832,0.663 -0.569,0.403 -0.357,0.245 -0.144,0.087 0.008,0.017 0,0"
         style="fill:#ffffff;fill-opacity:1;fill-rule:nonzero;stroke:none"
         id="path151" /></g><g
       id="g153"
       transform="translate(398.1767,229.2947)"><path
         d="m 0,0 c -0.005,-0.005 -0.086,0.07 -0.228,0.212 -0.072,0.07 -0.158,0.157 -0.251,0.266 -0.093,0.107 -0.205,0.226 -0.313,0.369 -0.227,0.279 -0.472,0.63 -0.719,1.036 -0.24,0.409 -0.479,0.876 -0.684,1.384 -0.201,0.511 -0.348,1.014 -0.454,1.477 -0.1,0.464 -0.163,0.888 -0.19,1.246 -0.02,0.179 -0.02,0.342 -0.026,0.484 -0.007,0.142 -0.006,0.265 -10e-4,0.365 0.006,0.201 0.013,0.311 0.02,0.311 0.007,0 0.014,-0.111 0.021,-0.31 0.002,-0.1 0.005,-0.222 0.018,-0.363 0.012,-0.142 0.017,-0.303 0.042,-0.479 0.036,-0.355 0.106,-0.774 0.21,-1.233 0.11,-0.457 0.259,-0.953 0.457,-1.459 C -1.895,2.803 -1.661,2.34 -1.427,1.932 -1.188,1.527 -0.951,1.175 -0.733,0.893 -0.63,0.748 -0.523,0.627 -0.434,0.516 -0.347,0.405 -0.266,0.314 -0.198,0.24 -0.066,0.09 0.005,0.005 0,0"
         style="fill:#ffffff;fill-opacity:1;fill-rule:nonzero;stroke:none"
         id="path155" /></g><g
       id="g157"
       transform="translate(263.3719,28.45)"><path
         d="m 0,0 h -48.699 c -7.35,0 -13.308,5.958 -13.308,13.308 v 48.699 c 0,7.35 5.958,13.308 13.308,13.308 H 0 c 7.35,0 13.308,-5.958 13.308,-13.308 V 13.308 C 13.308,5.958 7.35,0 0,0"
         style="fill:#e1e1e1;fill-opacity:1;fill-rule:nonzero;stroke:none"
         id="path159" /></g><g
       id="g161"
       transform="translate(249.8488,28.45)"
       style="fill:#ecf1f7;fill-opacity:1"><path
         d="m 0,0 h -48.699 c -7.35,0 -13.308,5.958 -13.308,13.308 v 48.699 c 0,7.35 5.958,13.308 13.308,13.308 H 0 c 7.35,0 13.308,-5.958 13.308,-13.308 V 13.308 C 13.308,5.958 7.35,0 0,0"
         style="fill:#ecf1f7;fill-opacity:1;fill-rule:nonzero;stroke:none"
         id="path163" /></g><g
       id="g165"
       transform="translate(199.4949,65.0236)"><path
         d="M 0,0 7.587,7.587 22.218,-5.419 46.651,19.107 53.695,11.521 21.134,-20.05 Z"
         style="fill:#ffffff;fill-opacity:1;fill-rule:nonzero;stroke:none"
         id="path167" /></g><g
       id="g169"
       transform="translate(89.4746,29.1704)"><path
         d="m 0,0 h -31.813 c -7.35,0 -13.308,5.958 -13.308,13.308 v 31.813 c 0,7.35 5.958,13.308 13.308,13.308 H 0 c 7.35,0 13.308,-5.958 13.308,-13.308 V 13.308 C 13.308,5.958 7.35,0 0,0"
         style="fill:#e1e1e1;fill-opacity:1;fill-rule:nonzero;stroke:none"
         id="path171" /></g><g
       id="g173"
       transform="translate(78.9834,29.1704)"
       style="fill:#ecf1f7;fill-opacity:1"><path
         d="m 0,0 h -31.813 c -7.35,0 -13.308,5.958 -13.308,13.308 v 31.813 c 0,7.35 5.958,13.308 13.308,13.308 H 0 c 7.35,0 13.308,-5.958 13.308,-13.308 V 13.308 C 13.308,5.958 7.35,0 0,0"
         style="fill:#ecf1f7;fill-opacity:1;fill-rule:nonzero;stroke:none"
         id="path175" /></g><g
       id="g177"
       transform="translate(42.9026,57.5441)"><path
         d="M 0,0 5.886,5.886 17.236,-4.204 36.191,14.824 41.657,8.938 16.396,-15.555 Z"
         style="fill:#ffffff;fill-opacity:1;fill-rule:nonzero;stroke:none"
         id="path179" /></g><g
       id="g181"
       style="fill:#ecf1f7;fill-opacity:1"><g
         id="g183"
         clip-path="url(#clipPath187)"
         style="fill:#ecf1f7;fill-opacity:1"><g
           id="g189"
           transform="translate(412.3445,393.158)"
           style="fill:#ecf1f7;fill-opacity:1"><path
             d="m 0,0 -2.106,3.471 c -17.754,29.257 -49.855,46.894 -83.699,44.754 -4.35,-0.275 -8.682,-0.864 -12.956,-1.779 -30.771,-6.587 -57.546,-29.857 -68.644,-59.658 -6.527,-17.527 -8.35,-37.707 -20.736,-51.618 -16.12,-18.106 -43.487,-18.675 -67.549,-17.925 -24.061,0.751 -51.447,0.111 -67.488,-18.066 -10.046,-11.384 -13.239,-27.573 -12.429,-42.818 2.145,-40.364 30.27,-76.454 66.039,-94.393 35.769,-17.939 77.882,-19.545 117.029,-11.654 54.84,11.055 106.992,41.414 138.339,88.304 C 17.148,-114.492 25.081,-50.609 0,0"
             style="fill:#ecf1f7;fill-opacity:1;fill-rule:nonzero;stroke:none"
             id="path191" /></g><g
           id="g193"
           transform="translate(250.1838,91.2649)"
           style="fill:#ecf1f7;fill-opacity:1"><path
             d="m 0,0 c 0,-13.492 -10.937,-24.429 -24.429,-24.429 -13.492,0 -24.429,10.937 -24.429,24.429 0,13.492 10.937,24.429 24.429,24.429 C -10.937,24.429 0,13.492 0,0"
             style="fill:#ecf1f7;fill-opacity:1;fill-rule:nonzero;stroke:none"
             id="path195" /></g></g></g><g
       id="g197"><g
         id="g199"
         clip-path="url(#clipPath203)"><g
           id="g205"
           transform="translate(446.9083,30.8937)"><path
             d="m 0,0 c 0,-0.144 -89.957,-0.261 -200.899,-0.261 -110.98,0 -200.918,0.117 -200.918,0.261 0,0.144 89.938,0.26 200.918,0.26 C -89.957,0.26 0,0.144 0,0"
             style="fill:#1a2e35;fill-opacity:1;fill-rule:nonzero;stroke:none"
             id="path207" /></g></g></g><g
       id="g209"><g
         id="g211"
         clip-path="url(#clipPath215)"><g
           id="g217"
           transform="translate(406.6424,59.5362)"><path
             d="m 0,0 c 0,0 -4.168,28.657 -3.821,45.329 0.347,16.673 -0.02,35.43 -0.02,35.43 h 1.92 c 0,0 -1.3,-33.094 0.115,-53.054 C -0.391,7.761 3.336,0 3.336,0 H 0"
             style="fill:#1a2e35;fill-opacity:1;fill-rule:nonzero;stroke:none"
             id="path219" /></g><g
           id="g221"
           transform="translate(419.0581,172.5386)"><path
             d="M 0,0 C -0.386,0.979 -0.861,1.999 -1.75,2.562 -2.968,3.334 -4.566,3.013 -5.926,2.532 -11.729,0.48 -16.874,-10.34 -19.22,-16.032 l 7.705,-25.96 C 2.392,-29.091 4.8,-12.166 0,0"
             style="fill:#375a64;fill-opacity:1;fill-rule:nonzero;stroke:none"
             id="path223" /></g><g
           id="g225"
           transform="translate(416.8584,174.0504)"><path
             d="M 0,0 C 0.01,-0.004 -0.029,-0.121 -0.112,-0.339 -0.211,-0.587 -0.336,-0.9 -0.489,-1.285 -0.827,-2.101 -1.301,-3.29 -1.867,-4.764 c -1.135,-2.948 -2.58,-7.07 -3.873,-11.713 -1.286,-4.646 -2.173,-8.923 -2.719,-12.034 -0.275,-1.556 -0.482,-2.818 -0.613,-3.692 -0.067,-0.408 -0.121,-0.741 -0.164,-1.005 -0.041,-0.229 -0.068,-0.349 -0.079,-0.348 -0.011,10e-4 -0.005,0.124 0.015,0.356 0.028,0.266 0.063,0.602 0.105,1.014 0.094,0.879 0.267,2.149 0.514,3.712 0.491,3.126 1.345,7.423 2.635,12.082 1.296,4.656 2.779,8.778 3.97,11.71 0.594,1.467 1.1,2.644 1.473,3.446 0.176,0.375 0.319,0.681 0.433,0.923 C -0.068,-0.103 -0.01,0.005 0,0"
             style="fill:#1a2e35;fill-opacity:1;fill-rule:nonzero;stroke:none"
             id="path227" /></g><g
           id="g229"
           transform="translate(404.1189,124.3217)"><path
             d="m 0,0 c -7.222,3.99 -11.478,11.498 -11.875,19.739 -0.278,5.761 1.492,11.414 3.498,16.822 0.174,0.469 0.38,0.974 0.816,1.221 0.605,0.343 1.363,0.038 1.968,-0.307 C -0.345,34.487 2.835,28.79 4.526,22.993 5.652,19.135 6.235,15.068 5.714,11.084 5.194,7.099 2.916,2.764 0,0"
             style="fill:#375a64;fill-opacity:1;fill-rule:nonzero;stroke:none"
             id="path231" /></g><g
           id="g233"
           transform="translate(404.1189,124.3217)"><path
             d="m 0,0 c -0.011,0 -0.02,0.12 -0.028,0.348 -0.005,0.263 -0.012,0.593 -0.019,0.997 -0.003,0.864 -0.038,2.116 -0.109,3.659 -0.138,3.088 -0.543,7.344 -1.34,11.993 -0.801,4.65 -1.774,8.814 -2.49,11.823 -0.353,1.473 -0.642,2.68 -0.855,3.564 -0.09,0.394 -0.163,0.716 -0.222,0.972 -0.047,0.223 -0.067,0.341 -0.057,0.344 0.011,0.003 0.052,-0.11 0.119,-0.328 0.074,-0.252 0.166,-0.569 0.28,-0.957 0.237,-0.832 0.566,-2.041 0.953,-3.541 0.773,-2.997 1.781,-7.16 2.585,-11.824 C -0.384,12.388 -0.013,8.111 0.069,5.013 0.111,3.464 0.112,2.21 0.076,1.344 0.06,0.939 0.046,0.61 0.036,0.347 0.023,0.119 0.011,0 0,0"
             style="fill:#1a2e35;fill-opacity:1;fill-rule:nonzero;stroke:none"
             id="path235" /></g><g
           id="g237"><g
             id="g239" /><g
             id="g251"><g
               clip-path="url(#clipPath243)"
               opacity="0.300003"
               id="g249"><g
                 transform="translate(404.1189,124.3217)"
                 id="g247"><path
                   d="m 0,0 c -7.222,3.99 -11.478,11.498 -11.875,19.739 -0.278,5.761 1.492,11.414 3.498,16.822 0.174,0.469 0.38,0.974 0.816,1.221 0.605,0.343 1.363,0.038 1.968,-0.307 C -0.345,34.487 2.835,28.79 4.526,22.993 5.652,19.135 6.235,15.068 5.714,11.084 5.194,7.099 2.916,2.764 0,0"
                   style="fill:#000000;fill-opacity:1;fill-rule:nonzero;stroke:none"
                   id="path245" /></g></g></g></g><g
           id="g253"
           transform="translate(412.2666,80.4754)"><path
             d="m 0,0 c 7.108,-1.561 12.96,-6.575 19.817,-9.012 4.537,-1.613 9.667,-2.184 13.29,-5.356 -0.87,2.194 -2.93,3.656 -4.932,4.906 -5.639,3.523 -11.677,6.405 -17.962,8.575 C 6.987,0.227 3.487,1.158 0.2,0.24"
             style="fill:#375a64;fill-opacity:1;fill-rule:nonzero;stroke:none"
             id="path255" /></g><g
           id="g257"
           transform="translate(401.9902,74.1432)"><path
             d="M 0,0 C -8.901,0.143 -18.274,7.722 -27.134,8.174 -17.862,11.168 -4.586,8.722 0,0"
             style="fill:#375a64;fill-opacity:1;fill-rule:nonzero;stroke:none"
             id="path259" /></g><g
           id="g261"
           transform="translate(405.4681,95.4962)"><path
             d="m 0,0 c 4.52,1.629 9.483,1.706 14.231,0.968 4.747,-0.738 9.333,-2.26 13.892,-3.776 -0.457,3.089 -2.958,5.411 -5.307,7.467 -1.768,1.546 -3.55,3.103 -5.579,4.288 -2.029,1.184 -4.343,1.986 -6.69,1.887 C 7.715,10.714 5.02,9.253 3.163,7.112 1.306,4.971 0.307,2.817 0,0"
             style="fill:#375a64;fill-opacity:1;fill-rule:nonzero;stroke:none"
             id="path263" /></g><g
           id="g265"
           transform="translate(387.1996,105.3242)"><path
             d="M 0,0 C -5.603,4.784 -14.09,4.316 -21.456,4.15 -10.134,-1.264 2.068,-8.686 11.819,-16.586 12.119,-11.379 7.078,-6.043 0,0"
             style="fill:#375a64;fill-opacity:1;fill-rule:nonzero;stroke:none"
             id="path267" /></g><g
           id="g269"><g
             id="g271" /><g
             id="g283"><g
               clip-path="url(#clipPath275)"
               opacity="0.300003"
               id="g281"><g
                 transform="translate(387.1996,105.3242)"
                 id="g279"><path
                   d="M 0,0 C -5.603,4.784 -14.09,4.316 -21.456,4.15 -10.134,-1.264 2.068,-8.686 11.819,-16.586 12.119,-11.379 7.078,-6.043 0,0"
                   style="fill:#000000;fill-opacity:1;fill-rule:nonzero;stroke:none"
                   id="path277" /></g></g></g></g><g
           id="g285"
           transform="translate(407.9883,111.9279)"><path
             d="m 0,0 c 2.817,1.878 5.668,3.669 8.617,5.009 2.949,1.339 5.701,3.474 8.55,5.017 3.693,2 6.893,4.78 10.283,7.259 3.39,2.479 7.114,4.718 11.263,5.374 -3.383,0.698 -6.918,0.318 -10.25,-0.592 -3.332,-0.91 -6.498,-2.335 -9.647,-3.754 C 14.445,16.344 9.998,14.327 6.425,11.13 2.852,7.934 -0.378,4.779 0,0"
             style="fill:#375a64;fill-opacity:1;fill-rule:nonzero;stroke:none"
             id="path287" /></g><g
           id="g289"
           transform="translate(431.921,74.1432)"><path
             d="m 0,0 c -0.005,-0.009 -0.102,0.033 -0.282,0.122 -0.21,0.109 -0.466,0.241 -0.776,0.402 -0.671,0.357 -1.633,0.885 -2.845,1.495 -0.6,0.316 -1.265,0.647 -1.986,0.985 -0.714,0.355 -1.49,0.705 -2.312,1.06 -1.643,0.702 -3.479,1.435 -5.48,1.91 -1.996,0.49 -3.985,0.598 -5.71,0.144 -0.871,-0.211 -1.69,-0.418 -2.42,-0.723 -0.731,-0.296 -1.384,-0.643 -1.952,-1.002 -1.141,-0.718 -1.938,-1.479 -2.455,-2.028 -0.515,-0.552 -0.766,-0.89 -0.789,-0.873 -0.009,0.007 0.046,0.096 0.159,0.262 0.112,0.167 0.292,0.402 0.538,0.694 0.494,0.579 1.279,1.378 2.425,2.133 0.571,0.378 1.23,0.744 1.974,1.058 0.743,0.322 1.581,0.545 2.452,0.763 1.764,0.483 3.83,0.38 5.851,-0.119 C -11.575,5.8 -9.73,5.053 -8.083,4.332 -7.26,3.967 -6.485,3.607 -5.774,3.241 -5.054,2.891 -4.393,2.548 -3.799,2.217 -2.597,1.581 -1.65,1.022 -0.998,0.632 -0.699,0.45 -0.452,0.3 -0.25,0.177 -0.081,0.07 0.005,0.01 0,0"
             style="fill:#1a2e35;fill-opacity:1;fill-rule:nonzero;stroke:none"
             id="path291" /></g><g
           id="g293"
           transform="translate(395.3507,78.5542)"><path
             d="m 0,0 c 0.008,0.021 0.205,-0.038 0.558,-0.163 0.353,-0.12 0.851,-0.333 1.45,-0.631 1.198,-0.591 2.773,-1.598 4.253,-3.015 1.475,-1.422 2.545,-2.957 3.184,-4.13 0.321,-0.586 0.554,-1.075 0.688,-1.423 0.139,-0.347 0.205,-0.542 0.185,-0.551 -0.051,-0.023 -0.383,0.731 -1.067,1.862 -0.681,1.13 -1.76,2.615 -3.21,4.013 C 4.586,-2.646 3.06,-1.627 1.903,-0.992 0.746,-0.354 -0.021,-0.052 0,0"
             style="fill:#1a2e35;fill-opacity:1;fill-rule:nonzero;stroke:none"
             id="path295" /></g><g
           id="g297"
           transform="translate(375.6564,105.7712)"><path
             d="m 0,0 c 0.004,0.01 0.134,-0.029 0.379,-0.112 0.276,-0.098 0.63,-0.224 1.069,-0.38 0.474,-0.175 1.037,-0.383 1.684,-0.622 0.657,-0.244 1.37,-0.604 2.176,-0.959 3.205,-1.455 7.47,-3.903 11.589,-7.383 2.031,-1.768 3.867,-3.566 5.404,-5.322 1.53,-1.76 2.825,-3.415 3.835,-4.859 1.016,-1.44 1.787,-2.639 2.315,-3.469 0.25,-0.392 0.452,-0.708 0.609,-0.954 0.138,-0.22 0.206,-0.338 0.197,-0.344 -0.009,-0.007 -0.094,0.099 -0.25,0.307 -0.155,0.207 -0.381,0.517 -0.659,0.923 -0.56,0.809 -1.358,1.987 -2.394,3.405 -1.03,1.423 -2.338,3.057 -3.872,4.797 -1.541,1.736 -3.372,3.516 -5.391,5.274 -4.094,3.458 -8.311,5.921 -11.479,7.422 -0.797,0.367 -1.5,0.74 -2.148,0.998 -0.638,0.258 -1.193,0.481 -1.66,0.67 -0.43,0.179 -0.776,0.323 -1.046,0.436 C 0.12,-0.07 -0.004,-0.01 0,0"
             style="fill:#1a2e35;fill-opacity:1;fill-rule:nonzero;stroke:none"
             id="path299" /></g><g
           id="g301"
           transform="translate(418.8244,100.4996)"><path
             d="m 0,0 c -0.006,-0.021 -0.259,0.013 -0.71,0.092 -0.245,0.045 -0.516,0.095 -0.818,0.15 -0.317,0.062 -0.689,0.063 -1.093,0.105 -1.601,0.117 -3.933,-0.016 -6.117,-1.207 -1.103,-0.557 -2.028,-1.31 -2.784,-2.065 -0.768,-0.749 -1.351,-1.53 -1.79,-2.213 -0.893,-1.367 -1.168,-2.354 -1.223,-2.335 -0.018,0.004 0.032,0.255 0.181,0.694 0.163,0.43 0.415,1.056 0.852,1.76 0.422,0.71 0.997,1.521 1.772,2.299 0.762,0.784 1.708,1.566 2.843,2.141 2.254,1.228 4.666,1.327 6.286,1.15 C -2.192,0.514 -1.816,0.496 -1.498,0.417 -1.197,0.342 -0.927,0.273 -0.682,0.212 -0.237,0.095 0.006,0.021 0,0"
             style="fill:#1a2e35;fill-opacity:1;fill-rule:nonzero;stroke:none"
             id="path303" /></g><g
           id="g305"
           transform="translate(427.7705,128.2529)"><path
             d="m 0,0 c 0.005,-0.01 -0.111,-0.081 -0.337,-0.208 -0.256,-0.139 -0.585,-0.318 -0.993,-0.539 -0.863,-0.465 -2.106,-1.152 -3.616,-2.041 -1.503,-0.902 -3.273,-2.009 -5.157,-3.355 -1.877,-1.35 -3.895,-2.918 -5.757,-4.824 -0.918,-0.959 -1.765,-1.96 -2.355,-3.049 -0.583,-1.12 -1.14,-2.201 -1.653,-3.241 -1.029,-2.076 -1.867,-3.987 -2.473,-5.63 -0.603,-1.643 -0.98,-3.011 -1.203,-3.964 -0.228,-0.952 -0.31,-1.49 -0.341,-1.485 -0.011,0.002 0.002,0.137 0.035,0.394 0.033,0.257 0.087,0.635 0.185,1.117 0.187,0.966 0.533,2.352 1.113,4.014 0.582,1.662 1.403,3.593 2.422,5.683 0.506,1.046 1.059,2.133 1.639,3.255 0.613,1.139 1.472,2.154 2.403,3.127 1.885,1.928 3.919,3.498 5.816,4.841 1.902,1.34 3.691,2.431 5.213,3.311 1.529,0.867 2.79,1.525 3.672,1.957 0.419,0.2 0.758,0.361 1.022,0.487 C -0.13,-0.042 -0.005,0.01 0,0"
             style="fill:#1a2e35;fill-opacity:1;fill-rule:nonzero;stroke:none"
             id="path307" /></g><g
           id="g309"
           transform="translate(402.8107,101.3015)"><path
             d="m 0,0 c -0.022,-0.003 -0.083,0.264 -0.177,0.75 -0.104,0.549 -0.234,1.238 -0.389,2.057 -0.339,1.732 -0.857,4.119 -1.683,6.679 -0.818,2.564 -1.814,4.795 -2.542,6.404 -0.346,0.759 -0.636,1.397 -0.868,1.906 -0.203,0.451 -0.305,0.706 -0.286,0.716 0.02,0.009 0.16,-0.227 0.397,-0.662 0.236,-0.435 0.568,-1.069 0.96,-1.864 0.781,-1.587 1.816,-3.818 2.641,-6.402 0.832,-2.58 1.319,-4.99 1.602,-6.737 0.14,-0.876 0.24,-1.585 0.291,-2.078 C 0.001,0.277 0.022,0.003 0,0"
             style="fill:#1a2e35;fill-opacity:1;fill-rule:nonzero;stroke:none"
             id="path311" /></g><g
           id="g313"
           transform="translate(402.1668,121.5527)"><path
             d="m 0,0 c -0.223,3.363 -1.319,6.631 -2.895,9.61 -4.32,8.168 -12.44,14.223 -21.501,16.034 6.635,-9.889 13.27,-19.779 19.906,-29.669 l 2.571,-5.296 C -0.166,-6.443 0.223,-3.363 0,0"
             style="fill:#375a64;fill-opacity:1;fill-rule:nonzero;stroke:none"
             id="path315" /></g><path
           d="m 430.721,54.877 h -46.288 v 8.204 h 46.288 z"
           style="fill:#ff735d;fill-opacity:1;fill-rule:nonzero;stroke:none"
           id="path317" /><g
           id="g319"
           transform="translate(387.8899,56.5046)"><path
             d="m 0,0 3.941,-25.457 h 30.73 L 39.374,0 Z"
             style="fill:#ff735d;fill-opacity:1;fill-rule:nonzero;stroke:none"
             id="path321" /></g><g
           id="g323"
           transform="translate(430.6956,54.8668)"><path
             d="m 0,0 c 0,-0.09 -10.441,-0.163 -23.317,-0.163 -12.881,0 -23.32,0.073 -23.32,0.163 0,0.09 10.439,0.163 23.32,0.163 C -10.441,0.163 0,0.09 0,0"
             style="fill:#1a2e35;fill-opacity:1;fill-rule:nonzero;stroke:none"
             id="path325" /></g></g></g><g
       id="g327"><g
         id="g329"
         clip-path="url(#clipPath333)"><g
           id="g335"
           transform="translate(143.1454,30.8936)"><path
             d="m 0,0 h -41.068 c -7.349,0 -13.307,5.958 -13.307,13.308 v 41.067 c 0,7.35 5.958,13.308 13.307,13.308 H 0 c 7.35,0 13.308,-5.958 13.308,-13.308 V 13.308 C 13.308,5.958 7.35,0 0,0"
             style="fill:#ff735d;fill-opacity:1;fill-rule:nonzero;stroke:none"
             id="path337" /></g><g
           id="g339"><g
             id="g341" /><g
             id="g353"><g
               clip-path="url(#clipPath345)"
               opacity="0.300003"
               id="g351"><g
                 transform="translate(143.1454,30.8936)"
                 id="g349"><path
                   d="m 0,0 h -41.068 c -7.349,0 -13.307,5.958 -13.307,13.308 v 41.067 c 0,7.35 5.958,13.308 13.307,13.308 H 0 c 7.35,0 13.308,-5.958 13.308,-13.308 V 13.308 C 13.308,5.958 7.35,0 0,0"
                   style="fill:#000000;fill-opacity:1;fill-rule:nonzero;stroke:none"
                   id="path347" /></g></g></g></g><g
           id="g355"
           transform="translate(130.9926,30.8936)"><path
             d="m 0,0 h -41.068 c -7.349,0 -13.307,5.958 -13.307,13.308 v 41.067 c 0,7.35 5.958,13.308 13.307,13.308 H 0 c 7.35,0 13.308,-5.958 13.308,-13.308 V 13.308 C 13.308,5.958 7.35,0 0,0"
             style="fill:#ff735d;fill-opacity:1;fill-rule:nonzero;stroke:none"
             id="path357" /></g><g
           id="g359"
           transform="translate(87.0892,63.7613)"><path
             d="M 0,0 6.818,6.818 19.967,-4.87 41.924,17.171 48.254,10.354 18.993,-18.019 Z"
             style="fill:#ffffff;fill-opacity:1;fill-rule:nonzero;stroke:none"
             id="path361" /></g><g
           id="g363"
           transform="translate(178.6925,30.8936)"><path
             d="m 0,0 h -26.842 c -4.543,0 -8.226,3.683 -8.226,8.226 v 26.842 c 0,4.544 3.683,8.227 8.226,8.227 H 0 c 4.543,0 8.226,-3.683 8.226,-8.227 V 8.226 C 8.226,3.683 4.543,0 0,0"
             style="fill:#1a2e35;fill-opacity:1;fill-rule:nonzero;stroke:none"
             id="path365" /></g><g
           id="g367"
           transform="translate(170.9188,30.8936)"><path
             d="m 0,0 h -26.842 c -4.543,0 -8.226,3.683 -8.226,8.226 v 26.842 c 0,4.544 3.683,8.227 8.226,8.227 H 0 c 4.543,0 8.226,-3.683 8.226,-8.227 V 8.226 C 8.226,3.683 4.543,0 0,0"
             style="fill:#375a64;fill-opacity:1;fill-rule:nonzero;stroke:none"
             id="path369" /></g><g
           id="g371"
           transform="translate(142.5491,51.918)"><path
             d="m 0,0 4.361,4.361 8.411,-7.476 14.045,14.099 4.05,-4.361 -18.718,-18.149 z"
             style="fill:#ffffff;fill-opacity:1;fill-rule:nonzero;stroke:none"
             id="path373" /></g></g></g><g
       id="g377"
       clip-path="url(#clipPath381)"><g
         id="g383"
         transform="translate(285.6938,160.5566)"><path
           d="m 0,0 h -208.928 c -3.976,0 -7.198,3.223 -7.198,7.198 v 291.383 c 0,3.975 3.222,7.198 7.198,7.198 H 0 c 3.975,0 7.198,-3.223 7.198,-7.198 V 7.198 C 7.198,3.223 3.975,0 0,0"
           style="fill:#ffffff;fill-opacity:1;fill-rule:nonzero;stroke:none"
           id="path385" /></g><g
         id="g387"
         transform="translate(285.6938,160.5566)"><path
           d="m 0,0 c -0.014,0.059 0.953,-0.114 2.626,0.53 0.821,0.328 1.81,0.892 2.686,1.881 0.889,0.962 1.625,2.389 1.8,4.114 0.051,6.954 -0.015,17.237 -0.015,30.465 -0.02,26.467 -0.048,64.756 -0.083,112.068 -0.01,23.657 -0.02,49.57 -0.032,77.388 -0.004,13.91 -0.008,28.295 -0.013,43.113 -0.002,7.409 -0.003,14.926 -0.005,22.546 -0.001,1.905 -0.001,3.816 -0.002,5.734 0.12,1.898 -0.401,3.785 -1.635,5.219 -1.2,1.433 -3.001,2.351 -4.878,2.46 -1.911,0.045 -3.883,0.011 -5.831,0.021 -62.557,-0.006 -131.332,-0.013 -203.521,-0.02 -2.18,0.007 -4.333,-1.059 -5.605,-2.828 -0.65,-0.868 -1.087,-1.892 -1.255,-2.962 -0.167,-1.055 -0.081,-2.201 -0.103,-3.318 0,-4.486 0,-8.958 0,-13.415 -10e-4,-8.915 -10e-4,-17.77 -10e-4,-26.561 -0.002,-17.582 -0.003,-34.906 -0.004,-51.929 -0.006,-34.045 -0.011,-66.884 -0.015,-98.167 -0.009,-31.283 -0.017,-61.01 -0.025,-88.831 0,-3.477 -0.001,-6.924 -0.001,-10.341 0.007,-1.662 0.628,-3.296 1.706,-4.539 1.066,-1.254 2.594,-2.087 4.203,-2.328 0.797,-0.13 1.636,-0.083 2.474,-0.092 0.835,-0.001 1.668,-0.001 2.499,-0.001 1.662,-0.001 3.317,-0.001 4.963,-0.002 3.293,-0.001 6.553,-0.003 9.782,-0.004 12.913,-0.006 25.306,-0.012 37.134,-0.017 47.312,-0.035 85.598,-0.063 112.062,-0.083 13.226,-0.021 23.497,-0.037 30.466,-0.048 3.48,-0.012 6.134,-0.02 7.924,-0.026 C -0.914,0.018 0,0 0,0 c 0,0 -0.914,-0.018 -2.699,-0.027 -1.79,-0.006 -4.444,-0.014 -7.924,-0.025 -6.969,-0.012 -17.24,-0.028 -30.466,-0.049 -26.464,-0.02 -64.75,-0.048 -112.062,-0.083 -11.828,-0.005 -24.221,-0.011 -37.134,-0.017 -3.229,-0.001 -6.489,-0.002 -9.782,-0.004 -1.646,0 -3.301,-0.001 -4.963,-0.002 -0.831,0 -1.664,0 -2.499,-0.001 -0.829,0.01 -1.675,-0.041 -2.538,0.096 -1.706,0.254 -3.326,1.137 -4.458,2.465 -1.143,1.315 -1.804,3.05 -1.812,4.812 -0.002,3.417 -0.004,6.866 -0.005,10.343 -0.008,27.821 -0.016,57.548 -0.024,88.831 -0.005,31.283 -0.01,64.122 -0.016,98.167 -0.001,17.023 -0.002,34.347 -0.003,51.929 -0.001,8.791 -0.001,17.646 -0.001,26.561 -0.001,4.457 -0.001,8.929 -0.001,13.415 0.025,1.121 -0.069,2.234 0.11,3.403 0.182,1.151 0.651,2.253 1.35,3.186 1.365,1.9 3.685,3.049 6.024,3.039 72.189,-0.007 140.964,-0.014 203.521,-0.02 1.961,-0.011 3.889,0.023 5.861,-0.025 2.007,-0.117 3.931,-1.1 5.211,-2.63 1.317,-1.509 1.874,-3.601 1.744,-5.525 0,-1.918 -0.001,-3.829 -0.001,-5.734 C 7.431,284.485 7.429,276.968 7.427,269.559 7.423,254.741 7.418,240.356 7.414,226.446 7.403,198.628 7.392,172.715 7.382,149.058 7.347,101.746 7.319,63.457 7.3,36.99 7.269,23.757 7.302,13.489 7.216,6.515 7.031,4.765 6.276,3.324 5.371,2.358 4.479,1.364 3.476,0.803 2.646,0.48 1.811,0.145 1.127,0.074 0.681,0.021 0.228,0.003 0,0 0,0"
           style="fill:#1a2e35;fill-opacity:1;fill-rule:nonzero;stroke:none"
           id="path389" /></g><g
         id="g391"
         transform="translate(252.0457,362.1828)"><path
           d="m 0,0 h -98.995 c -3.481,0 -6.304,2.822 -6.304,6.304 v 0.601 c 0,3.481 2.823,6.304 6.304,6.304 H 0 c 3.482,0 6.304,-2.823 6.304,-6.304 V 6.304 C 6.304,2.822 3.482,0 0,0"
           style="fill:#e1e1e1;fill-opacity:1;fill-rule:nonzero;stroke:none"
           id="path393" /></g><g
         id="g395"
         transform="translate(129.5756,352.663)"><path
           d="m 0,0 h -20.328 c -2.837,0 -5.138,2.301 -5.138,5.138 v 20.328 c 0,2.838 2.301,5.138 5.138,5.138 H 0 c 2.838,0 5.138,-2.3 5.138,-5.138 V 5.138 C 5.138,2.301 2.838,0 0,0"
           style="fill:#ff735d;fill-opacity:1;fill-rule:nonzero;stroke:none"
           id="path397" /></g><g
         id="g399"
         transform="translate(108.8448,367.5248)"><path
           d="M 0,0 3.083,3.083 9.028,-2.202 18.957,7.764 21.819,4.681 8.588,-8.148 Z"
           style="fill:#ffffff;fill-opacity:1;fill-rule:nonzero;stroke:none"
           id="path401" /></g><g
         id="g403"
         transform="translate(252.0457,314.7082)"><path
           d="m 0,0 h -98.995 c -3.481,0 -6.304,2.822 -6.304,6.304 v 0.601 c 0,3.481 2.823,6.304 6.304,6.304 H 0 c 3.482,0 6.304,-2.823 6.304,-6.304 V 6.304 C 6.304,2.822 3.482,0 0,0"
           style="fill:#e1e1e1;fill-opacity:1;fill-rule:nonzero;stroke:none"
           id="path405" /></g><g
         id="g407"
         transform="translate(129.5756,305.1885)"><path
           d="m 0,0 h -20.328 c -2.837,0 -5.138,2.301 -5.138,5.138 v 20.328 c 0,2.838 2.301,5.138 5.138,5.138 H 0 c 2.838,0 5.138,-2.3 5.138,-5.138 V 5.138 C 5.138,2.301 2.838,0 0,0"
           style="fill:#ff735d;fill-opacity:1;fill-rule:nonzero;stroke:none"
           id="path409" /></g><g
         id="g411"
         transform="translate(108.8448,320.0502)"><path
           d="M 0,0 3.083,3.083 9.028,-2.202 18.957,7.764 21.819,4.682 8.588,-8.147 Z"
           style="fill:#ffffff;fill-opacity:1;fill-rule:nonzero;stroke:none"
           id="path413" /></g><g
         id="g415"
         transform="translate(252.0457,267.2336)"><path
           d="m 0,0 h -98.995 c -3.481,0 -6.304,2.822 -6.304,6.304 v 0.601 c 0,3.481 2.823,6.304 6.304,6.304 H 0 c 3.482,0 6.304,-2.823 6.304,-6.304 V 6.304 C 6.304,2.822 3.482,0 0,0"
           style="fill:#e1e1e1;fill-opacity:1;fill-rule:nonzero;stroke:none"
           id="path417" /></g><g
         id="g419"
         transform="translate(129.5756,257.7139)"><path
           d="m 0,0 h -20.328 c -2.837,0 -5.138,2.301 -5.138,5.138 v 20.328 c 0,2.838 2.301,5.138 5.138,5.138 H 0 c 2.838,0 5.138,-2.3 5.138,-5.138 V 5.138 C 5.138,2.301 2.838,0 0,0"
           style="fill:#ff735d;fill-opacity:1;fill-rule:nonzero;stroke:none"
           id="path421" /></g><g
         id="g423"
         transform="translate(108.8448,272.5756)"><path
           d="M 0,0 3.083,3.083 9.028,-2.202 18.957,7.764 21.819,4.682 8.588,-8.147 Z"
           style="fill:#ffffff;fill-opacity:1;fill-rule:nonzero;stroke:none"
           id="path425" /></g><g
         id="g427"
         transform="translate(252.0457,219.759)"><path
           d="m 0,0 h -98.995 c -3.481,0 -6.304,2.822 -6.304,6.304 v 0.601 c 0,3.481 2.823,6.304 6.304,6.304 H 0 c 3.482,0 6.304,-2.823 6.304,-6.304 V 6.304 C 6.304,2.822 3.482,0 0,0"
           style="fill:#e1e1e1;fill-opacity:1;fill-rule:nonzero;stroke:none"
           id="path429" /></g><g
         id="g431"
         transform="translate(129.5756,210.2393)"><path
           d="m 0,0 h -20.328 c -2.837,0 -5.138,2.3 -5.138,5.138 v 20.328 c 0,2.838 2.301,5.138 5.138,5.138 H 0 c 2.838,0 5.138,-2.3 5.138,-5.138 V 5.138 C 5.138,2.3 2.838,0 0,0"
           style="fill:#ff735d;fill-opacity:1;fill-rule:nonzero;stroke:none"
           id="path433" /></g><g
         id="g435"
         transform="translate(108.8448,225.101)"><path
           d="M 0,0 3.083,3.083 9.028,-2.202 18.957,7.764 21.819,4.682 8.588,-8.147 Z"
           style="fill:#ffffff;fill-opacity:1;fill-rule:nonzero;stroke:none"
           id="path437" /></g><g
         id="g439"
         transform="translate(131.1681,418.0148)"><path
           d="M 0,0 -1.466,3.65 -2.933,0 Z M 0.945,-2.379 H -3.878 L -4.775,-4.596 H -8.066 L -3.031,6.812 H 0.147 L 5.199,-4.596 H 1.842 Z"
           style="fill:#1a2e35;fill-opacity:1;fill-rule:nonzero;stroke:none"
           id="path441" /></g><g
         id="g443"
         transform="translate(142.5416,415.9938)"><path
           d="M 0,0 C 1.939,0 3.243,1.157 3.243,3.129 3.243,5.101 1.939,6.258 0,6.258 H -2.037 V 0 Z M -5.264,8.833 H 0.13 c 3.781,0 6.373,-2.2 6.373,-5.704 0,-3.504 -2.592,-5.704 -6.373,-5.704 h -5.394 z"
           style="fill:#1a2e35;fill-opacity:1;fill-rule:nonzero;stroke:none"
           id="path445" /></g><g
         id="g447"
         transform="translate(161.9166,424.8268)"><path
           d="M 0,0 -4.889,-11.408 H -8.066 L -12.939,0 h 3.487 L -6.355,-7.432 -3.194,0 Z"
           style="fill:#1a2e35;fill-opacity:1;fill-rule:nonzero;stroke:none"
           id="path449" /></g><g
         id="g451"
         transform="translate(168.8903,418.0148)"><path
           d="M 0,0 -1.466,3.65 -2.933,0 Z M 0.945,-2.379 H -3.878 L -4.774,-4.596 H -8.066 L -3.031,6.812 H 0.147 L 5.199,-4.596 H 1.842 Z"
           style="fill:#1a2e35;fill-opacity:1;fill-rule:nonzero;stroke:none"
           id="path453" /></g><g
         id="g455"
         transform="translate(185.8537,424.8268)"><path
           d="m 0,0 v -11.408 h -2.656 l -5.036,6.079 v -6.079 h -3.162 V 0 h 2.657 l 5.035,-6.079 V 0 Z"
           style="fill:#1a2e35;fill-opacity:1;fill-rule:nonzero;stroke:none"
           id="path457" /></g><g
         id="g459"
         transform="translate(190.5621,422.2682)"><path
           d="M 0,0 H -3.504 V 2.559 H 6.714 V 0 H 3.227 V -8.849 H 0 Z"
           style="fill:#1a2e35;fill-opacity:1;fill-rule:nonzero;stroke:none"
           id="path461" /></g><g
         id="g463"
         transform="translate(204.6085,418.0148)"><path
           d="M 0,0 -1.466,3.65 -2.933,0 Z M 0.945,-2.379 H -3.878 L -4.775,-4.596 H -8.066 L -3.031,6.812 H 0.147 L 5.199,-4.596 H 1.842 Z"
           style="fill:#1a2e35;fill-opacity:1;fill-rule:nonzero;stroke:none"
           id="path465" /></g><g
         id="g467"
         transform="translate(218.1984,419.3674)"><path
           d="m 0,0 h 2.852 v -4.726 c -1.32,-0.945 -3.129,-1.45 -4.791,-1.45 -3.634,0 -6.291,2.46 -6.291,5.931 0,3.472 2.657,5.932 6.356,5.932 2.135,0 3.862,-0.733 4.987,-2.085 L 1.059,1.744 c -0.782,0.863 -1.678,1.271 -2.77,1.271 -1.956,0 -3.259,-1.287 -3.259,-3.26 0,-1.923 1.303,-3.259 3.226,-3.259 0.603,0 1.174,0.114 1.744,0.375 z"
           style="fill:#1a2e35;fill-opacity:1;fill-rule:nonzero;stroke:none"
           id="path469" /></g><g
         id="g471"
         transform="translate(232.2609,415.9123)"><path
           d="M 0,0 V -2.493 H -9.159 V 8.915 h 8.947 V 6.421 H -5.964 V 4.498 h 5.068 V 2.086 H -5.964 V 0 Z"
           style="fill:#1a2e35;fill-opacity:1;fill-rule:nonzero;stroke:none"
           id="path473" /></g><g
         id="g475"
         transform="translate(233.2536,414.446)"><path
           d="m 0,0 1.059,2.379 c 1.01,-0.668 2.445,-1.124 3.765,-1.124 1.336,0 1.858,0.374 1.858,0.929 0,1.808 -6.487,0.488 -6.487,4.726 0,2.036 1.663,3.699 5.053,3.699 1.482,0 3.014,-0.342 4.139,-0.994 L 8.393,7.219 C 7.301,7.806 6.225,8.099 5.231,8.099 3.878,8.099 3.39,7.643 3.39,7.072 3.39,5.329 9.859,6.632 9.859,2.428 9.859,0.44 8.197,-1.255 4.808,-1.255 2.933,-1.255 1.076,-0.75 0,0"
           style="fill:#1a2e35;fill-opacity:1;fill-rule:nonzero;stroke:none"
           id="path477" /></g></g><g
       id="g479"><g
         id="g481"
         clip-path="url(#clipPath485)"><g
           id="g487"
           transform="translate(332.2083,66.2149)"><path
             d="m 0,0 -0.858,-22.577 c 0,0 22.66,-8.454 22.907,-12.642 l -43.834,0.092 -0.107,35.232 z"
             style="fill:#1a2e35;fill-opacity:1;fill-rule:nonzero;stroke:none"
             id="path489" /></g><g
           id="g491"
           transform="translate(317.7995,45.566)"><path
             d="m 0,0 c -0.849,-0.23 -1.437,-1.183 -1.242,-2.04 0.195,-0.858 1.159,-1.465 2.012,-1.249 0.852,0.215 1.593,1.337 1.303,2.167 -0.289,0.831 -1.46,1.481 -2.236,1.067"
             style="fill:#e1e1e1;fill-opacity:1;fill-rule:nonzero;stroke:none"
             id="path493" /></g><g
           id="g495"
           transform="translate(310.4228,31.0877)"><path
             d="m 0,0 0.128,3.552 41.98,-1.417 c 0,0 1.95,-0.853 1.727,-2.227 z"
             style="fill:#375a64;fill-opacity:1;fill-rule:nonzero;stroke:none"
             id="path497" /></g><g
           id="g499"
           transform="translate(332.061,43.8597)"><path
             d="m 0,0 c -0.008,-0.214 -1.078,-0.309 -2.133,-0.995 -1.072,-0.658 -1.617,-1.584 -1.814,-1.499 -0.197,0.042 0.125,1.321 1.416,2.129 C -1.247,0.455 0.047,0.196 0,0"
             style="fill:#ffffff;fill-opacity:1;fill-rule:nonzero;stroke:none"
             id="path501" /></g><g
           id="g503"
           transform="translate(336.6547,41.9486)"><path
             d="m 0,0 c 0.048,-0.208 -0.879,-0.57 -1.608,-1.473 -0.755,-0.883 -0.941,-1.861 -1.154,-1.851 -0.201,-0.034 -0.347,1.22 0.581,2.327 C -1.264,0.117 -0.004,0.204 0,0"
             style="fill:#ffffff;fill-opacity:1;fill-rule:nonzero;stroke:none"
             id="path505" /></g><g
           id="g507"
           transform="translate(339.2544,36.4403)"><path
             d="M 0,0 C -0.195,-0.045 -0.49,1.025 0.062,2.196 0.606,3.371 1.616,3.831 1.706,3.653 1.827,3.477 1.176,2.849 0.737,1.881 0.276,0.923 0.213,0.021 0,0"
             style="fill:#ffffff;fill-opacity:1;fill-rule:nonzero;stroke:none"
             id="path509" /></g><g
           id="g511"
           transform="translate(331.6858,49.0267)"><path
             d="m 0,0 c -0.09,-0.195 -1.072,0.103 -2.281,0.023 -1.212,-0.055 -2.155,-0.459 -2.266,-0.276 -0.123,0.156 0.798,0.946 2.224,1.02 C -0.897,0.851 0.105,0.168 0,0"
             style="fill:#ffffff;fill-opacity:1;fill-rule:nonzero;stroke:none"
             id="path513" /></g><g
           id="g515"
           transform="translate(278.5491,69.2854)"><path
             d="M 0,0 -2.373,-27.231 1.96,-49.31 c 0.312,-1.592 -0.789,-3.115 -2.397,-3.318 -0.901,-0.114 -1.795,0.209 -2.409,0.878 -3.907,4.26 -18.2,20 -17.915,21.983 0.331,2.297 0.597,28.89 0.597,28.89 z"
             style="fill:#1a2e35;fill-opacity:1;fill-rule:nonzero;stroke:none"
             id="path517" /></g><g
           id="g519"
           transform="translate(278.1116,16.6572)"><path
             d="m 0,0 -20.205,24.702 -0.074,-1.156 c -0.064,-0.999 0.223,-1.989 0.822,-2.791 1.602,-2.147 6.154,-7.978 16.966,-19.872 C -1.862,0.191 -0.924,-0.142 0,0"
             style="fill:#375a64;fill-opacity:1;fill-rule:nonzero;stroke:none"
             id="path521" /></g><g
           id="g523"><g
             id="g525" /><g
             id="g537"><g
               clip-path="url(#clipPath529)"
               opacity="0.600006"
               id="g535"><g
                 transform="translate(264.0689,49.7996)"
                 id="g533"><path
                   d="m 0,0 c 0.653,-0.516 0.81,-1.564 0.321,-2.238 -0.489,-0.674 -1.553,-0.843 -2.215,-0.338 -0.662,0.505 -0.889,1.757 -0.328,2.372 0.561,0.615 1.822,0.745 2.344,0.096"
                   style="fill:#ffffff;fill-opacity:1;fill-rule:nonzero;stroke:none"
                   id="path531" /></g></g></g></g><g
           id="g539"
           transform="translate(272.6416,28.9757)"><path
             d="M 0,0 C 0.149,-0.086 0.856,1.304 2.528,1.968 4.179,2.682 5.662,2.201 5.707,2.367 5.735,2.433 5.403,2.667 4.771,2.798 4.144,2.932 3.215,2.902 2.298,2.523 1.382,2.141 0.704,1.505 0.356,0.967 0.002,0.427 -0.066,0.026 0,0"
             style="fill:#ffffff;fill-opacity:1;fill-rule:nonzero;stroke:none"
             id="path541" /></g><g
           id="g543"
           transform="translate(274.35,25.1984)"><path
             d="M 0,0 C 0.122,-0.127 1.055,0.704 2.491,1.018 3.922,1.363 5.123,1.023 5.177,1.19 5.265,1.325 3.989,1.987 2.357,1.603 0.721,1.236 -0.137,0.083 0,0"
             style="fill:#ffffff;fill-opacity:1;fill-rule:nonzero;stroke:none"
             id="path545" /></g><g
           id="g547"
           transform="translate(269.3251,33.8895)"><path
             d="M 0,0 C 0.12,-0.137 1.547,1.147 3.739,1.831 5.92,2.549 7.829,2.333 7.846,2.514 7.899,2.657 5.897,3.166 3.556,2.402 1.208,1.663 -0.126,0.085 0,0"
             style="fill:#ffffff;fill-opacity:1;fill-rule:nonzero;stroke:none"
             id="path549" /></g><g
           id="g551"
           transform="translate(269.355,42.2278)"><path
             d="M 0,0 C 0.062,-0.168 1.609,0.365 3.575,0.31 5.542,0.282 7.065,-0.316 7.134,-0.151 7.218,-0.022 5.701,0.875 3.588,0.91 1.475,0.964 -0.078,0.132 0,0"
             style="fill:#ffffff;fill-opacity:1;fill-rule:nonzero;stroke:none"
             id="path553" /></g><g
           id="g555"
           transform="translate(269.8493,50.2389)"><path
             d="M 0,0 C 0.074,-0.163 1.648,0.649 3.713,0.421 5.783,0.24 7.167,-0.865 7.272,-0.719 7.32,-0.665 7.044,-0.303 6.439,0.1 5.838,0.504 4.885,0.907 3.772,1.019 2.659,1.127 1.645,0.919 0.978,0.64 0.305,0.363 -0.037,0.063 0,0"
             style="fill:#ffffff;fill-opacity:1;fill-rule:nonzero;stroke:none"
             id="path557" /></g><g
           id="g559"
           transform="translate(273.6117,52.1875)"><path
             d="M 0,0 C 0.035,-0.003 0.12,0.36 0.103,1.029 0.086,1.694 -0.044,2.678 -0.543,3.784 -0.805,4.31 -1.071,4.981 -1.809,5.389 -2.176,5.595 -2.745,5.561 -3.091,5.221 -3.434,4.89 -3.564,4.449 -3.601,4.016 -3.684,2.284 -2.305,0.513 -0.374,0.14 1.568,-0.201 3.411,0.802 4.281,2.247 4.476,2.624 4.623,3.091 4.441,3.565 4.263,4.044 3.72,4.264 3.325,4.222 2.507,4.154 1.966,3.72 1.469,3.404 0.48,2.708 -0.153,1.951 -0.529,1.404 -0.907,0.853 -1.039,0.505 -1.009,0.488 -0.918,0.411 -0.233,1.784 1.704,3.051 2.19,3.34 2.754,3.708 3.34,3.725 3.626,3.735 3.864,3.606 3.95,3.37 4.041,3.144 3.961,2.805 3.794,2.51 3.061,1.329 1.375,0.416 -0.262,0.729 -1.893,1.027 -3.103,2.586 -3.05,3.981 -3.032,4.317 -2.921,4.649 -2.729,4.837 -2.54,5.021 -2.268,5.058 -2.023,4.94 -1.505,4.692 -1.186,4.096 -0.926,3.601 0.095,1.524 -0.123,-0.02 0,0"
             style="fill:#ffffff;fill-opacity:1;fill-rule:nonzero;stroke:none"
             id="path561" /></g><g
           id="g563"
           transform="translate(353.3236,256.5345)"><path
             d="M 0,0 C 0,0 3.324,-12.868 2.118,-28.545 1.651,-34.611 -18.82,-202.433 -18.82,-202.433 h -27.639 l 7.769,157.729 -2.263,-0.491 c 0,0 -15.087,-67.271 -16.318,-78.163 -1.107,-9.79 -13.831,-80.913 -13.831,-80.913 l -25.271,-0.29 8.071,94.075 9.392,90.268 3.534,26.277 z"
             style="fill:#1a2e35;fill-opacity:1;fill-rule:nonzero;stroke:none"
             id="path565" /></g><g
           id="g567"
           transform="translate(313.6286,222.5327)"><path
             d="m 0,0 c -0.012,-0.014 0.048,-0.078 0.179,-0.189 0.135,-0.1 0.355,-0.237 0.674,-0.318 0.625,-0.179 1.667,-0.088 2.621,0.62 0.994,0.698 1.588,2.087 1.789,3.572 0.198,1.502 0.228,3.117 0.34,4.826 0.186,3.413 0.324,6.505 0.397,8.745 0.073,2.239 0.081,3.626 0.007,3.63 C 5.933,20.89 5.791,19.51 5.62,17.276 5.45,15.042 5.252,11.954 5.066,8.54 4.955,6.839 4.936,5.192 4.772,3.753 4.603,2.324 4.09,1.065 3.242,0.415 2.408,-0.262 1.476,-0.405 0.897,-0.302 0.299,-0.208 0.031,0.05 0,0"
             style="fill:#375a64;fill-opacity:1;fill-rule:nonzero;stroke:none"
             id="path569" /></g><g
           id="g571"
           transform="translate(272.9683,238.7597)"><path
             d="m 0,0 c -0.008,-0.033 0.264,-0.142 0.774,-0.279 0.51,-0.138 1.264,-0.286 2.209,-0.371 1.879,-0.179 4.575,-0.002 7.285,1.088 2.713,1.088 4.782,2.826 6.015,4.255 0.624,0.715 1.066,1.343 1.338,1.796 0.274,0.452 0.395,0.719 0.366,0.737 C 17.909,7.277 17.294,6.285 16.004,4.951 14.726,3.619 12.688,1.989 10.068,0.937 7.449,-0.115 4.85,-0.348 3.006,-0.27 1.151,-0.2 0.021,0.091 0,0"
             style="fill:#375a64;fill-opacity:1;fill-rule:nonzero;stroke:none"
             id="path573" /></g><g
           id="g575"
           transform="translate(342.3088,245.7802)"><path
             d="m 0,0 c -0.056,-0.006 -0.01,-1.087 0.419,-2.774 0.425,-1.685 1.308,-3.959 2.78,-6.183 1.481,-2.219 3.235,-3.915 4.624,-4.958 1.39,-1.05 2.368,-1.511 2.395,-1.461 0.125,0.141 -3.691,2.318 -6.57,6.717 C 0.708,-4.301 0.179,0.06 0,0"
             style="fill:#375a64;fill-opacity:1;fill-rule:nonzero;stroke:none"
             id="path577" /></g><g
           id="g579"
           transform="translate(426.7364,293.2639)"><path
             d="m 0,0 6.343,-2.005 11.523,6.368 6.538,-18.206 -15.68,-3.731 -11.878,1.306 z"
             style="fill:#c17560;fill-opacity:1;fill-rule:nonzero;stroke:none"
             id="path581" /></g><g
           id="g583"
           transform="translate(352.9646,366.3613)"><path
             d="M 0,0 C 0,0 6.48,-3.89 11.847,-17.108 22.39,-43.074 29.012,-57.09 29.012,-57.09 L 77.413,-72.378 73.547,-91.78 c 0,0 -49.062,6.835 -55.633,9.299 -8.988,3.37 -15.654,21.098 -15.654,21.098 z"
             style="fill:#e1e1e1;fill-opacity:1;fill-rule:nonzero;stroke:none"
             id="path585" /></g><g
           id="g587"
           transform="translate(339.6632,424.6139)"><path
             d="m 0,0 c 2.497,-0.157 4.952,1.796 5.36,4.265 0.407,2.469 -1.289,5.107 -3.704,5.761 1.464,1.661 1.719,4.276 0.603,6.189 -1.115,1.913 -3.516,2.979 -5.683,2.523 -0.202,2.176 -1.611,4.202 -3.583,5.147 -1.971,0.945 -4.433,0.775 -6.256,-0.431 -2.516,1.945 -6.408,1.826 -8.8,-0.27 -2.14,0.284 -4.395,-0.962 -5.293,-2.925 -0.898,-1.963 -0.367,-4.484 1.248,-5.917"
             style="fill:#1a2e35;fill-opacity:1;fill-rule:nonzero;stroke:none"
             id="path589" /></g><g
           id="g591"
           transform="translate(316.7585,442.7089)"><path
             d="m 0,0 1.121,0.056 c 11.278,0.56 21.096,-7.632 22.561,-18.829 1.362,-10.414 2.734,-21.936 2.944,-27.549 0.433,-11.621 -11.094,-14.005 -11.094,-14.005 l 1.676,-13.905 -28.231,-0.527 -5.008,50.483 C -17.67,-12.269 -12.048,-1.306 0,0"
             style="fill:#c17560;fill-opacity:1;fill-rule:nonzero;stroke:none"
             id="path593" /></g><g
           id="g595"
           transform="translate(332.3862,382.4035)"><path
             d="m 0,0 c 0,0 -7.395,-0.815 -15.44,3.698 0,0 3.995,-8.181 15.532,-6.559 z"
             style="fill:#7c4236;fill-opacity:1;fill-rule:nonzero;stroke:none"
             id="path597" /></g><g
           id="g599"
           transform="translate(336.2624,413.221)"><path
             d="m 0,0 c 0.075,-0.874 -0.604,-1.658 -1.516,-1.753 -0.91,-0.094 -1.71,0.536 -1.784,1.411 -0.074,0.874 0.604,1.659 1.514,1.753 C -0.874,1.506 -0.074,0.874 0,0"
             style="fill:#1a2e35;fill-opacity:1;fill-rule:nonzero;stroke:none"
             id="path601" /></g><g
           id="g603"
           transform="translate(338.2256,418.1294)"><path
             d="M 0,0 C -0.195,-0.227 -1.497,0.641 -3.282,0.548 -5.066,0.48 -6.33,-0.503 -6.534,-0.295 c -0.1,0.093 0.09,0.494 0.639,0.937 0.541,0.441 1.479,0.891 2.591,0.942 C -2.192,1.633 -1.237,1.27 -0.678,0.878 -0.108,0.484 0.097,0.102 0,0"
             style="fill:#1a2e35;fill-opacity:1;fill-rule:nonzero;stroke:none"
             id="path605" /></g><g
           id="g607"
           transform="translate(319.9806,412.7715)"><path
             d="m 0,0 c 0.075,-0.874 -0.605,-1.658 -1.516,-1.752 -0.91,-0.095 -1.71,0.535 -1.784,1.41 -0.075,0.874 0.605,1.659 1.514,1.754 C -0.874,1.506 -0.074,0.874 0,0"
             style="fill:#1a2e35;fill-opacity:1;fill-rule:nonzero;stroke:none"
             id="path609" /></g><g
           id="g611"
           transform="translate(320.6986,416.925)"><path
             d="m 0,0 c -0.195,-0.227 -1.499,0.641 -3.283,0.547 -1.783,-0.068 -3.048,-1.051 -3.252,-0.842 -0.1,0.092 0.088,0.493 0.64,0.937 0.541,0.441 1.478,0.891 2.59,0.941 1.112,0.05 2.068,-0.313 2.626,-0.705 C -0.111,0.484 0.096,0.102 0,0"
             style="fill:#1a2e35;fill-opacity:1;fill-rule:nonzero;stroke:none"
             id="path613" /></g><g
           id="g615"
           transform="translate(327.8337,404.0102)"><path
             d="M 0,0 C -0.014,0.101 1.086,0.348 2.873,0.667 3.326,0.737 3.753,0.849 3.814,1.164 3.905,1.498 3.69,1.98 3.443,2.5 2.96,3.581 2.454,4.715 1.923,5.903 -0.195,10.751 -1.751,14.747 -1.555,14.83 -1.359,14.914 0.516,11.052 2.633,6.204 3.144,5.008 3.633,3.868 4.098,2.777 4.296,2.268 4.622,1.695 4.423,1 4.317,0.653 3.995,0.389 3.707,0.296 3.419,0.193 3.163,0.175 2.938,0.151 1.134,-0.037 0.012,-0.1 0,0"
             style="fill:#1a2e35;fill-opacity:1;fill-rule:nonzero;stroke:none"
             id="path617" /></g><g
           id="g619"
           transform="translate(321.9054,423.869)"><path
             d="m 0,0 c -0.213,-0.464 -1.767,-0.05 -3.653,-0.082 -1.887,0.01 -3.456,-0.424 -3.652,0.038 -0.085,0.22 0.229,0.643 0.89,1.039 0.655,0.396 1.665,0.727 2.796,0.734 1.131,0.006 2.129,-0.312 2.769,-0.7 C -0.205,0.641 0.094,0.221 0,0"
             style="fill:#1a2e35;fill-opacity:1;fill-rule:nonzero;stroke:none"
             id="path621" /></g><g
           id="g623"
           transform="translate(337.9466,425.4933)"><path
             d="m 0,0 c -0.356,-0.424 -1.85,-0.076 -3.622,-0.145 -1.774,-0.016 -3.258,-0.434 -3.624,-0.028 -0.162,0.199 0.054,0.617 0.69,1.033 0.627,0.414 1.692,0.781 2.911,0.81 1.218,0.028 2.291,-0.287 2.929,-0.671 C -0.07,0.613 0.156,0.206 0,0"
             style="fill:#1a2e35;fill-opacity:1;fill-rule:nonzero;stroke:none"
             id="path625" /></g><g
           id="g627"
           transform="translate(339.0585,429.2068)"><path
             d="m 0,0 c 0,0 -3.425,7.121 -7.016,8.644 -4.348,1.844 -5.945,-2.907 -10.047,-1.977 -4.102,0.93 -8.254,2.7 -12.233,-0.633 -4.356,-3.649 -2.117,-5.945 -2.14,-11.112 -0.095,-20.95 -3.617,-27.047 -5.192,-17.26 -0.172,1.072 -3.207,1.781 -3.877,6.314 -0.868,5.878 -1.452,13.039 -0.341,17.296 0.935,3.589 2.828,6.13 6.307,9.001 5.491,4.531 13.32,5.012 18.666,4.741 C -10.528,14.743 0.032,9.131 0,0"
             style="fill:#1a2e35;fill-opacity:1;fill-rule:nonzero;stroke:none"
             id="path629" /></g><g
           id="g631"
           transform="translate(303.1554,407.2212)"><path
             d="M 0,0 C -0.162,1.789 -1.777,3.128 -3.555,2.869 -5.711,2.556 -8.06,1.206 -7.695,-3.263 -7.046,-11.191 0.779,-8.905 0.774,-8.676 0.771,-8.521 0.301,-3.315 0,0"
             style="fill:#c17560;fill-opacity:1;fill-rule:nonzero;stroke:none"
             id="path633" /></g><g
           id="g635"
           transform="translate(301.9609,401.3865)"><path
             d="m 0,0 c -0.037,0.022 -0.13,-0.108 -0.355,-0.234 -0.219,-0.123 -0.604,-0.227 -1.031,-0.106 -0.862,0.239 -1.676,1.511 -1.831,2.937 -0.079,0.719 0.015,1.419 0.225,2.009 0.194,0.6 0.536,1.035 0.952,1.144 0.411,0.132 0.73,-0.096 0.846,-0.311 0.124,-0.213 0.087,-0.376 0.13,-0.386 0.024,-0.018 0.159,0.147 0.068,0.469 -0.045,0.155 -0.153,0.334 -0.352,0.471 -0.203,0.14 -0.489,0.196 -0.78,0.14 C -2.736,6.04 -3.24,5.433 -3.47,4.786 -3.734,4.133 -3.857,3.345 -3.769,2.537 c 0.182,-1.593 1.122,-3.021 2.295,-3.259 0.57,-0.1 1.021,0.106 1.246,0.313 C 0.001,-0.193 0.029,-0.012 0,0"
             style="fill:#7c4236;fill-opacity:1;fill-rule:nonzero;stroke:none"
             id="path637" /></g><g
           id="g639"
           transform="translate(302.5462,422.6131)"><path
             d="m 0,0 c 1.066,-0.653 2.192,-1.324 3.44,-1.386 1.249,-0.061 2.634,0.723 2.783,1.965 0.066,0.557 -0.1,1.192 0.242,1.637 0.408,0.531 1.216,0.411 1.885,0.374 2.321,-0.13 4.891,2.553 5.368,4.828 0.632,-0.852 1.935,-1.054 2.797,-0.436 0.863,0.619 1.172,0.963 1.829,1.796 0.658,0.833 1.601,1.596 2.658,1.499 0.591,-0.054 1.158,-0.376 1.746,-0.295 1.038,0.145 1.486,1.391 1.593,2.434 0.106,1.043 0.169,2.256 1.024,2.863 0.793,0.562 1.868,0.313 2.835,0.219 0.967,-0.094 2.195,0.193 2.394,1.144 0.105,0.499 -0.132,1.007 -0.427,1.423 -1.332,1.885 -4.072,2.616 -6.167,1.645 -0.907,2.585 -3.462,4.505 -6.198,4.657 -2.736,0.152 -5.487,-1.473 -6.675,-3.942 C 9.373,21.864 6.903,22.382 4.718,21.768 2.534,21.154 0.695,19.426 -0.053,17.284 -2.01,17.696 -4.174,16.84 -5.319,15.2 -6.464,13.561 -6.523,11.234 -5.463,9.538 -6.85,8.652 -8.002,7.173 -7.949,5.528 -7.897,3.883 -6.215,2.325 -4.65,2.836 c -0.578,-1.311 0.03,-3.022 1.305,-3.675 1.276,-0.654 3.019,-0.148 3.746,1.087"
             style="fill:#1a2e35;fill-opacity:1;fill-rule:nonzero;stroke:none"
             id="path641" /></g><g
           id="g643"
           transform="translate(327.2527,440.016)"><path
             d="M 0,0 C 0.007,0 0.008,-0.049 0.005,-0.145 0,-0.241 0.001,-0.386 -0.024,-0.572 -0.079,-0.942 -0.199,-1.493 -0.525,-2.131 -0.853,-2.759 -1.373,-3.493 -2.192,-4.095 -2.993,-4.704 -4.11,-5.191 -5.398,-5.185 l 0.125,0.183 c 0.281,-0.667 0.254,-1.485 -0.05,-2.2 -0.285,-0.726 -0.758,-1.381 -1.262,-2.021 -0.259,-0.308 -0.479,-0.665 -0.843,-0.955 -0.355,-0.278 -0.787,-0.45 -1.235,-0.529 -0.89,-0.159 -1.915,0.068 -2.602,0.789 l 0.293,0.099 c -0.124,-1.588 -0.943,-3.212 -2.321,-4.246 -0.728,-0.583 -1.646,-0.963 -2.565,-0.984 -0.92,-0.037 -1.788,0.191 -2.598,0.436 l 0.208,0.104 c -0.378,-1.008 -0.992,-1.882 -1.758,-2.544 -0.751,-0.659 -1.775,-1.075 -2.729,-0.891 -1.894,0.304 -3.214,1.801 -3.538,3.256 l 0.184,-0.075 c -0.904,-0.553 -1.9,-0.651 -2.708,-0.536 -0.819,0.108 -1.474,0.429 -1.945,0.754 -0.474,0.331 -0.761,0.682 -0.936,0.926 -0.162,0.254 -0.23,0.396 -0.222,0.401 0.039,0.034 0.294,-0.591 1.233,-1.216 0.467,-0.298 1.106,-0.589 1.894,-0.674 0.777,-0.093 1.719,0.022 2.554,0.551 l 0.144,0.091 0.04,-0.166 c 0.32,-1.357 1.589,-2.752 3.344,-3.014 0.864,-0.157 1.764,0.214 2.476,0.838 0.715,0.623 1.3,1.466 1.65,2.413 l 0.055,0.15 0.153,-0.046 c 0.797,-0.239 1.634,-0.451 2.484,-0.415 0.851,0.024 1.674,0.362 2.368,0.915 1.303,0.978 2.072,2.498 2.196,4.002 l 0.031,0.378 0.262,-0.278 c 0.58,-0.618 1.497,-0.838 2.297,-0.696 0.402,0.068 0.786,0.22 1.095,0.46 0.302,0.23 0.533,0.584 0.796,0.895 0.503,0.629 0.964,1.259 1.236,1.935 0.289,0.669 0.315,1.388 0.074,1.993 l -0.074,0.186 0.2,-0.003 c 1.214,-0.022 2.291,0.423 3.075,0.995 0.801,0.565 1.322,1.262 1.661,1.863 C 0.008,-0.824 -0.058,0.016 0,0"
             style="fill:#375a64;fill-opacity:1;fill-rule:nonzero;stroke:none"
             id="path645" /></g><g
           id="g647"
           transform="translate(327.7476,397.8838)"><path
             d="M 0,0 C -0.059,0.294 -1.992,-0.211 -3.799,1.081 -5.61,2.369 -5.936,4.486 -6.21,4.43 -6.338,4.425 -6.464,3.873 -6.259,2.997 -6.064,2.137 -5.462,0.964 -4.356,0.172 -3.249,-0.615 -2.013,-0.753 -1.203,-0.61 -0.375,-0.471 0.046,-0.129 0,0"
             style="fill:#1a2e35;fill-opacity:1;fill-rule:nonzero;stroke:none"
             id="path649" /></g><g
           id="g651"
           transform="translate(374.8809,324.4602)"><path
             d="m 0,0 c -0.177,0.627 -10.516,28.771 -13.815,34.931 -3.946,7.369 -12.242,10.629 -17.392,10.946 -5.149,0.317 -60.256,-4.074 -60.256,-4.074 0,0 -16.46,-3.688 -18.558,-17.844 -2.415,-16.297 -4.531,-53.605 -4.531,-53.605 l 25.083,12.856 3.249,8.182 51.896,-11.578 12.672,18.744 z"
             style="fill:#e1e1e1;fill-opacity:1;fill-rule:nonzero;stroke:none"
             id="path653" /></g><g
           id="g655"
           transform="translate(279.7776,364.6578)"><path
             d="m 0,0 21.525,9.49 2.412,9.283 25.125,-11.878 5.263,5.814 2.204,-6.553 5.506,-1.8 12.868,-22.632 -0.04,-48.226 2.604,-41.601 -2.79,-6.566 -23.052,-3.401 c -2.521,-0.372 -5.082,-0.375 -7.604,-0.009 l -46.791,7.65 -1.206,13.744 4.998,37.882 z"
             style="fill:#e1e1e1;fill-opacity:1;fill-rule:nonzero;stroke:none"
             id="path657" /></g><g
           id="g659"
           transform="translate(303.7146,383.4308)"><path
             d="m 0,0 c 0,0 2.809,-0.813 10.024,-4.663 7.068,-3.771 15.101,-7.215 15.101,-7.215 L 24.514,-23.224 -2.224,-9.8"
             style="fill:#e1e1e1;fill-opacity:1;fill-rule:nonzero;stroke:none"
             id="path661" /></g><g
           id="g663"
           transform="translate(334.1027,377.367)"><path
             d="M 0,0 -5.263,-5.815 -2.45,-17.976 2.237,-6.984"
             style="fill:#e1e1e1;fill-opacity:1;fill-rule:nonzero;stroke:none"
             id="path665" /></g><g
           id="g667"><g
             id="g669" /><g
             id="g681"><g
               clip-path="url(#clipPath673)"
               opacity="0.300003"
               id="g679"><g
                 transform="translate(328.9376,370.2974)"
                 id="g677"><path
                   d="M 0,0 C 0.233,-0.174 1.694,-14.035 1.694,-14.035 L -25.108,2.159 -0.709,-10.09 Z"
                   style="fill:#000000;fill-opacity:1;fill-rule:nonzero;stroke:none"
                   id="path675" /></g></g></g></g><g
           id="g683"
           transform="translate(328.7562,318.5656)"><path
             d="m 0,0 c -0.402,10.602 1.269,37.649 1.269,37.649 l 3.493,0.563 c 0,0 6.526,-26.293 8.963,-58.512 0.987,-13.039 0.987,-28.141 0.987,-28.141 L 7.694,-63.504 -0.063,-48.54 c 0,0 0.552,35.657 0.063,48.54"
             style="fill:#375a64;fill-opacity:1;fill-rule:nonzero;stroke:none"
             id="path685" /></g><g
           id="g687"
           transform="translate(278.1751,363.018)"><path
             d="m 0,0 c -0.041,-0.052 0.726,-0.65 1.811,-1.768 1.087,-1.114 2.449,-2.797 3.577,-4.887 1.121,-2.095 1.774,-4.16 2.104,-5.68 0.333,-1.522 0.408,-2.491 0.475,-2.486 0.026,0.002 0.026,0.245 0.006,0.685 -0.014,0.441 -0.087,1.076 -0.223,1.852 C 7.483,-10.73 6.858,-8.611 5.716,-6.479 4.568,-4.351 3.145,-2.661 1.997,-1.581 1.424,-1.039 0.934,-0.628 0.575,-0.373 0.219,-0.113 0.016,0.021 0,0"
             style="fill:#1a2e35;fill-opacity:1;fill-rule:nonzero;stroke:none"
             id="path689" /></g><g
           id="g691"
           transform="translate(328.7562,366.1273)"><path
             d="M 0,0 2.393,0.934 4.662,-2.958 5.072,-9.35 1.875,-9.865 -0.527,-5.92 Z"
             style="fill:#375a64;fill-opacity:1;fill-rule:nonzero;stroke:none"
             id="path693" /></g><g
           id="g695"
           transform="translate(354.6405,347.1104)"><path
             d="m 0,0 c -0.103,0 -0.186,-13.838 -0.186,-30.904 0,-17.072 0.083,-30.906 0.186,-30.906 0.103,0 0.186,13.834 0.186,30.906 C 0.186,-13.838 0.103,0 0,0"
             style="fill:#1a2e35;fill-opacity:1;fill-rule:nonzero;stroke:none"
             id="path697" /></g><g
           id="g699"
           transform="translate(328.5873,371.6508)"><path
             d="M 0,0 C -0.046,-0.032 0.516,-0.891 1.365,-2.312 2.214,-3.733 3.337,-5.726 4.407,-8.01 4.495,-8.198 4.581,-8.384 4.662,-8.558 l 0.167,-0.36 0.169,0.357 c 1.032,2.171 1.776,4.191 2.238,5.666 0.232,0.737 0.398,1.338 0.5,1.755 0.102,0.418 0.144,0.651 0.12,0.658 C 7.805,-0.468 7.518,-1.367 6.995,-2.814 6.472,-4.26 5.693,-6.249 4.663,-8.401 L 5,-8.404 C 4.919,-8.228 4.832,-8.041 4.744,-7.852 3.666,-5.551 2.498,-3.564 1.588,-2.173 1.133,-1.476 0.745,-0.927 0.467,-0.554 0.187,-0.182 0.021,0.014 0,0"
             style="fill:#1a2e35;fill-opacity:1;fill-rule:nonzero;stroke:none"
             id="path701" /></g><g
           id="g703"
           transform="translate(301.3023,374.1476)"><path
             d="M 0,0 C -0.005,-0.012 0.121,-0.087 0.367,-0.221 0.651,-0.369 1.01,-0.557 1.452,-0.788 2.439,-1.299 3.793,-2 5.446,-2.857 c 3.37,-1.753 7.985,-4.25 13.099,-6.982 3.115,-1.66 6.065,-3.197 8.631,-4.481 l 0.237,-0.119 0.003,0.263 c 0.032,3.328 0.059,6.133 0.079,8.161 -0.002,0.953 -0.003,1.722 -0.004,2.3 -0.007,0.532 -0.019,0.817 -0.037,0.817 -0.018,0.001 -0.04,-0.283 -0.066,-0.815 -0.022,-0.578 -0.052,-1.346 -0.088,-2.299 -0.053,-2.027 -0.127,-4.831 -0.214,-8.158 l 0.239,0.144 c -2.551,1.307 -5.491,2.856 -8.605,4.515 -5.112,2.732 -9.75,5.194 -13.154,6.888 -1.7,0.85 -3.086,1.517 -4.05,1.965 C 1.061,-0.452 0.692,-0.285 0.4,-0.153 0.143,-0.042 0.006,0.012 0,0"
             style="fill:#1a2e35;fill-opacity:1;fill-rule:nonzero;stroke:none"
             id="path705" /></g><g
           id="g707"
           transform="translate(351.4074,365.4047)"><path
             d="m 0,0 c -0.054,-0.033 0.367,-0.745 0.908,-1.958 0.544,-1.21 1.166,-2.943 1.535,-4.931 0.362,-1.991 0.398,-3.831 0.32,-5.156 -0.074,-1.325 -0.214,-2.141 -0.152,-2.152 0.025,-0.005 0.083,0.194 0.167,0.56 0.089,0.366 0.176,0.903 0.248,1.572 0.146,1.336 0.153,3.215 -0.217,5.243 -0.376,2.026 -1.051,3.78 -1.662,4.977 C 0.842,-1.246 0.569,-0.774 0.356,-0.464 0.147,-0.152 0.022,0.014 0,0"
             style="fill:#1a2e35;fill-opacity:1;fill-rule:nonzero;stroke:none"
             id="path709" /></g><g
           id="g711"
           transform="translate(331.2158,355.8489)"><path
             d="M 0,0 C 0.055,-0.087 0.663,0.198 1.357,0.637 2.052,1.076 2.571,1.502 2.516,1.589 2.461,1.676 1.853,1.391 1.158,0.952 0.464,0.513 -0.055,0.087 0,0"
             style="fill:#1a2e35;fill-opacity:1;fill-rule:nonzero;stroke:none"
             id="path713" /></g><g
           id="g715"
           transform="translate(330.0665,357.4104)"><path
             d="M 0,0 C 0.094,-0.041 0.822,1.408 1.625,3.236 2.428,5.065 3.003,6.581 2.909,6.622 2.815,6.664 2.088,5.215 1.284,3.386 0.481,1.557 -0.094,0.041 0,0"
             style="fill:#1a2e35;fill-opacity:1;fill-rule:nonzero;stroke:none"
             id="path717" /></g><g
           id="g719"
           transform="translate(275.369,362.2796)"><path
             d="m 0,0 c 0,0 -8.293,-5.969 -9.33,-9.267 -1.037,-3.298 -5.443,-56.892 -6.22,-63.269 -0.778,-6.377 -1.555,-18.298 3.369,-22.186 4.924,-3.887 15.55,-6.803 15.55,-6.803 l 9.817,20.28 -5.2,10.885 5.2,40.704 z"
             style="fill:#e1e1e1;fill-opacity:1;fill-rule:nonzero;stroke:none"
             id="path721" /></g><g
           id="g723"
           transform="translate(276.372,261.47)"><path
             d="m 0,0 c 0.001,0.014 0.182,0.027 0.531,0.039 0.348,0.013 0.863,0.006 1.525,0.098 1.301,0.165 3.3,0.506 5.306,1.919 2.02,1.365 3.876,3.797 5.061,6.927 1.191,3.121 1.883,6.884 1.919,10.909 l 0.046,-0.139 c -2.359,3.266 -4.934,6.831 -7.616,10.544 l -0.06,0.083 0.013,0.103 c 0.034,0.27 0.071,0.563 0.109,0.856 1.465,11.416 2.791,21.747 3.759,29.284 0.481,3.708 0.873,6.726 1.151,8.872 0.133,1.01 0.238,1.814 0.316,2.411 0.067,0.55 0.103,0.84 0.123,0.84 0.009,0 0.012,-0.073 0.009,-0.216 C 12.188,72.388 12.184,72.174 12.165,71.896 12.111,71.295 12.037,70.487 11.946,69.472 11.736,67.369 11.397,64.33 10.959,60.578 10.083,53.073 8.808,42.712 7.35,31.273 7.313,30.98 7.276,30.687 7.241,30.417 l -0.047,0.185 c 2.674,-3.719 5.241,-7.291 7.593,-10.562 l 0.047,-0.066 -10e-4,-0.073 C 14.778,15.79 14.053,12.008 12.81,8.832 11.575,5.656 9.635,3.172 7.532,1.805 6.497,1.102 5.448,0.665 4.509,0.406 4.275,0.341 4.049,0.279 3.83,0.218 3.609,0.18 3.395,0.143 3.19,0.108 2.784,0.025 2.409,-0.01 2.071,-0.025 1.398,-0.092 0.879,-0.059 0.529,-0.044 0.18,-0.029 -0.001,-0.014 0,0"
             style="fill:#1a2e35;fill-opacity:1;fill-rule:nonzero;stroke:none"
             id="path725" /></g><g
           id="g727"
           transform="translate(266.3506,288.1621)"><path
             d="M 0,0 C -0.034,0.044 0.739,0.724 2.177,1.548 3.61,2.374 5.745,3.282 8.237,3.77 10.73,4.25 13.051,4.208 14.688,3.979 16.331,3.753 17.301,3.412 17.286,3.359 17.274,3.178 13.24,4.246 8.336,3.259 3.42,2.338 0.08,-0.163 0,0"
             style="fill:#1a2e35;fill-opacity:1;fill-rule:nonzero;stroke:none"
             id="path729" /></g><g
           id="g731"
           transform="translate(331.4238,341.5196)"><path
             d="m 0,0 v 0 0 0 c 0.029,0.004 0.473,-1.779 1.23,-4.92 1.691,2.443 3.867,4.521 6.393,6.116 L 7.592,1.19 c 0,0 12.804,12.719 16.894,26.094 2.969,9.709 2.229,20.462 2.229,20.462 -0.119,0.513 -1.118,5.073 -1.934,8.805 -0.668,3.058 1.201,6.068 4.223,6.883 6.357,1.713 23.57,5.063 27.518,-6.497 5.891,-17.249 -3.632,-35.88 -3.529,-41.211 0.019,-1.007 0.035,-1.823 0.048,-2.486 5.046,1.168 8.959,2.009 8.979,1.924 0,0 -0.005,-0.002 -0.006,-0.003 l 33.143,7.733 c 0,0 10.95,3.314 14.706,-7.912 3.757,-11.225 -8.987,-14.957 -8.987,-14.957 0,0 5.989,0.264 7.617,-9.946 1.628,-10.209 -9.322,-13.523 -9.322,-13.523 0,0 6.707,0.432 8.442,-8.618 1.689,-8.809 -9.259,-14.118 -9.844,-14.395 1.623,0.348 2.631,0.54 2.641,0.496 0.009,-0.039 -0.746,-0.253 -2.009,-0.578 5.105,-0.653 5.845,-6.732 5.845,-6.732 3.29,-12.469 -6.31,-15.089 -6.31,-15.089 l -60.51,-14.132 c -6.089,-1.422 -12.381,-1.156 -18.242,0.662 0.58,-2.578 0.894,-4.03 0.87,-4.038 v 0 l -42.264,-9.871 c -0.092,-0.021 -4.655,19.185 -10.192,42.894 -5.539,23.716 -9.953,42.953 -9.862,42.975 z"
             style="fill:#ff735d;fill-opacity:1;fill-rule:nonzero;stroke:none"
             id="path733" /></g><g
           id="g735"><g
             id="g737" /><g
             id="g749"><g
               clip-path="url(#clipPath741)"
               opacity="0.300003"
               id="g747"><g
                 transform="translate(331.4238,341.5196)"
                 id="g745"><path
                   d="m 0,0 v 0 0 0 c 0.029,0.004 0.473,-1.779 1.23,-4.92 1.691,2.443 3.867,4.521 6.393,6.116 L 7.592,1.19 c 0,0 12.804,12.719 16.894,26.094 2.969,9.709 2.229,20.462 2.229,20.462 -0.119,0.513 -1.118,5.073 -1.934,8.805 -0.668,3.058 1.201,6.068 4.223,6.883 6.357,1.713 23.57,5.063 27.518,-6.497 5.891,-17.249 -3.632,-35.88 -3.529,-41.211 0.019,-1.007 0.035,-1.823 0.048,-2.486 5.046,1.168 8.959,2.009 8.979,1.924 0,0 -0.005,-0.002 -0.006,-0.003 l 33.143,7.733 c 0,0 10.95,3.314 14.706,-7.912 3.757,-11.225 -8.987,-14.957 -8.987,-14.957 0,0 5.989,0.264 7.617,-9.946 1.628,-10.209 -9.322,-13.523 -9.322,-13.523 0,0 6.707,0.432 8.442,-8.618 1.689,-8.809 -9.259,-14.118 -9.844,-14.395 1.623,0.348 2.631,0.54 2.641,0.496 0.009,-0.039 -0.746,-0.253 -2.009,-0.578 5.105,-0.653 5.845,-6.732 5.845,-6.732 3.29,-12.469 -6.31,-15.089 -6.31,-15.089 l -60.51,-14.132 c -6.089,-1.422 -12.381,-1.156 -18.242,0.662 0.58,-2.578 0.894,-4.03 0.87,-4.038 v 0 l -42.264,-9.871 c -0.092,-0.021 -4.655,19.185 -10.192,42.894 -5.539,23.716 -9.953,42.953 -9.862,42.975 z"
                   style="fill:#000000;fill-opacity:1;fill-rule:nonzero;stroke:none"
                   id="path743" /></g></g></g></g><g
           id="g751"
           transform="translate(339.5941,329.4776)"><path
             d="m 0,0 -0.82,-5.494 13.511,-57.853 c 8.002,-5.314 17.843,-7.089 27.197,-4.904 l 60.51,14.131 c 0,0 9.599,2.62 6.309,15.089 0,0 -0.79,6.623 -6.505,6.801 0,0 11.608,5.358 9.873,14.408 -1.736,9.05 -8.442,8.618 -8.442,8.618 0,0 10.95,3.314 9.322,13.523 -1.628,10.21 -7.618,9.946 -7.618,9.946 0,0 12.744,3.732 8.988,14.958 -3.756,11.225 -14.707,7.911 -14.707,7.911 L 54.579,27.092 16.852,18.281 C 8.018,16.218 1.339,8.972 0,0"
             style="fill:#ff735d;fill-opacity:1;fill-rule:nonzero;stroke:none"
             id="path753" /></g><g
           id="g755"
           transform="translate(349.6473,344.9074)"><path
             d="m 0,0 c 0,0 12.804,12.719 16.894,26.094 2.969,9.709 2.23,20.462 2.23,20.462 -0.12,0.514 -1.119,5.074 -1.934,8.805 -0.669,3.058 1.2,6.069 4.223,6.883 6.357,1.714 17.828,-1.446 21.777,-13.007 5.89,-17.249 2.109,-29.37 2.211,-34.701 l 0.103,-5.33 z"
             style="fill:#ff735d;fill-opacity:1;fill-rule:nonzero;stroke:none"
             id="path757" /></g><g
           id="g759"
           transform="translate(362.1094,257.8494)"><path
             d="m 0,0 -42.264,-9.87 -20.054,85.868 42.264,9.87 z"
             style="fill:#ff735d;fill-opacity:1;fill-rule:nonzero;stroke:none"
             id="path761" /></g><g
           id="g763"
           transform="translate(362.1093,257.8494)"><path
             d="M 0,0 C 0.091,0.021 -4.324,19.263 -9.861,42.971 -15.399,66.687 -19.962,85.89 -20.054,85.868 -20.145,85.847 -15.731,66.61 -10.192,42.893 -4.655,19.185 -0.091,-0.021 0,0"
             style="fill:#1a2e35;fill-opacity:1;fill-rule:nonzero;stroke:none"
             id="path765" /></g><g
           id="g767"
           transform="translate(319.8455,247.9791)"><path
             d="M 0,0 C 0.091,0.021 -4.324,19.263 -9.861,42.971 -15.399,66.687 -19.962,85.89 -20.054,85.868 -20.145,85.847 -15.731,66.61 -10.192,42.893 -4.655,19.185 -0.091,-0.021 0,0"
             style="fill:#1a2e35;fill-opacity:1;fill-rule:nonzero;stroke:none"
             id="path769" /></g><g
           id="g771"
           transform="translate(331.7259,320.5776)"><path
             d="m 0,0 c 1.02,-4.368 -1.694,-8.735 -6.061,-9.755 -4.368,-1.02 -8.736,1.693 -9.756,6.061 -1.02,4.368 1.694,8.736 6.062,9.755 C -5.388,7.081 -1.02,4.368 0,0"
             style="fill:#ffffff;fill-opacity:1;fill-rule:nonzero;stroke:none"
             id="path773" /></g><g
           id="g775"
           transform="translate(404.0758,358.8823)"><path
             d="m 0,0 c -0.021,0.091 -4.647,-0.91 -10.33,-2.238 -5.685,-1.327 -10.275,-2.477 -10.253,-2.569 0.021,-0.091 4.646,0.91 10.331,2.238 C -4.569,-1.242 0.021,-0.091 0,0"
             style="fill:#1a2e35;fill-opacity:1;fill-rule:nonzero;stroke:none"
             id="path777" /></g><g
           id="g779"
           transform="translate(442.1784,320.0668)"><path
             d="m 0,0 c -0.021,0.091 -2.984,-0.522 -6.616,-1.371 -3.634,-0.848 -6.562,-1.61 -6.54,-1.702 0.021,-0.091 2.983,0.523 6.617,1.371 C -2.907,-0.854 0.021,-0.091 0,0"
             style="fill:#1a2e35;fill-opacity:1;fill-rule:nonzero;stroke:none"
             id="path781" /></g><g
           id="g783"
           transform="translate(443.7158,344.1455)"><path
             d="m 0,0 c -0.021,0.091 -4.219,-0.811 -9.375,-2.015 -5.158,-1.204 -9.32,-2.255 -9.298,-2.346 0.021,-0.091 4.218,0.811 9.375,2.015 C -4.142,-1.142 0.021,-0.091 0,0"
             style="fill:#1a2e35;fill-opacity:1;fill-rule:nonzero;stroke:none"
             id="path785" /></g><g
           id="g787"
           transform="translate(442.4658,297.7568)"><path
             d="m 0,0 c -0.021,0.091 -4.219,-0.811 -9.375,-2.015 -5.158,-1.204 -9.32,-2.255 -9.298,-2.346 0.021,-0.091 4.218,0.81 9.375,2.015 C -4.142,-1.142 0.021,-0.091 0,0"
             style="fill:#1a2e35;fill-opacity:1;fill-rule:nonzero;stroke:none"
             id="path789" /></g><g
           id="g791"><g
             id="g793" /><g
             id="g805"><g
               clip-path="url(#clipPath797)"
               opacity="0.300003"
               id="g803"><g
                 transform="translate(371.4203,402.8989)"
                 id="g801"><path
                   d="m 0,0 c -1.315,-1.228 -1.467,-3.304 -0.968,-5.032 0.499,-1.728 1.528,-3.247 2.31,-4.866 1.729,-3.582 2.234,-7.74 1.414,-11.632 -0.251,-1.188 -0.581,-2.564 0.18,-3.51 1.08,-1.341 3.258,-0.596 4.621,0.456 5.164,3.983 7.645,11.141 6.056,17.465 -0.67,2.666 -2.06,5.227 -4.266,6.867 C 7.141,1.387 3.748,2.874 0,0"
                   style="fill:#ffffff;fill-opacity:1;fill-rule:nonzero;stroke:none"
                   id="path799" /></g></g></g></g><g
           id="g807"><g
             id="g809" /><g
             id="g821"><g
               clip-path="url(#clipPath813)"
               opacity="0.300003"
               id="g819"><g
                 transform="translate(441.1714,365.1157)"
                 id="g817"><path
                   d="m 0,0 c -1.483,0.285 -3.005,-0.089 -4.469,-0.461 -8.514,-2.163 -17.027,-4.325 -25.54,-6.487 -2.785,-0.707 -8.01,-1.337 -8.063,-4.179 -0.563,-1.552 0.619,-3.305 2.142,-3.941 1.524,-0.636 3.254,-0.442 4.884,-0.181 3.416,0.546 6.787,1.341 10.151,2.145 6.761,1.615 13.544,3.28 19.962,5.948 0.953,0.397 1.914,0.825 2.685,1.512 0.771,0.686 1.334,1.679 1.265,2.708 C 2.917,-1.429 1.483,-0.285 0,0"
                   style="fill:#ffffff;fill-opacity:1;fill-rule:nonzero;stroke:none"
                   id="path815" /></g></g></g></g><g
           id="g823"
           transform="translate(332.657,338.9562)"><path
             d="m 0,0 c -0.021,0.091 -5.945,-1.214 -13.228,-2.915 -7.286,-1.701 -13.173,-3.154 -13.152,-3.246 0.021,-0.091 5.943,1.214 13.229,2.915 C -5.867,-1.545 0.021,-0.091 0,0"
             style="fill:#ffffff;fill-opacity:1;fill-rule:nonzero;stroke:none"
             id="path825" /></g><g
           id="g827"
           transform="translate(446.6762,329.232)"><path
             d="M 0,0 C 0.023,-0.006 0.081,0.172 0.167,0.5 0.261,0.826 0.34,1.313 0.386,1.919 0.438,2.525 0.414,3.254 0.309,4.053 0.187,4.849 -0.026,5.714 -0.367,6.581 c -0.352,0.863 -0.796,1.636 -1.257,2.296 -0.477,0.65 -0.963,1.194 -1.419,1.596 -0.452,0.407 -0.845,0.704 -1.138,0.876 -0.289,0.177 -0.454,0.265 -0.466,0.245 C -4.683,11.541 -4.052,11.139 -3.209,10.3 -2.784,9.884 -2.331,9.339 -1.881,8.698 -1.447,8.046 -1.025,7.292 -0.682,6.455 -0.352,5.613 -0.136,4.777 0,4.005 0.118,3.231 0.166,2.523 0.146,1.93 0.117,0.741 -0.063,0.014 0,0"
             style="fill:#ffffff;fill-opacity:1;fill-rule:nonzero;stroke:none"
             id="path829" /></g><g
           id="g831"
           transform="translate(447.8531,352.4443)"><path
             d="M 0,0 C 0.024,-0.022 0.411,0.359 0.796,1.136 1.184,1.907 1.503,3.1 1.419,4.429 1.329,5.758 0.858,6.9 0.373,7.613 -0.11,8.334 -0.544,8.661 -0.564,8.636 -0.609,8.594 -0.244,8.212 0.168,7.488 0.583,6.768 0.993,5.673 1.08,4.407 1.159,3.14 0.894,2.001 0.577,1.234 0.262,0.462 -0.05,0.036 0,0"
             style="fill:#ffffff;fill-opacity:1;fill-rule:nonzero;stroke:none"
             id="path833" /></g><g
           id="g835"
           transform="translate(444.656,304.2303)"><path
             d="M 0,0 C 0.017,-0.028 0.555,0.305 1.137,1.122 1.716,1.921 2.286,3.27 2.194,4.819 2.097,6.368 1.367,7.638 0.695,8.361 0.018,9.101 -0.556,9.366 -0.569,9.336 -0.606,9.287 -0.09,8.954 0.512,8.205 1.113,7.47 1.764,6.253 1.855,4.798 1.941,3.344 1.443,2.057 0.936,1.254 0.43,0.437 -0.042,0.044 0,0"
             style="fill:#ffffff;fill-opacity:1;fill-rule:nonzero;stroke:none"
             id="path837" /></g><g
           id="g839"
           transform="translate(440.8185,281.8316)"><path
             d="M 0,0 C 0.027,-0.021 0.395,0.394 0.766,1.203 1.139,2.006 1.456,3.226 1.399,4.59 1.337,5.953 0.916,7.142 0.475,7.909 0.036,8.683 -0.368,9.064 -0.392,9.041 -0.44,9.004 -0.109,8.574 0.262,7.799 0.634,7.027 0.999,5.882 1.059,4.575 1.113,3.268 0.848,2.095 0.544,1.294 0.242,0.49 -0.05,0.032 0,0"
             style="fill:#ffffff;fill-opacity:1;fill-rule:nonzero;stroke:none"
             id="path841" /></g><g
           id="g843"
           transform="translate(393.3051,373.8683)"><path
             d="m 0,0 c 0.023,-0.005 0.112,0.343 0.253,0.978 0.074,0.317 0.155,0.707 0.218,1.164 0.067,0.458 0.164,0.976 0.208,1.557 0.132,1.157 0.187,2.546 0.15,4.086 -0.059,1.54 -0.224,3.23 -0.555,4.979 -0.346,1.746 -0.824,3.376 -1.343,4.827 -0.541,1.443 -1.111,2.711 -1.665,3.735 -0.257,0.522 -0.541,0.967 -0.774,1.366 -0.229,0.401 -0.45,0.733 -0.637,0.999 -0.368,0.537 -0.58,0.826 -0.599,0.813 -0.02,-0.013 0.155,-0.328 0.487,-0.884 0.169,-0.275 0.372,-0.615 0.585,-1.023 0.215,-0.406 0.482,-0.855 0.724,-1.381 0.523,-1.03 1.065,-2.297 1.584,-3.731 0.498,-1.443 0.962,-3.058 1.304,-4.786 C 0.267,10.969 0.44,9.297 0.516,7.774 0.57,6.249 0.54,4.872 0.439,3.721 0.411,3.143 0.332,2.626 0.283,2.169 0.238,1.712 0.176,1.321 0.122,1.002 0.022,0.362 -0.023,0.005 0,0"
             style="fill:#ffffff;fill-opacity:1;fill-rule:nonzero;stroke:none"
             id="path845" /></g><g
           id="g847"
           transform="translate(296.81,272.5541)"><path
             d="m 0,0 c 0,0 3.323,2.573 5.789,2.68 2.466,0.107 5.682,-0.858 6.326,-0.536 0.643,0.322 2.144,1.732 3.109,0.545 0.965,-1.188 2.144,-5.477 -3.002,-6.656 H 8.684 c 0,0 0.429,-3.538 1.287,-4.931 0.857,-1.394 12.865,-16.511 12.865,-16.511 0,0 1.501,-1.501 0.75,-3.002 -0.75,-1.501 -3.966,-0.643 -3.966,-0.643 0,0 -2.252,-2.037 -4.825,-1.072 -2.573,0.965 -3.645,1.715 -3.645,1.715 0,0 -2.788,-2.251 -5.789,0 -3.002,2.252 -13.012,14.796 -13.012,14.796 l 3.577,14.044 z"
             style="fill:#c17560;fill-opacity:1;fill-rule:nonzero;stroke:none"
             id="path849" /></g><g
           id="g851"
           transform="translate(286.3897,280.8512)"><path
             d="m 0,0 10.42,-8.297 -7.651,-13.615 -15.259,5.54 c 0,0 0.438,16.08 12.49,16.372"
             style="fill:#c17560;fill-opacity:1;fill-rule:nonzero;stroke:none"
             id="path853" /></g><g
           id="g855"
           transform="translate(448.917,299.3879)"><path
             d="M 0,0 C 0,0 -0.329,3.731 -2.414,2.963 -4.5,2.195 -5.378,-2.195 -5.378,-2.195 Z"
             style="fill:#c17560;fill-opacity:1;fill-rule:nonzero;stroke:none"
             id="path857" /></g><g
           id="g859"
           transform="translate(441.4542,295.708)"><path
             d="m 0,0 c 0,0 3.622,4.061 8.67,3.731 5.048,-0.329 1.866,-4.609 1.866,-4.609 0,0 3.735,-2.305 0.99,-5.597 l -0.442,-0.878 c 0,0 3.183,-1.207 -0.109,-4.61 0,0 1.207,-2.195 -0.439,-3.841 -1.647,-1.646 -5.762,0.549 -5.762,0.549 0,0 -3.786,-0.878 -4.116,0.659 -0.329,1.536 0.549,2.633 0.878,2.853 0.33,0.219 2.305,0.988 2.305,0.988 0,0 -4.39,-0.549 -4.5,0.548 -0.109,1.098 -0.548,2.305 2.744,3.403 l 1.756,0.47 c 0,0 -4.552,-0.141 -4.581,0.956 -0.028,1.098 -0.248,1.537 1.398,2.305 1.647,0.768 2.964,1.646 2.964,1.646 0,0 -4.281,-0.878 -3.622,1.427"
             style="fill:#c17560;fill-opacity:1;fill-rule:nonzero;stroke:none"
             id="path861" /></g><g
           id="g863"
           transform="translate(440.6473,291.4235)"><path
             d="M 0,0 C 0.085,-0.125 2.138,1.876 5.43,2.78 8.709,3.734 11.505,3.104 11.512,3.254 11.524,3.303 10.853,3.53 9.719,3.639 8.589,3.751 6.989,3.687 5.307,3.214 3.627,2.736 2.231,1.953 1.326,1.267 0.417,0.58 -0.035,0.035 0,0"
             style="fill:#7c4236;fill-opacity:1;fill-rule:nonzero;stroke:none"
             id="path865" /></g><g
           id="g867"
           transform="translate(441.1538,285.1465)"><path
             d="m 0,0 c 0.026,0.031 -0.107,0.139 -0.211,0.392 -0.106,0.249 -0.143,0.664 0.01,1.141 0.152,0.471 0.446,1.015 0.993,1.377 0.538,0.388 1.24,0.654 2.007,0.837 3.115,0.72 5.752,0.551 5.753,0.692 C 8.556,4.496 7.904,4.611 6.837,4.63 5.771,4.647 4.292,4.555 2.693,4.186 1.894,3.995 1.132,3.698 0.545,3.245 -0.073,2.803 -0.387,2.149 -0.51,1.614 -0.641,1.068 -0.546,0.578 -0.368,0.311 -0.189,0.04 -0.009,-0.019 0,0"
             style="fill:#7c4236;fill-opacity:1;fill-rule:nonzero;stroke:none"
             id="path869" /></g><g
           id="g871"
           transform="translate(443.0012,280.3225)"><path
             d="M 0,0 C 0.012,0.035 -0.158,0.098 -0.382,0.308 -0.6,0.514 -0.874,0.891 -0.927,1.424 -0.981,1.952 -0.845,2.628 -0.284,3.055 0.256,3.486 1.078,3.783 1.87,4.053 3.511,4.511 5.121,4.303 6.267,4.285 7.423,4.237 8.144,4.322 8.139,4.384 8.136,4.447 7.43,4.475 6.288,4.603 5.158,4.698 3.522,4.976 1.743,4.487 0.884,4.189 0.096,3.907 -0.553,3.373 -0.869,3.108 -1.097,2.748 -1.197,2.388 -1.291,2.026 -1.295,1.687 -1.243,1.378 -1.135,0.757 -0.768,0.354 -0.491,0.17 -0.204,-0.02 -0.005,-0.024 0,0"
             style="fill:#7c4236;fill-opacity:1;fill-rule:nonzero;stroke:none"
             id="path873" /></g><g
           id="g875"
           transform="translate(441.3883,295.5321)"><path
             d="m 0,0 c 0.034,-0.003 0.096,0.138 0.322,0.344 0.217,0.208 0.557,0.49 0.999,0.811 0.885,0.623 2.167,1.488 3.719,2 1.597,0.506 3.084,0.789 4.146,0.602 1.062,-0.164 1.649,-0.558 1.688,-0.483 0.028,0.027 -0.506,0.534 -1.63,0.797 C 8.117,4.357 6.515,4.098 4.909,3.587 1.628,2.41 -0.273,0.148 0,0"
             style="fill:#7c4236;fill-opacity:1;fill-rule:nonzero;stroke:none"
             id="path877" /></g></g></g></g></svg>
