<?xml version="1.0" encoding="UTF-8" standalone="no"?>
<!-- Created with Inkscape (http://www.inkscape.org/) -->

<svg
   version="1.1"
   id="svg9"
   xml:space="preserve"
   width="1000"
   height="666.66669"
   viewBox="0 0 1000 666.66669"
   sodipodi:docname="Goals.svg"
   inkscape:version="1.1.2 (b8e25be833, 2022-02-05)"
   xmlns:inkscape="http://www.inkscape.org/namespaces/inkscape"
   xmlns:sodipodi="http://sodipodi.sourceforge.net/DTD/sodipodi-0.dtd"
   xmlns="http://www.w3.org/2000/svg"
   xmlns:svg="http://www.w3.org/2000/svg"><defs
     id="defs13"><clipPath
       clipPathUnits="userSpaceOnUse"
       id="clipPath23"><path
         d="M 0,500 H 750 V 0 H 0 Z"
         id="path21" /></clipPath><clipPath
       clipPathUnits="userSpaceOnUse"
       id="clipPath119"><path
         d="M 0,500 H 750 V 0 H 0 Z"
         id="path117" /></clipPath><clipPath
       clipPathUnits="userSpaceOnUse"
       id="clipPath139"><path
         d="M 0,500 H 750 V 0 H 0 Z"
         id="path137" /></clipPath><clipPath
       clipPathUnits="userSpaceOnUse"
       id="clipPath151"><path
         d="M 0,500 H 750 V 0 H 0 Z"
         id="path149" /></clipPath><clipPath
       clipPathUnits="userSpaceOnUse"
       id="clipPath221"><path
         d="M 0,500 H 750 V 0 H 0 Z"
         id="path219" /></clipPath><clipPath
       clipPathUnits="userSpaceOnUse"
       id="clipPath277"><path
         d="M 0,500 H 750 V 0 H 0 Z"
         id="path275" /></clipPath><clipPath
       clipPathUnits="userSpaceOnUse"
       id="clipPath321"><path
         d="M 0,500 H 750 V 0 H 0 Z"
         id="path319" /></clipPath><clipPath
       clipPathUnits="userSpaceOnUse"
       id="clipPath385"><path
         d="M 0,500 H 750 V 0 H 0 Z"
         id="path383" /></clipPath><clipPath
       clipPathUnits="userSpaceOnUse"
       id="clipPath397"><path
         d="M 175.766,431.083 H 315.194 V 291.655 H 175.766 Z"
         id="path395" /></clipPath><clipPath
       clipPathUnits="userSpaceOnUse"
       id="clipPath437"><path
         d="m 243.603,414.624 h 57.231 v -49.969 h -57.231 z"
         id="path435" /></clipPath><clipPath
       clipPathUnits="userSpaceOnUse"
       id="clipPath457"><path
         d="M 0,500 H 750 V 0 H 0 Z"
         id="path455" /></clipPath><clipPath
       clipPathUnits="userSpaceOnUse"
       id="clipPath537"><path
         d="m 479.319,64.7933 h 4.057 v -4.0099 h -4.057 z"
         id="path535" /></clipPath><clipPath
       clipPathUnits="userSpaceOnUse"
       id="clipPath585"><path
         d="m 416.607,65.4688 h 3.75 v -3.6955 h -3.75 z"
         id="path583" /></clipPath><clipPath
       clipPathUnits="userSpaceOnUse"
       id="clipPath669"><path
         d="m 388.819,181 h 13.785 v -21.125 h -13.785 z"
         id="path667" /></clipPath><clipPath
       clipPathUnits="userSpaceOnUse"
       id="clipPath713"><path
         d="m 418.447,152.418 h 76.149 v -46.09 h -76.149 z"
         id="path711" /></clipPath></defs><sodipodi:namedview
     id="namedview11"
     pagecolor="#ffffff"
     bordercolor="#666666"
     borderopacity="1.0"
     inkscape:pageshadow="2"
     inkscape:pageopacity="0.0"
     inkscape:pagecheckerboard="0"
     showgrid="false"
     inkscape:zoom="0.74399998"
     inkscape:cx="499.32797"
     inkscape:cy="333.33334"
     inkscape:window-width="1366"
     inkscape:window-height="705"
     inkscape:window-x="-8"
     inkscape:window-y="-8"
     inkscape:window-maximized="1"
     inkscape:current-layer="g15" /><g
     id="g15"
     inkscape:groupmode="layer"
     inkscape:label="5995727"
     transform="matrix(1.3333333,0,0,-1.3333333,0,666.66667)"><g
       id="g17"><g
         id="g19"
         clip-path="url(#clipPath23)"><g
           id="g25"
           transform="translate(726.7997,183.8452)"><path
             d="m 0,0 c 0,0 -5.787,3.427 -11.952,-10.314 -6.166,-13.74 -8.37,-21.597 -8.37,-21.597 0,0 -1.666,-2.898 -3.686,-1.158 -2.02,1.74 -4.92,6.816 -8.152,5.715 -3.352,-1.14 -4.283,-4.991 -3.358,-10.535 0.924,-5.543 2.505,-17.764 2.644,-18.87 0.136,-1.085 -0.408,-2.721 -1.974,-1.756 -1.566,0.964 -10.759,10.234 -14.896,5.609 -4.137,-4.626 0.977,-19.647 1.505,-21.3 0.527,-1.652 0.235,-2.384 -0.54,-2.838 -0.775,-0.454 -3.571,2.953 -6.294,5.482 -2.722,2.53 -6.323,4.985 -8.486,2.117 -2.163,-2.869 -2.332,-14.338 9.469,-32.369 l 6.016,-7.997 9.995,1.053 c 21.254,3.558 29.568,11.461 30.208,14.996 0.641,3.536 -3.605,4.516 -7.311,4.801 -3.705,0.285 -8.105,0.029 -8.297,0.906 -0.192,0.878 0.147,1.589 1.72,2.322 1.572,0.733 16.079,7.164 16.671,13.341 0.593,6.177 -12.454,6.645 -14.224,7.141 -1.771,0.496 -0.938,2.006 -0.048,2.642 0.906,0.648 10.958,7.775 15.659,10.856 4.701,3.081 6.899,6.377 5.463,9.613 -1.383,3.122 -7.08,1.81 -9.728,2.114 -2.649,0.304 -1.649,3.494 -1.649,3.494 0,0 4.278,6.949 10.193,20.799 5.915,13.85 -0.7,15.794 -0.7,15.794"
             style="fill:#ececec;fill-opacity:1;fill-rule:nonzero;stroke:none"
             id="path27" /></g><g
           id="g29"
           transform="translate(677.2162,72.1558)"><path
             d="m 0,0 c 4.384,10.155 12.479,28.072 19.349,43.491 6.868,15.414 13.073,29.375 17.508,39.506 2.208,5.06 3.997,9.158 5.24,12.004 0.615,1.408 1.095,2.505 1.427,3.263 0.162,0.363 0.288,0.644 0.378,0.846 0.087,0.189 0.139,0.283 0.139,0.283 0,0 -0.032,-0.102 -0.11,-0.296 -0.083,-0.205 -0.199,-0.49 -0.35,-0.858 C 43.262,97.476 42.8,96.371 42.208,94.953 41.012,92.101 39.252,87.986 37.058,82.91 32.674,72.755 26.501,58.778 19.633,43.365 12.763,27.945 4.637,10.044 0.202,-0.088"
             style="fill:#e1e1e1;fill-opacity:1;fill-rule:nonzero;stroke:none"
             id="path31" /></g><g
           id="g33"
           transform="translate(698.4108,149.2278)"><path
             d="m 0,0 c 0.02,0.007 0.121,-0.23 0.286,-0.665 0.167,-0.435 0.389,-1.07 0.656,-1.857 0.532,-1.576 1.211,-3.77 1.917,-6.205 0.687,-2.405 1.309,-4.578 1.784,-6.241 0.219,-0.748 0.404,-1.38 0.552,-1.887 0.133,-0.445 0.196,-0.695 0.176,-0.702 -0.02,-0.007 -0.122,0.229 -0.291,0.663 -0.165,0.435 -0.388,1.071 -0.647,1.861 -0.516,1.581 -1.167,3.784 -1.872,6.219 C 1.857,-6.416 1.22,-4.248 0.733,-2.589 0.51,-1.841 0.322,-1.211 0.171,-0.704 0.042,-0.257 -0.02,-0.007 0,0"
             style="fill:#e1e1e1;fill-opacity:1;fill-rule:nonzero;stroke:none"
             id="path35" /></g><g
           id="g37"
           transform="translate(704.7087,131.5386)"><path
             d="M 0,0 C -0.028,0.081 4.435,1.681 9.967,3.572 15.501,5.464 20.008,6.932 20.036,6.851 20.063,6.77 15.601,5.17 10.068,3.278 4.536,1.387 0.028,-0.081 0,0"
             style="fill:#e1e1e1;fill-opacity:1;fill-rule:nonzero;stroke:none"
             id="path39" /></g><g
           id="g41"
           transform="translate(693.0927,108.34)"><path
             d="m 0,0 c 0,0.022 0.262,0.045 0.736,0.07 0.537,0.025 1.209,0.056 2.006,0.093 1.693,0.081 4.031,0.201 6.606,0.43 2.576,0.222 4.9,0.504 6.581,0.722 0.791,0.102 1.458,0.188 1.991,0.257 0.471,0.058 0.733,0.08 0.737,0.059 C 18.661,1.61 18.405,1.547 17.94,1.452 17.474,1.358 16.799,1.233 15.96,1.098 14.285,0.824 11.958,0.506 9.375,0.283 6.793,0.054 4.446,-0.032 2.748,-0.057 1.899,-0.065 1.212,-0.065 0.738,-0.05 0.263,-0.038 0,-0.021 0,0"
             style="fill:#e1e1e1;fill-opacity:1;fill-rule:nonzero;stroke:none"
             id="path43" /></g><g
           id="g45"
           transform="translate(683.8747,123.086)"><path
             d="m 0,0 c 0.018,0.012 0.166,-0.181 0.419,-0.54 0.284,-0.417 0.633,-0.93 1.045,-1.534 0.872,-1.303 2.058,-3.115 3.351,-5.126 1.294,-2.012 2.451,-3.843 3.275,-5.177 0.379,-0.625 0.7,-1.156 0.962,-1.587 0.221,-0.379 0.335,-0.594 0.317,-0.606 -0.018,-0.011 -0.166,0.181 -0.419,0.54 -0.284,0.417 -0.633,0.93 -1.045,1.535 -0.872,1.303 -2.057,3.114 -3.351,5.127 C 3.26,-5.357 2.104,-3.527 1.28,-2.193 0.9,-1.567 0.579,-1.037 0.317,-0.605 0.096,-0.226 -0.018,-0.011 0,0"
             style="fill:#e1e1e1;fill-opacity:1;fill-rule:nonzero;stroke:none"
             id="path47" /></g><g
           id="g49"
           transform="translate(671.018,103.9088)"><path
             d="m 0,0 c 0.018,0.012 0.206,-0.237 0.529,-0.696 0.351,-0.511 0.804,-1.17 1.348,-1.962 1.126,-1.663 2.663,-3.974 4.346,-6.536 1.683,-2.562 3.192,-4.892 4.271,-6.586 0.51,-0.814 0.935,-1.491 1.264,-2.016 0.293,-0.48 0.446,-0.751 0.428,-0.763 -0.018,-0.011 -0.205,0.237 -0.529,0.696 -0.351,0.511 -0.804,1.171 -1.347,1.962 -1.126,1.664 -2.664,3.974 -4.347,6.537 -1.682,2.562 -3.191,4.891 -4.27,6.586 -0.51,0.813 -0.935,1.49 -1.265,2.016 C 0.135,-0.283 -0.018,-0.012 0,0"
             style="fill:#e1e1e1;fill-opacity:1;fill-rule:nonzero;stroke:none"
             id="path51" /></g><g
           id="g53"
           transform="translate(683.038,85.876)"><path
             d="m 0,0 c -0.001,0.021 0.33,0.061 0.93,0.113 0.655,0.054 1.509,0.124 2.539,0.209 2.143,0.179 5.103,0.437 8.362,0.814 3.26,0.373 6.202,0.788 8.33,1.103 1.022,0.151 1.87,0.276 2.52,0.372 0.596,0.085 0.927,0.122 0.931,0.101 0.004,-0.021 -0.32,-0.098 -0.91,-0.22 C 22.112,2.369 21.257,2.206 20.196,2.022 18.075,1.651 15.132,1.201 11.866,0.828 8.602,0.449 5.634,0.225 3.484,0.103 2.409,0.044 1.539,0.005 0.936,-0.008 0.334,-0.023 0.001,-0.021 0,0"
             style="fill:#e1e1e1;fill-opacity:1;fill-rule:nonzero;stroke:none"
             id="path55" /></g><g
           id="g57"
           transform="translate(144.079,355.656)"><path
             d="m 0,0 c 0,0 -6.268,-2.437 0.736,-15.77 7.004,-13.332 11.825,-19.916 11.825,-19.916 0,0 1.251,-3.1 -1.364,-3.615 -2.616,-0.515 -8.399,0.336 -9.529,-2.885 -1.171,-3.342 1.283,-6.451 6.215,-9.146 4.933,-2.695 15.523,-8.995 16.478,-9.568 0.938,-0.563 1.89,-2.001 0.164,-2.637 -1.726,-0.637 -14.693,-2.147 -13.608,-8.257 1.085,-6.11 16.06,-11.359 17.686,-11.964 1.626,-0.605 2.021,-1.286 1.9,-2.177 -0.121,-0.89 -4.528,-0.986 -8.198,-1.567 -3.671,-0.581 -7.825,-1.897 -6.904,-5.37 0.922,-3.473 9.841,-10.686 31.311,-12.531 l 10.005,-0.204 5.342,8.514 c 10.321,18.918 9.235,30.337 6.848,33.023 -2.386,2.686 -5.778,-0.049 -8.289,-2.788 -2.512,-2.739 -5.026,-6.359 -5.835,-5.969 -0.809,0.391 -1.159,1.097 -0.765,2.786 0.394,1.69 4.289,17.072 -0.205,21.352 -4.494,4.279 -12.915,-5.697 -14.399,-6.783 -1.484,-1.087 -2.157,0.5 -2.108,1.593 0.05,1.113 0.647,13.421 1.126,19.021 0.478,5.6 -0.759,9.363 -4.191,10.232 -3.31,0.838 -5.794,-4.453 -7.668,-6.349 -1.875,-1.896 -3.767,0.859 -3.767,0.859 0,0 -2.826,7.656 -10.072,20.859 -7.245,13.203 -12.857,9.199 -12.857,9.199"
             style="fill:#ececec;fill-opacity:1;fill-rule:nonzero;stroke:none"
             id="path59" /></g><g
           id="g61"
           transform="translate(201.3422,247.7024)"><path
             d="m 0,0 c -5.283,9.717 -14.382,27.146 -22.272,42.069 -7.888,14.918 -15.041,28.418 -20.274,38.161 -2.617,4.86 -4.737,8.797 -6.209,11.532 -0.728,1.353 -1.295,2.408 -1.687,3.137 -0.185,0.352 -0.328,0.624 -0.431,0.82 -0.096,0.185 -0.138,0.284 -0.138,0.284 0,0 0.061,-0.089 0.166,-0.269 0.109,-0.192 0.262,-0.46 0.458,-0.805 0.404,-0.722 0.988,-1.768 1.738,-3.109 1.506,-2.702 3.657,-6.626 6.296,-11.486 5.283,-9.717 12.468,-23.202 20.355,-38.12 C -14.107,27.291 -5.04,9.848 0.193,0.104"
             style="fill:#e1e1e1;fill-opacity:1;fill-rule:nonzero;stroke:none"
             id="path63" /></g><g
           id="g65"
           transform="translate(153.7897,311.9525)"><path
             d="M 0,0 C 0.007,0.02 0.256,-0.047 0.7,-0.186 1.145,-0.323 1.781,-0.54 2.566,-0.816 4.134,-1.37 6.28,-2.19 8.631,-3.138 c 2.316,-0.943 4.409,-1.796 6.011,-2.449 0.724,-0.29 1.335,-0.534 1.826,-0.73 0.431,-0.171 0.667,-0.275 0.66,-0.295 -0.007,-0.02 -0.256,0.045 -0.701,0.181 -0.444,0.138 -1.082,0.355 -1.864,0.639 -1.562,0.57 -3.697,1.418 -6.048,2.366 C 6.194,-2.5 4.095,-1.662 2.489,-1.021 1.763,-0.735 1.151,-0.494 0.659,-0.3 0.228,-0.126 -0.007,-0.02 0,0"
             style="fill:#e1e1e1;fill-opacity:1;fill-rule:nonzero;stroke:none"
             id="path67" /></g><g
           id="g69"
           transform="translate(171.5941,305.988)"><path
             d="M 0,0 C -0.081,0.028 1.415,4.527 3.342,10.046 5.269,15.568 6.897,20.02 6.978,19.992 7.059,19.963 5.563,15.466 3.635,9.944 1.709,4.424 0.081,-0.028 0,0"
             style="fill:#e1e1e1;fill-opacity:1;fill-rule:nonzero;stroke:none"
             id="path71" /></g><g
           id="g73"
           transform="translate(182.675,282.529)"><path
             d="m 0,0 c -0.017,0.013 0.126,0.234 0.399,0.622 0.312,0.439 0.702,0.986 1.165,1.636 0.982,1.382 2.33,3.296 3.74,5.462 1.415,2.164 2.627,4.167 3.494,5.624 0.408,0.685 0.752,1.263 1.027,1.725 0.245,0.406 0.39,0.626 0.409,0.616 0.019,-0.01 -0.09,-0.25 -0.303,-0.675 C 9.718,14.586 9.399,13.977 8.988,13.234 8.17,11.747 6.983,9.72 5.564,7.55 4.15,5.378 2.77,3.478 1.741,2.127 1.224,1.454 0.799,0.914 0.495,0.549 0.192,0.183 0.017,-0.013 0,0"
             style="fill:#e1e1e1;fill-opacity:1;fill-rule:nonzero;stroke:none"
             id="path75" /></g><g
           id="g77"
           transform="translate(165.3835,284.3794)"><path
             d="m 0,0 c 0.002,0.021 0.245,0.019 0.683,-0.004 0.504,-0.034 1.123,-0.075 1.853,-0.124 1.563,-0.119 3.72,-0.304 6.101,-0.528 2.382,-0.225 4.536,-0.445 6.094,-0.619 0.726,-0.088 1.342,-0.163 1.843,-0.224 0.435,-0.059 0.674,-0.102 0.672,-0.124 -0.002,-0.021 -0.245,-0.019 -0.683,0.004 -0.504,0.034 -1.123,0.076 -1.853,0.125 -1.563,0.118 -3.72,0.304 -6.102,0.528 C 6.227,-0.742 4.073,-0.522 2.515,-0.347 1.789,-0.259 1.173,-0.185 0.672,-0.124 0.237,-0.064 -0.002,-0.021 0,0"
             style="fill:#e1e1e1;fill-opacity:1;fill-rule:nonzero;stroke:none"
             id="path79" /></g><g
           id="g81"
           transform="translate(172.5348,262.4267)"><path
             d="m 0,0 c 0.002,0.021 0.313,0.016 0.874,-0.013 0.619,-0.039 1.417,-0.09 2.375,-0.151 2.004,-0.141 4.771,-0.357 7.825,-0.615 3.055,-0.258 5.819,-0.509 7.819,-0.706 0.954,-0.101 1.75,-0.185 2.366,-0.25 0.558,-0.066 0.866,-0.112 0.864,-0.133 -0.002,-0.022 -0.313,-0.016 -0.874,0.013 -0.619,0.039 -1.417,0.09 -2.375,0.151 -2.004,0.141 -4.771,0.357 -7.826,0.615 -3.054,0.258 -5.818,0.509 -7.817,0.706 -0.955,0.1 -1.75,0.184 -2.367,0.249 C 0.306,-0.068 -0.002,-0.021 0,0"
             style="fill:#e1e1e1;fill-opacity:1;fill-rule:nonzero;stroke:none"
             id="path83" /></g><g
           id="g85"
           transform="translate(194.1416,260.7519)"><path
             d="m 0,0 c -0.018,0.012 0.156,0.297 0.485,0.801 0.362,0.549 0.834,1.264 1.403,2.127 1.183,1.796 2.806,4.284 4.521,7.081 1.719,2.795 3.209,5.366 4.274,7.235 0.513,0.897 0.938,1.641 1.264,2.212 0.3,0.521 0.476,0.805 0.495,0.795 0.018,-0.01 -0.121,-0.313 -0.389,-0.852 -0.267,-0.54 -0.667,-1.314 -1.178,-2.262 C 9.858,15.24 8.396,12.647 6.674,9.846 4.956,7.045 3.3,4.572 2.07,2.805 1.452,1.923 0.946,1.214 0.584,0.732 0.225,0.249 0.017,-0.012 0,0"
             style="fill:#e1e1e1;fill-opacity:1;fill-rule:nonzero;stroke:none"
             id="path87" /></g><g
           id="g89"
           transform="translate(94.4429,262.5345)"><path
             d="m 0,0 c -5.444,-6.974 -4.203,-17.041 2.771,-22.484 6.975,-5.444 17.041,-4.202 22.484,2.772 5.443,6.974 4.203,17.04 -2.771,22.484 C 15.51,8.215 5.444,6.974 0,0 m -10.001,18.945 c 2.628,1.992 5.481,3.594 8.472,4.795 l 0.901,8.981 14.821,1.826 3.056,-8.492 c 3.193,-0.438 6.349,-1.299 9.383,-2.594 l 6.986,5.71 11.771,-9.189 -3.842,-8.161 C 43.54,9.192 45.141,6.338 46.341,3.347 l 8.981,-0.901 1.826,-14.821 -8.492,-3.056 c -0.439,-3.192 -1.299,-6.348 -2.594,-9.382 l 5.709,-6.987 -9.187,-11.771 -8.162,3.843 c -2.629,-1.993 -5.483,-3.594 -8.473,-4.795 l -0.902,-8.981 -14.82,-1.826 -3.057,8.493 c -3.192,0.438 -6.348,1.299 -9.382,2.594 l -6.986,-5.711 -11.771,9.189 3.842,8.161 c -1.993,2.63 -3.595,5.482 -4.795,8.473 l -8.981,0.902 -1.826,14.821 8.493,3.057 c 0.438,3.192 1.3,6.348 2.594,9.382 l -5.71,6.985 9.187,11.772 z"
             style="fill:#ececec;fill-opacity:1;fill-rule:nonzero;stroke:none"
             id="path91" /></g><g
           id="g93"
           transform="translate(517.3433,435.5541)"><path
             d="m 0,0 c -4.448,-4.607 -4.319,-11.947 0.288,-16.395 4.607,-4.448 11.947,-4.319 16.395,0.288 C 21.13,-11.5 21.002,-4.159 16.395,0.288 11.788,4.736 4.448,4.607 0,0 m -5.761,14.396 c 2.043,1.235 4.219,2.171 6.462,2.809 l 1.331,6.396 10.807,0.189 1.555,-6.344 c 2.265,-0.558 4.472,-1.418 6.558,-2.58 l 5.461,3.58 7.776,-7.508 -3.385,-5.583 c 1.235,-2.044 2.171,-4.22 2.808,-6.463 l 6.396,-1.331 0.189,-10.807 -6.345,-1.556 c -0.558,-2.264 -1.417,-4.47 -2.579,-6.556 l 3.579,-5.462 -7.506,-7.776 -5.584,3.385 c -2.044,-1.235 -4.219,-2.17 -6.463,-2.807 l -1.332,-6.397 -10.806,-0.19 -1.556,6.346 c -2.264,0.558 -4.471,1.417 -6.556,2.58 l -5.462,-3.581 -7.776,7.508 3.386,5.583 c -1.235,2.044 -2.172,4.219 -2.809,6.463 l -6.396,1.331 -0.19,10.807 6.346,1.556 c 0.558,2.264 1.418,4.471 2.579,6.556 l -3.579,5.462 7.506,7.776 z"
             style="fill:#f5f5f5;fill-opacity:1;fill-rule:nonzero;stroke:none"
             id="path95" /></g><g
           id="g97"
           transform="translate(648.7105,344.8548)"><path
             d="m 0,0 c -2.805,-2.905 -2.723,-7.533 0.182,-10.338 2.905,-2.804 7.533,-2.723 10.337,0.182 2.805,2.905 2.724,7.533 -0.181,10.338 C 7.433,2.986 2.805,2.905 0,0 m -3.633,9.078 c 1.289,0.778 2.66,1.369 4.075,1.771 L 1.281,14.882 8.096,15.001 9.076,11 c 1.429,-0.352 2.82,-0.893 4.135,-1.626 l 3.444,2.257 4.903,-4.734 -2.135,-3.52 c 0.779,-1.289 1.37,-2.661 1.771,-4.076 l 4.033,-0.839 0.12,-6.814 -4.001,-0.981 c -0.352,-1.428 -0.894,-2.819 -1.627,-4.134 l 2.257,-3.445 -4.733,-4.903 -3.521,2.135 c -1.289,-0.779 -2.66,-1.369 -4.075,-1.771 l -0.84,-4.033 -6.814,-0.119 -0.981,4.001 c -1.428,0.352 -2.819,0.894 -4.134,1.626 l -3.444,-2.257 -4.903,4.734 2.135,3.52 c -0.779,1.289 -1.37,2.661 -1.771,4.076 l -4.033,0.839 -0.12,6.814 4.001,0.981 c 0.352,1.428 0.894,2.819 1.627,4.134 l -2.257,3.445 4.733,4.903 z"
             style="fill:#f5f5f5;fill-opacity:1;fill-rule:nonzero;stroke:none"
             id="path99" /></g><g
           id="g101"
           transform="translate(81.2408,367.0776)"><path
             d="m 0,0 c -5.455,-5.65 -5.296,-14.651 0.353,-20.105 5.65,-5.454 14.651,-5.296 20.105,0.354 5.453,5.649 5.296,14.65 -0.354,20.105 C 14.455,5.807 5.454,5.649 0,0 m -7.064,17.654 c 2.505,1.514 5.173,2.662 7.924,3.444 l 1.632,7.843 13.252,0.233 1.907,-7.781 c 2.777,-0.684 5.484,-1.738 8.041,-3.163 l 6.698,4.39 9.535,-9.207 -4.151,-6.846 c 1.514,-2.507 2.662,-5.175 3.443,-7.926 l 7.843,-1.632 0.233,-13.252 -7.781,-1.908 c -0.684,-2.776 -1.738,-5.482 -3.163,-8.04 l 4.389,-6.698 -9.205,-9.535 -6.847,4.151 c -2.506,-1.514 -5.174,-2.662 -7.926,-3.443 l -1.632,-7.844 -13.252,-0.232 -1.907,7.781 c -2.777,0.684 -5.483,1.738 -8.041,3.163 l -6.697,-4.39 -9.536,9.207 4.152,6.846 c -1.514,2.506 -2.663,5.174 -3.444,7.926 l -7.843,1.632 -0.233,13.252 7.781,1.908 c 0.685,2.776 1.739,5.482 3.164,8.039 l -4.39,6.698 9.205,9.536 z"
             style="fill:#f5f5f5;fill-opacity:1;fill-rule:nonzero;stroke:none"
             id="path103" /></g><g
           id="g105"
           transform="translate(655.7713,278.9119)"><path
             d="m 0,0 c -4.448,-4.607 -4.319,-11.947 0.288,-16.395 4.607,-4.448 11.947,-4.319 16.395,0.288 C 21.13,-11.5 21.002,-4.159 16.395,0.288 11.788,4.736 4.448,4.607 0,0 m -5.761,14.396 c 2.043,1.235 4.218,2.171 6.462,2.809 l 1.331,6.396 10.807,0.189 1.555,-6.344 c 2.265,-0.558 4.472,-1.418 6.557,-2.58 l 5.462,3.58 7.776,-7.508 -3.385,-5.583 c 1.235,-2.044 2.171,-4.22 2.808,-6.463 l 6.396,-1.331 0.189,-10.807 -6.345,-1.556 c -0.558,-2.264 -1.417,-4.47 -2.579,-6.556 l 3.579,-5.462 -7.507,-7.776 -5.583,3.385 c -2.044,-1.235 -4.22,-2.171 -6.463,-2.808 l -1.332,-6.396 -10.806,-0.19 -1.556,6.346 c -2.264,0.558 -4.471,1.418 -6.556,2.58 l -5.462,-3.581 -7.776,7.508 3.385,5.583 c -1.234,2.044 -2.171,4.219 -2.808,6.463 l -6.396,1.331 -0.19,10.807 6.346,1.556 c 0.558,2.264 1.418,4.471 2.579,6.556 l -3.58,5.462 7.507,7.776 z"
             style="fill:#ececec;fill-opacity:1;fill-rule:nonzero;stroke:none"
             id="path107" /></g><g
           id="g109"
           transform="translate(423.7832,398.9085)"><path
             d="m 0,0 c -6.852,-7.097 -6.653,-18.403 0.444,-25.255 7.096,-6.851 18.403,-6.652 25.254,0.445 6.851,7.096 6.653,18.403 -0.444,25.254 C 18.158,7.295 6.851,7.096 0,0 m -8.874,22.176 c 3.147,1.902 6.498,3.344 9.954,4.326 l 2.05,9.853 16.647,0.291 2.396,-9.773 c 3.488,-0.86 6.888,-2.183 10.1,-3.974 l 8.413,5.515 11.978,-11.565 -5.215,-8.6 c 1.903,-3.149 3.345,-6.5 4.326,-9.956 l 9.852,-2.05 0.292,-16.647 -9.774,-2.396 c -0.859,-3.488 -2.183,-6.887 -3.973,-10.1 l 5.514,-8.414 -11.564,-11.977 -8.601,5.215 c -3.148,-1.903 -6.499,-3.344 -9.955,-4.326 l -2.051,-9.852 -16.646,-0.293 -2.396,9.775 c -3.488,0.86 -6.887,2.184 -10.1,3.974 l -8.413,-5.515 -11.978,11.564 5.215,8.601 c -1.902,3.148 -3.345,6.499 -4.326,9.955 l -9.852,2.051 -0.292,16.646 9.774,2.397 c 0.859,3.487 2.184,6.887 3.973,10.099 l -5.514,8.413 11.563,11.978 z"
             style="fill:#ececec;fill-opacity:1;fill-rule:nonzero;stroke:none"
             id="path111" /></g></g></g><g
       id="g113"><g
         id="g115"
         clip-path="url(#clipPath119)"><g
           id="g121"
           transform="translate(600.1267,461.0917)"><path
             d="m 0,0 -1.551,-1.099 c -13.07,-9.266 -20.236,-24.844 -18.109,-40.577 0.274,-2.022 0.693,-4.026 1.263,-5.991 4.101,-14.149 15.86,-25.877 30.146,-30.066 8.402,-2.464 17.886,-2.643 24.796,-7.963 8.992,-6.924 10.169,-19.685 10.621,-30.946 0.452,-11.261 1.663,-24.028 10.686,-30.913 5.651,-4.312 13.317,-5.264 20.409,-4.377 18.777,2.346 34.693,16.683 41.878,33.984 7.185,17.301 6.532,37.021 1.542,55.038 -6.99,25.24 -22.905,48.582 -45.846,61.658 C 52.893,11.823 22.797,13.399 0,0"
             style="fill:#f5f5f5;fill-opacity:1;fill-rule:nonzero;stroke:none"
             id="path123" /></g><g
           id="g125"
           transform="translate(146.1975,452.5197)"><path
             d="m 0,0 1.551,-1.099 c 13.07,-9.266 20.236,-24.844 18.109,-40.577 -0.274,-2.022 -0.693,-4.025 -1.263,-5.991 -4.101,-14.15 -15.86,-25.877 -30.146,-30.066 -8.402,-2.464 -17.886,-2.643 -24.796,-7.963 -8.992,-6.924 -10.17,-19.685 -10.621,-30.946 -0.452,-11.261 -1.663,-24.028 -10.686,-30.913 -5.651,-4.312 -13.317,-5.264 -20.41,-4.377 -18.777,2.346 -34.692,16.683 -41.877,33.984 -7.185,17.301 -6.532,37.021 -1.542,55.038 6.99,25.24 22.905,48.582 45.846,61.658 C -52.893,11.823 -22.797,13.399 0,0"
             style="fill:#f5f5f5;fill-opacity:1;fill-rule:nonzero;stroke:none"
             id="path127" /></g><g
           id="g129"
           transform="translate(427.5496,431.0828)"><path
             d="m 0,0 c 0,-13.189 -10.691,-23.88 -23.88,-23.88 -13.189,0 -23.88,10.691 -23.88,23.88 0,13.189 10.691,23.88 23.88,23.88 C -10.691,23.88 0,13.189 0,0"
             style="fill:#f5f5f5;fill-opacity:1;fill-rule:nonzero;stroke:none"
             id="path131" /></g></g></g><g
       id="g133"><g
         id="g135"
         clip-path="url(#clipPath139)"><g
           id="g141"
           transform="translate(729.5275,72.0013)"><path
             d="m 0,0 c 0,-0.144 -158.798,-0.26 -354.639,-0.26 -195.909,0 -354.673,0.116 -354.673,0.26 0,0.144 158.764,0.26 354.673,0.26 C -158.798,0.26 0,0.144 0,0"
             style="fill:#1a2e35;fill-opacity:1;fill-rule:nonzero;stroke:none"
             id="path143" /></g></g></g><g
       id="g145"><g
         id="g147"
         clip-path="url(#clipPath151)"><g
           id="g153"
           transform="translate(566.4419,379.8406)"><path
             d="m 0,0 h -348.167 c -6.002,0 -10.867,-4.865 -10.867,-10.867 v -245.918 c 0,-6.003 4.865,-10.869 10.867,-10.869 h 133.626 c 0,0 8.5,-26.284 -17.85,-39.884 h 124.947 c 0,0 -29.75,10.199 -22.1,39.884 H 0.001 c 6.002,0 10.868,4.866 10.868,10.868 V -10.868 C 10.869,-4.865 6.003,0 0,0"
             style="fill:#375a64;fill-opacity:1;fill-rule:nonzero;stroke:none"
             id="path155" /></g><g
           id="g157"
           transform="translate(397.0073,138.0498)"><path
             d="m 0,0 c 4.736,-6.769 -2.676,-14.181 -9.447,-9.446 -0.222,0.156 -0.426,0.359 -0.582,0.583 -4.723,6.767 2.681,14.17 9.447,9.445 C -0.359,0.426 -0.156,0.224 0,0"
             style="fill:#1a2e35;fill-opacity:1;fill-rule:nonzero;stroke:none"
             id="path159" /></g><g
           id="g161"
           transform="translate(571.3156,157.1756)"><path
             d="m 0,0 h -357.913 v 208.462 c 0,5.356 4.341,9.698 9.697,9.698 H -9.697 c 5.355,0 9.697,-4.342 9.697,-9.697 z"
             style="fill:#ffffff;fill-opacity:1;fill-rule:nonzero;stroke:none"
             id="path163" /></g><g
           id="g165"
           transform="translate(571.3156,357.2079)"><path
             d="m 0,0 h -357.913 v 8.974 c 0,5.055 4.098,9.154 9.153,9.154 H -7.516 C -3.365,18.128 0,14.763 0,10.612 Z"
             style="fill:#ececec;fill-opacity:1;fill-rule:nonzero;stroke:none"
             id="path167" /></g><g
           id="g169"
           transform="translate(227.3142,365.8913)"><path
             d="m 0,0 c 0,-1.389 -1.126,-2.514 -2.514,-2.514 -1.389,0 -2.514,1.125 -2.514,2.514 0,1.388 1.125,2.514 2.514,2.514 C -1.126,2.514 0,1.388 0,0"
             style="fill:#e1e1e1;fill-opacity:1;fill-rule:nonzero;stroke:none"
             id="path171" /></g><g
           id="g173"
           transform="translate(234.8096,365.8913)"><path
             d="m 0,0 c 0,-1.389 -1.126,-2.514 -2.514,-2.514 -1.389,0 -2.514,1.125 -2.514,2.514 0,1.388 1.125,2.514 2.514,2.514 C -1.126,2.514 0,1.388 0,0"
             style="fill:#e1e1e1;fill-opacity:1;fill-rule:nonzero;stroke:none"
             id="path175" /></g><g
           id="g177"
           transform="translate(241.9372,365.8913)"><path
             d="m 0,0 c 0,-1.389 -1.126,-2.514 -2.514,-2.514 -1.389,0 -2.514,1.125 -2.514,2.514 0,1.388 1.125,2.514 2.514,2.514 C -1.126,2.514 0,1.388 0,0"
             style="fill:#e1e1e1;fill-opacity:1;fill-rule:nonzero;stroke:none"
             id="path179" /></g><g
           id="g181"
           transform="translate(504.1956,112.152)"><path
             d="m 0,0 c 0,-0.116 -49.544,-0.209 -110.646,-0.209 -61.124,0 -110.658,0.093 -110.658,0.209 0,0.115 49.534,0.209 110.658,0.209 C -49.544,0.209 0,0.115 0,0"
             style="fill:#1a2e35;fill-opacity:1;fill-rule:nonzero;stroke:none"
             id="path183" /></g><path
           d="M 570.499,248.186 H 213.523 v 79.688 h 356.976 z"
           style="fill:#f5f5f5;fill-opacity:1;fill-rule:nonzero;stroke:none"
           id="path185" /><path
           d="m 273.802,335.374 h -51.517 v 13.485 h 51.517 z"
           style="fill:#f5f5f5;fill-opacity:1;fill-rule:nonzero;stroke:none"
           id="path187" /><path
           d="m 562.026,335.374 h -28.208 v 13.485 h 28.208 z"
           style="fill:#f5f5f5;fill-opacity:1;fill-rule:nonzero;stroke:none"
           id="path189" /><path
           d="m 525.343,335.374 h -46.161 v 13.485 h 46.161 z"
           style="fill:#f5f5f5;fill-opacity:1;fill-rule:nonzero;stroke:none"
           id="path191" /><path
           d="m 469.584,335.374 h -46.161 v 13.485 h 46.161 z"
           style="fill:#f5f5f5;fill-opacity:1;fill-rule:nonzero;stroke:none"
           id="path193" /><path
           d="M 545.525,211.608 H 230.902 v 14.125 h 314.623 z"
           style="fill:#f5f5f5;fill-opacity:1;fill-rule:nonzero;stroke:none"
           id="path195" /><path
           d="M 545.525,185.322 H 230.902 v 14.125 h 314.623 z"
           style="fill:#f5f5f5;fill-opacity:1;fill-rule:nonzero;stroke:none"
           id="path197" /><g
           id="g199"
           transform="translate(354.7863,279.9513)"><path
             d="M 0,0 8.672,8.672 23.796,-5.112 50.448,21.511 58.501,12.839 22.557,-21.837 Z"
             style="fill:#ff735d;fill-opacity:1;fill-rule:nonzero;stroke:none"
             id="path201" /></g><g
           id="g203"
           transform="translate(367.2553,300.2854)"><path
             d="M 0,0 C -0.11,-0.093 -1.49,1.357 -3.082,3.238 -4.674,5.119 -5.876,6.719 -5.766,6.812 -5.656,6.905 -4.277,5.456 -2.684,3.574 -1.092,1.693 0.11,0.093 0,0"
             style="fill:#1a2e35;fill-opacity:1;fill-rule:nonzero;stroke:none"
             id="path205" /></g><g
           id="g207"
           transform="translate(378.888,301.5533)"><path
             d="m 0,0 c -0.144,-0.007 -0.459,4.331 -0.705,9.687 -0.245,5.358 -0.328,9.705 -0.184,9.712 0.143,0.006 0.459,-4.33 0.704,-9.688 C 0.061,4.355 0.144,0.007 0,0"
             style="fill:#1a2e35;fill-opacity:1;fill-rule:nonzero;stroke:none"
             id="path209" /></g><g
           id="g211"
           transform="translate(396.8601,307.492)"><path
             d="m 0,0 c 0.113,-0.089 -1.145,-1.863 -2.808,-3.962 -1.664,-2.099 -3.104,-3.728 -3.217,-3.639 -0.113,0.089 1.145,1.863 2.809,3.962 C -1.553,-1.54 -0.113,0.089 0,0"
             style="fill:#1a2e35;fill-opacity:1;fill-rule:nonzero;stroke:none"
             id="path213" /></g></g></g><g
       id="g215"><g
         id="g217"
         clip-path="url(#clipPath221)"><g
           id="g223"
           transform="translate(636.1701,72.1301)"><path
             d="m 0,0 h -148.273 c -4.013,0 -7.266,3.253 -7.266,7.266 v 219.108 c 0,4.012 3.253,7.265 7.266,7.265 H 0 c 4.013,0 7.266,-3.253 7.266,-7.266 V 7.266 C 7.266,3.253 4.013,0 0,0"
             style="fill:#e1e1e1;fill-opacity:1;fill-rule:nonzero;stroke:none"
             id="path225" /></g><g
           id="g227"
           transform="translate(636.1701,72.1301)"><path
             d="M 0,0 C 0,0 0.17,0.018 0.506,0.039 0.84,0.061 1.344,0.124 1.981,0.308 3.219,0.663 5.169,1.623 6.397,3.94 6.699,4.512 6.918,5.164 7.069,5.868 7.21,6.577 7.206,7.337 7.201,8.141 7.198,9.745 7.193,11.499 7.189,13.399 7.182,17.201 7.174,21.585 7.165,26.521 7.146,46.273 7.117,74.843 7.082,110.146 c -0.009,17.653 -0.02,36.989 -0.032,57.747 -0.004,10.379 -0.008,21.114 -0.013,32.171 -0.002,5.528 -0.004,11.138 -0.006,16.823 0,2.843 -10e-4,5.705 -0.002,8.586 -0.009,0.727 0.027,1.432 -0.113,2.116 -0.13,0.684 -0.329,1.365 -0.664,1.982 -0.635,1.253 -1.665,2.294 -2.899,2.978 -0.625,0.329 -1.294,0.568 -1.987,0.715 -0.697,0.136 -1.399,0.137 -2.142,0.134 -1.468,0 -2.94,-0.001 -4.417,-0.001 -2.953,-0.001 -5.924,-0.001 -8.912,-0.002 -5.976,-0.002 -12.02,-0.003 -18.129,-0.004 -12.217,-0.002 -24.692,-0.004 -37.391,-0.007 -25.398,-10e-4 -51.695,-0.003 -78.629,-0.005 -1.627,-0.005 -3.237,-0.577 -4.487,-1.611 -1.248,-1.036 -2.111,-2.509 -2.412,-4.095 -0.169,-0.786 -0.114,-1.608 -0.126,-2.452 v -2.505 c 0,-1.668 0,-3.334 0,-4.997 0,-6.652 -0.001,-13.259 -0.001,-19.819 -0.001,-13.12 -0.003,-26.047 -0.004,-38.749 -0.005,-25.405 -0.01,-49.909 -0.015,-73.253 -0.008,-23.343 -0.016,-45.525 -0.024,-66.285 -0.001,-2.595 -0.002,-5.168 -0.003,-7.718 -0.001,-1.275 -0.002,-2.544 -0.002,-3.807 -0.04,-1.271 0.08,-2.481 0.573,-3.611 0.96,-2.239 3.118,-3.898 5.498,-4.195 0.587,-0.09 1.189,-0.077 1.805,-0.078 l 1.83,-10e-4 c 1.216,-0.001 2.427,-0.001 3.631,-0.002 9.636,-0.006 18.883,-0.012 27.71,-0.017 35.302,-0.035 63.87,-0.063 83.62,-0.083 C -20.793,0.08 -13.13,0.064 -7.927,0.052 -5.332,0.041 -3.353,0.033 -2.014,0.027 -0.682,0.018 0,0 0,0 0,0 -0.682,-0.018 -2.014,-0.027 -3.353,-0.032 -5.332,-0.041 -7.927,-0.052 -13.13,-0.064 -20.793,-0.08 -30.661,-0.101 c -19.75,-0.02 -48.318,-0.048 -83.62,-0.083 -8.827,-0.006 -18.074,-0.011 -27.71,-0.017 -1.204,-0.001 -2.415,-0.001 -3.631,-0.002 l -1.83,-10e-4 c -0.604,10e-4 -1.234,-0.014 -1.862,0.08 -2.519,0.313 -4.806,2.065 -5.825,4.436 -0.524,1.176 -0.652,2.527 -0.61,3.776 -0.001,1.263 -0.002,2.532 -0.002,3.807 -0.001,2.55 -0.003,5.123 -0.004,7.718 -0.007,20.76 -0.015,42.942 -0.024,66.285 -0.005,23.344 -0.01,47.848 -0.015,73.253 -10e-4,12.702 -0.003,25.629 -0.004,38.749 0,6.56 -0.001,13.167 -0.001,19.819 0,1.663 0,3.329 0,4.997 v 2.505 c 0.012,0.822 -0.047,1.689 0.134,2.549 0.323,1.704 1.251,3.287 2.591,4.399 1.341,1.111 3.076,1.727 4.82,1.731 26.934,-0.002 53.231,-0.004 78.629,-0.005 12.699,-0.003 25.174,-0.005 37.391,-0.007 6.109,-0.001 12.153,-0.003 18.129,-0.004 2.988,-10e-4 5.959,-10e-4 8.912,-0.002 1.477,-0.001 2.949,-0.001 4.417,-0.001 0.722,0.002 1.493,0.002 2.236,-0.145 0.739,-0.157 1.455,-0.413 2.122,-0.765 1.318,-0.731 2.417,-1.844 3.095,-3.182 0.356,-0.66 0.57,-1.387 0.708,-2.118 0.149,-0.737 0.11,-1.489 0.119,-2.198 C 7.503,222.592 7.502,219.73 7.501,216.887 7.499,211.202 7.497,205.592 7.495,200.064 7.491,189.007 7.486,178.272 7.482,167.893 7.471,147.135 7.46,127.799 7.45,110.146 7.415,74.843 7.387,46.273 7.368,26.521 7.359,21.585 7.351,17.201 7.344,13.399 7.339,11.499 7.335,9.745 7.331,8.141 7.332,7.343 7.332,6.565 7.185,5.845 7.027,5.131 6.8,4.47 6.49,3.892 5.228,1.549 3.246,0.598 1.996,0.257 1.351,0.08 0.844,0.026 0.508,0.012 0.17,0 0,0 0,0"
             style="fill:#1a2e35;fill-opacity:1;fill-rule:nonzero;stroke:none"
             id="path229" /></g><g
           id="g231"
           transform="translate(636.1701,72.1301)"><path
             d="M 0,0 C 0,0 0.17,0.014 0.506,0.034 0.675,0.036 0.883,0.067 1.13,0.109 1.38,0.138 1.663,0.211 1.984,0.298 2.618,0.488 3.398,0.797 4.198,1.373 4.99,1.947 5.818,2.779 6.415,3.931 6.718,4.504 6.938,5.158 7.091,5.864 7.233,6.575 7.229,7.338 7.225,8.141 7.223,9.745 7.22,11.499 7.218,13.399 7.213,17.2 7.208,21.585 7.203,26.521 7.19,46.269 7.172,74.841 7.15,110.146 c -0.006,17.653 -0.012,36.989 -0.02,57.747 -0.002,10.379 -0.005,21.114 -0.008,32.171 -10e-4,5.528 -0.002,11.138 -0.004,16.823 0,2.843 -0.001,5.705 -0.001,8.586 -0.009,0.724 0.028,1.437 -0.114,2.131 -0.132,0.693 -0.333,1.382 -0.672,2.008 -0.643,1.268 -1.686,2.323 -2.936,3.016 -0.632,0.333 -1.31,0.575 -2.011,0.723 -0.706,0.139 -1.421,0.14 -2.16,0.137 -1.468,-0.001 -2.94,-0.001 -4.417,-0.001 -2.953,0 -5.924,-0.001 -8.912,-0.001 -5.976,-10e-4 -12.02,-0.002 -18.129,-0.003 -12.217,-0.001 -24.692,-0.003 -37.391,-0.004 -25.398,-0.001 -51.695,-0.002 -78.629,-0.004 -1.649,-0.005 -3.282,-0.584 -4.549,-1.633 -1.265,-1.05 -2.14,-2.543 -2.445,-4.151 -0.171,-0.8 -0.115,-1.63 -0.127,-2.47 v -2.505 c 0,-1.668 0,-3.334 0,-4.997 -0.001,-6.652 -0.001,-13.259 -0.001,-19.819 -0.001,-13.12 -0.002,-26.047 -0.002,-38.749 -0.004,-25.405 -0.007,-49.909 -0.01,-73.253 -0.005,-23.343 -0.01,-45.525 -0.015,-66.285 -0.001,-2.595 -0.001,-5.168 -0.002,-7.717 -0.001,-1.275 -0.001,-2.545 -0.001,-3.808 0.002,-0.635 -0.016,-1.259 0.084,-1.868 0.073,-0.614 0.27,-1.204 0.496,-1.774 0.971,-2.263 3.153,-3.94 5.558,-4.24 0.595,-0.09 1.202,-0.077 1.816,-0.078 0.612,0 1.221,0 1.83,0 1.216,-0.001 2.427,-0.001 3.631,-0.002 9.636,-0.003 18.883,-0.007 27.71,-0.01 35.304,-0.022 63.874,-0.04 83.62,-0.052 C -20.791,0.05 -13.127,0.04 -7.927,0.033 -5.33,0.026 -3.349,0.02 -2.014,0.017 -0.682,0.011 0,0 0,0 0,0 -0.682,-0.011 -2.014,-0.017 -3.349,-0.02 -5.33,-0.026 -7.927,-0.033 c -5.2,-0.007 -12.864,-0.017 -22.734,-0.031 -19.746,-0.012 -48.316,-0.03 -83.62,-0.052 -8.827,-0.003 -18.074,-0.007 -27.71,-0.01 -1.204,-0.001 -2.415,-0.001 -3.631,-0.002 -0.609,0 -1.218,0 -1.83,0 -0.606,0 -1.231,-0.014 -1.852,0.079 -2.493,0.31 -4.755,2.045 -5.763,4.391 -0.235,0.591 -0.439,1.203 -0.516,1.84 -0.104,0.635 -0.085,1.279 -0.088,1.906 -0.001,1.263 -0.001,2.533 -0.001,3.808 -0.001,2.549 -0.002,5.122 -0.003,7.717 -0.004,20.76 -0.009,42.942 -0.015,66.285 -0.003,23.344 -0.006,47.848 -0.009,73.253 -10e-4,12.702 -0.002,25.629 -0.003,38.749 0,6.56 0,13.167 -0.001,19.819 0,1.663 0,3.329 0,4.997 v 2.505 c 0.013,0.826 -0.046,1.685 0.133,2.531 0.319,1.682 1.235,3.245 2.558,4.343 1.324,1.096 3.036,1.704 4.758,1.708 26.934,-0.001 53.231,-0.002 78.629,-0.003 12.699,-0.002 25.174,-0.003 37.391,-0.004 6.109,-0.001 12.153,-0.002 18.129,-0.003 2.988,0 5.959,-0.001 8.912,-0.001 1.477,0 2.949,-0.001 4.417,-0.001 0.726,0.003 1.484,0.003 2.218,-0.143 0.731,-0.154 1.438,-0.408 2.098,-0.755 1.302,-0.723 2.388,-1.822 3.058,-3.144 0.353,-0.653 0.563,-1.371 0.7,-2.093 0.147,-0.727 0.108,-1.47 0.117,-2.183 0,-2.881 -0.001,-5.743 -0.001,-8.586 C 7.413,211.202 7.411,205.592 7.41,200.064 7.407,189.007 7.405,178.272 7.402,167.893 7.395,147.135 7.388,127.799 7.382,110.146 7.36,74.841 7.342,46.269 7.33,26.521 7.324,21.585 7.319,17.2 7.315,13.399 7.312,11.499 7.31,9.745 7.307,8.141 7.309,7.341 7.309,6.567 7.163,5.849 7.006,5.137 6.781,4.477 6.473,3.901 5.866,2.741 5.027,1.906 4.227,1.332 3.418,0.757 2.631,0.451 1.993,0.266 1.67,0.181 1.386,0.11 1.134,0.085 0.885,0.045 0.677,0.017 0.508,0.017 0.17,0.003 0,0 0,0"
             style="fill:#1a2e35;fill-opacity:1;fill-rule:nonzero;stroke:none"
             id="path233" /></g><g
           id="g235"
           transform="translate(568.2807,83.8709)"><path
             d="m 0,0 c 0,-3.45 -2.797,-6.247 -6.247,-6.247 -3.45,0 -6.247,2.797 -6.247,6.247 0,3.45 2.797,6.247 6.247,6.247 C -2.797,6.247 0,3.45 0,0"
             style="fill:#ffffff;fill-opacity:1;fill-rule:nonzero;stroke:none"
             id="path237" /></g><g
           id="g239"
           transform="translate(582.3742,294.5386)"><path
             d="m 0,0 h -33.25 c -1.28,0 -2.319,1.038 -2.319,2.319 0,1.28 1.039,2.319 2.319,2.319 H 0 C 1.281,4.638 2.319,3.599 2.319,2.319 2.319,1.038 1.281,0 0,0"
             style="fill:#ececec;fill-opacity:1;fill-rule:nonzero;stroke:none"
             id="path241" /></g><g
           id="g243"
           transform="translate(635.7297,93.9838)"><path
             d="m 0,0 h -147.673 c -1.343,0 -2.432,1.089 -2.432,2.432 l -0.001,190.253 c 0,1.343 1.089,2.432 2.433,2.432 H 0 c 1.343,0 2.432,-1.089 2.432,-2.432 V 2.432 C 2.432,1.089 1.343,0 0,0"
             style="fill:#ffffff;fill-opacity:1;fill-rule:nonzero;stroke:none"
             id="path245" /></g><g
           id="g247"
           transform="translate(635.7297,93.9838)"><path
             d="M 0,0 C -0.001,0.013 0.153,-0.003 0.445,0.056 0.732,0.113 1.174,0.253 1.609,0.648 2.038,1.032 2.442,1.717 2.393,2.595 2.389,3.47 2.385,4.484 2.38,5.634 2.369,10.244 2.352,17.031 2.331,25.77 2.311,43.264 2.283,68.566 2.248,99.829 c -0.01,15.634 -0.02,32.758 -0.032,51.141 -0.004,9.192 -0.009,18.699 -0.013,28.491 -10e-4,2.448 -0.002,4.914 -0.003,7.397 0,1.242 -0.001,2.488 -0.002,3.738 v 1.879 c 0.034,0.607 -0.133,1.159 -0.502,1.607 -0.361,0.441 -0.899,0.732 -1.468,0.788 -0.583,0.023 -1.251,0.006 -1.873,0.011 -1.268,0 -2.539,-0.001 -3.815,-0.001 -2.551,-0.001 -5.119,-0.002 -7.702,-0.003 -41.341,-0.006 -86.79,-0.013 -134.495,-0.02 -0.67,0.004 -1.329,-0.312 -1.733,-0.845 -0.202,-0.264 -0.346,-0.572 -0.412,-0.897 -0.065,-0.312 -0.037,-0.685 -0.043,-1.062 0,-1.486 0,-2.971 0,-4.453 0,-2.965 0,-5.92 0,-8.865 -0.001,-5.891 -0.001,-11.743 -0.001,-17.553 -0.002,-11.618 -0.003,-23.067 -0.004,-34.316 -0.006,-22.498 -0.011,-44.2 -0.016,-64.873 -0.008,-20.673 -0.016,-40.317 -0.023,-58.703 l -10e-4,-0.86 c 0.002,-0.262 0.049,-0.522 0.139,-0.766 0.18,-0.488 0.536,-0.913 0.991,-1.164 0.468,-0.27 0.959,-0.307 1.546,-0.287 l 1.698,-0.001 c 2.258,-0.001 4.496,-0.002 6.714,-0.004 4.435,-0.002 8.787,-0.005 13.054,-0.007 8.534,-0.006 16.723,-0.012 24.54,-0.017 C -69.945,0.149 -44.646,0.121 -27.154,0.101 -18.416,0.08 -11.63,0.064 -7.02,0.052 -4.724,0.041 -2.971,0.032 -1.784,0.027 -0.604,0.018 0,0 0,0 0,0 -0.604,-0.018 -1.784,-0.027 -2.971,-0.033 -4.723,-0.041 -7.02,-0.053 c -4.61,-0.011 -11.396,-0.027 -20.134,-0.048 -17.492,-0.02 -42.791,-0.048 -74.054,-0.083 -7.817,-0.006 -16.006,-0.011 -24.54,-0.017 -4.267,-0.003 -8.619,-0.005 -13.054,-0.008 -2.218,-0.001 -4.456,-0.002 -6.714,-0.003 l -1.698,-0.001 c -0.538,-0.025 -1.227,0.017 -1.756,0.339 -0.543,0.3 -0.968,0.805 -1.184,1.388 -0.108,0.292 -0.165,0.604 -0.167,0.915 V 3.29 c -0.008,18.386 -0.016,38.03 -0.024,58.703 -0.005,20.673 -0.01,42.375 -0.016,64.873 -0.001,11.249 -0.002,22.698 -0.004,34.316 0,5.81 0,11.662 -0.001,17.553 0,2.945 0,5.9 0,8.865 v 4.453 c 0.009,0.365 -0.028,0.743 0.053,1.164 0.082,0.404 0.26,0.788 0.512,1.114 0.497,0.659 1.322,1.053 2.144,1.046 47.705,-0.007 93.154,-0.014 134.495,-0.02 2.583,-0.001 5.151,-0.002 7.702,-0.003 1.276,0 2.547,0 3.815,-0.001 0.644,-0.007 1.242,0.014 1.921,-0.015 0.691,-0.069 1.345,-0.423 1.782,-0.958 0.447,-0.522 0.65,-1.26 0.608,-1.905 l -10e-4,-1.879 c 0,-1.25 -10e-4,-2.496 -10e-4,-3.738 C 2.663,184.375 2.662,181.909 2.661,179.461 2.656,169.669 2.652,160.162 2.648,150.97 2.637,132.587 2.626,115.463 2.616,99.829 2.581,68.566 2.553,43.264 2.533,25.77 2.512,17.031 2.496,10.244 2.485,5.634 2.48,4.484 2.476,3.47 2.472,2.595 2.514,1.699 2.088,0.992 1.645,0.608 1.194,0.211 0.741,0.079 0.45,0.03 0.153,-0.021 0,0 0,0"
             style="fill:#1a2e35;fill-opacity:1;fill-rule:nonzero;stroke:none"
             id="path249" /></g><path
           d="M 637.533,206.029 H 486.535 v 55.281 h 150.998 z"
           style="fill:#f5f5f5;fill-opacity:1;fill-rule:nonzero;stroke:none"
           id="path251" /><path
           d="m 525.634,270.665 h -35.738 v 9.355 h 35.738 z"
           style="fill:#f5f5f5;fill-opacity:1;fill-rule:nonzero;stroke:none"
           id="path253" /><path
           d="m 634.555,270.665 h -32.023 v 9.355 h 32.023 z"
           style="fill:#f5f5f5;fill-opacity:1;fill-rule:nonzero;stroke:none"
           id="path255" /><path
           d="m 596.446,270.665 h -32.023 v 9.355 h 32.023 z"
           style="fill:#f5f5f5;fill-opacity:1;fill-rule:nonzero;stroke:none"
           id="path257" /><path
           d="M 624.837,167.761 H 495.916 v 9.799 h 128.921 z"
           style="fill:#f5f5f5;fill-opacity:1;fill-rule:nonzero;stroke:none"
           id="path259" /><path
           d="M 624.837,186.296 H 495.916 v 9.799 h 128.921 z"
           style="fill:#f5f5f5;fill-opacity:1;fill-rule:nonzero;stroke:none"
           id="path261" /><path
           d="M 624.837,129.809 H 495.916 v 9.799 h 128.921 z"
           style="fill:#f5f5f5;fill-opacity:1;fill-rule:nonzero;stroke:none"
           id="path263" /><path
           d="M 624.837,148.345 H 495.916 v 9.799 h 128.921 z"
           style="fill:#f5f5f5;fill-opacity:1;fill-rule:nonzero;stroke:none"
           id="path265" /><g
           id="g267"
           transform="translate(532.7835,212.6521)"><path
             d="M 0,0 8.672,8.672 23.796,-5.112 50.448,21.511 58.501,12.839 22.557,-21.837 Z"
             style="fill:#ff735d;fill-opacity:1;fill-rule:nonzero;stroke:none"
             id="path269" /></g></g></g><g
       id="g271"><g
         id="g273"
         clip-path="url(#clipPath277)"><g
           id="g279"
           transform="translate(685.2678,71.8504)"><path
             d="m 0,0 -63.073,0.037 c -7.586,0.004 -13.733,6.139 -13.731,13.703 l 0.031,157.674 c 10e-4,7.568 6.157,13.701 13.747,13.697 L 0.047,185.074 C 7.633,185.07 13.78,178.936 13.778,171.371 L 13.747,13.697 C 13.746,6.129 7.59,-0.005 0,0"
             style="fill:#1a2e35;fill-opacity:1;fill-rule:nonzero;stroke:none"
             id="path281" /></g><g
           id="g283"
           transform="translate(685.7094,252.224)"><path
             d="m 0,0 -12.271,0.057 c -1.646,0.007 -2.986,-1.382 -2.993,-3.102 l -0.01,-2.225 c -0.006,-1.721 -1.347,-3.11 -2.992,-3.102 l -23.919,0.111 c -1.646,0.007 -2.974,1.408 -2.967,3.129 l 0.01,2.225 c 0.007,1.721 -1.322,3.122 -2.967,3.129 l -4.316,0.02 -10.74,0.05 c -5.334,0.024 -9.678,-4.281 -9.7,-9.615 L -73.52,-164.2 c -0.022,-5.331 4.28,-9.672 9.611,-9.696 l 63.165,-0.292 c 5.334,-0.025 9.677,4.28 9.7,9.615 L 9.611,-9.696 C 9.633,-4.365 5.331,-0.025 0,0"
             style="fill:#ffffff;fill-opacity:1;fill-rule:nonzero;stroke:none"
             id="path285" /></g><path
           d="m 694.853,194.561 h -82.196 v 30.093 h 82.196 z"
           style="fill:#f5f5f5;fill-opacity:1;fill-rule:nonzero;stroke:none"
           id="path287" /><path
           d="m 633.94,229.747 h -19.454 v 5.092 h 19.454 z"
           style="fill:#f5f5f5;fill-opacity:1;fill-rule:nonzero;stroke:none"
           id="path289" /><path
           d="M 693.232,229.747 H 675.8 v 5.092 h 17.432 z"
           style="fill:#f5f5f5;fill-opacity:1;fill-rule:nonzero;stroke:none"
           id="path291" /><path
           d="m 672.487,229.747 h -17.432 v 5.092 h 17.432 z"
           style="fill:#f5f5f5;fill-opacity:1;fill-rule:nonzero;stroke:none"
           id="path293" /><path
           d="m 687.942,173.73 h -70.179 v 5.334 h 70.179 z"
           style="fill:#f5f5f5;fill-opacity:1;fill-rule:nonzero;stroke:none"
           id="path295" /><path
           d="m 687.942,183.82 h -70.179 v 5.334 h 70.179 z"
           style="fill:#f5f5f5;fill-opacity:1;fill-rule:nonzero;stroke:none"
           id="path297" /><path
           d="m 687.942,153.071 h -70.179 v 5.334 h 70.179 z"
           style="fill:#f5f5f5;fill-opacity:1;fill-rule:nonzero;stroke:none"
           id="path299" /><path
           d="m 687.942,143.634 h -70.179 v 5.334 h 70.179 z"
           style="fill:#f5f5f5;fill-opacity:1;fill-rule:nonzero;stroke:none"
           id="path301" /><path
           d="m 687.942,132.849 h -70.179 v 5.334 h 70.179 z"
           style="fill:#f5f5f5;fill-opacity:1;fill-rule:nonzero;stroke:none"
           id="path303" /><path
           d="m 687.942,122.064 h -70.179 v 5.334 h 70.179 z"
           style="fill:#f5f5f5;fill-opacity:1;fill-rule:nonzero;stroke:none"
           id="path305" /><path
           d="m 687.942,111.279 h -70.179 v 5.334 h 70.179 z"
           style="fill:#f5f5f5;fill-opacity:1;fill-rule:nonzero;stroke:none"
           id="path307" /><path
           d="m 687.942,163.161 h -70.179 v 5.334 h 70.179 z"
           style="fill:#f5f5f5;fill-opacity:1;fill-rule:nonzero;stroke:none"
           id="path309" /><g
           id="g311"
           transform="translate(631.4973,158.9785)"><path
             d="M 0,0 6.787,6.787 19.876,-4.848 45.57,19.876 51.872,13.089 18.907,-17.937 Z"
             style="fill:#ff735d;fill-opacity:1;fill-rule:nonzero;stroke:none"
             id="path313" /></g></g></g><g
       id="g315"><g
         id="g317"
         clip-path="url(#clipPath321)"><g
           id="g323"
           transform="translate(297.6047,76.1408)"><path
             d="m 0,0 h -244.024 c -8.045,0 -14.567,6.522 -14.567,14.567 V 166.07 c 0,8.045 6.522,14.567 14.567,14.567 H 0 c 8.045,0 14.567,-6.522 14.567,-14.567 V 14.567 C 14.567,6.522 8.045,0 0,0"
             style="fill:#1a2e35;fill-opacity:1;fill-rule:nonzero;stroke:none"
             id="path325" /></g><g
           id="g327"
           transform="translate(309.1824,72.0013)"><path
             d="m 0,0 h -265.742 c -8.341,0 -15.102,6.761 -15.102,15.102 v 0.704 H 15.102 V 15.102 C 15.102,6.761 8.341,0 0,0"
             style="fill:#1a2e35;fill-opacity:1;fill-rule:nonzero;stroke:none"
             id="path329" /></g><path
           d="M 304.076,97.056 H 46.346 v 152.545 h 257.73 z"
           style="fill:#1a2e35;fill-opacity:1;fill-rule:nonzero;stroke:none"
           id="path331" /><g
           id="g333"
           transform="translate(148.665,89.5007)"><path
             d="M 0,0 3.672,-5.841 H 55.348 L 58.758,0 Z"
             style="fill:#375a64;fill-opacity:1;fill-rule:nonzero;stroke:none"
             id="path335" /></g><g
           id="g337"
           transform="translate(296.0249,97.5438)"><path
             d="m 0,0 h -241.097 c -1.808,0 -3.274,1.465 -3.274,3.273 V 143.62 c 0,1.807 1.466,3.273 3.273,3.273 H 0 c 1.807,0 3.272,-1.465 3.272,-3.273 V 3.272 C 3.272,1.465 1.807,0 0,0"
             style="fill:#ececec;fill-opacity:1;fill-rule:nonzero;stroke:none"
             id="path339" /></g><g
           id="g341"
           transform="translate(299.0324,97.3288)"><path
             d="m 0,0 h -247.643 l 0.265,136.13 H 0 Z"
             style="fill:#ffffff;fill-opacity:1;fill-rule:nonzero;stroke:none"
             id="path343" /></g><g
           id="g345"
           transform="translate(71.9649,238.7637)"><path
             d="m 0,0 c 0,-1.092 -0.885,-1.978 -1.978,-1.978 -1.092,0 -1.977,0.886 -1.977,1.978 0,1.092 0.885,1.978 1.977,1.978 C -0.885,1.978 0,1.092 0,0"
             style="fill:#1a2e35;fill-opacity:1;fill-rule:nonzero;stroke:none"
             id="path347" /></g><g
           id="g349"
           transform="translate(59.9782,238.7637)"><path
             d="m 0,0 c 0,-1.092 -0.885,-1.978 -1.978,-1.978 -1.092,0 -1.978,0.886 -1.978,1.978 0,1.092 0.886,1.978 1.978,1.978 C -0.885,1.978 0,1.092 0,0"
             style="fill:#1a2e35;fill-opacity:1;fill-rule:nonzero;stroke:none"
             id="path351" /></g><g
           id="g353"
           transform="translate(65.7319,238.7637)"><path
             d="m 0,0 c 0,-1.092 -0.885,-1.978 -1.978,-1.978 -1.092,0 -1.978,0.886 -1.978,1.978 0,1.092 0.886,1.978 1.978,1.978 C -0.885,1.978 0,1.092 0,0"
             style="fill:#1a2e35;fill-opacity:1;fill-rule:nonzero;stroke:none"
             id="path355" /></g><g
           id="g357"
           transform="translate(309.8246,89.5009)"><path
             d="m 0,0 c 0,-0.098 -60.628,-0.177 -135.399,-0.177 -74.797,0 -135.412,0.079 -135.412,0.177 0,0.098 60.615,0.177 135.412,0.177 C -60.628,0.177 0,0.098 0,0"
             style="fill:#375a64;fill-opacity:1;fill-rule:nonzero;stroke:none"
             id="path359" /></g><path
           d="M 299.297,156.232 H 51.654 v 55.281 h 247.643 z"
           style="fill:#f5f5f5;fill-opacity:1;fill-rule:nonzero;stroke:none"
           id="path361" /><path
           d="M 93.472,216.717 H 57.734 v 9.355 h 35.738 z"
           style="fill:#f5f5f5;fill-opacity:1;fill-rule:nonzero;stroke:none"
           id="path363" /><path
           d="m 293.42,216.717 h -19.569 v 9.355 h 19.569 z"
           style="fill:#f5f5f5;fill-opacity:1;fill-rule:nonzero;stroke:none"
           id="path365" /><path
           d="m 267.972,216.717 h -32.023 v 9.355 h 32.023 z"
           style="fill:#f5f5f5;fill-opacity:1;fill-rule:nonzero;stroke:none"
           id="path367" /><path
           d="m 229.29,216.717 h -32.023 v 9.355 h 32.023 z"
           style="fill:#f5f5f5;fill-opacity:1;fill-rule:nonzero;stroke:none"
           id="path369" /><path
           d="M 282.016,113.812 H 63.755 v 9.799 h 218.261 z"
           style="fill:#f5f5f5;fill-opacity:1;fill-rule:nonzero;stroke:none"
           id="path371" /><path
           d="M 282.016,132.348 H 63.755 v 9.799 h 218.261 z"
           style="fill:#f5f5f5;fill-opacity:1;fill-rule:nonzero;stroke:none"
           id="path373" /><g
           id="g375"
           transform="translate(144.084,174.7332)"><path
             d="M 0,0 8.672,8.672 25.397,-6.195 58.227,25.397 66.279,16.725 24.158,-22.919 Z"
             style="fill:#ff735d;fill-opacity:1;fill-rule:nonzero;stroke:none"
             id="path377" /></g></g></g><g
       id="g379"><g
         id="g381"
         clip-path="url(#clipPath385)"><g
           id="g387"
           transform="translate(315.194,361.369)"><path
             d="m 0,0 c 0,-38.502 -31.212,-69.714 -69.714,-69.714 -38.502,0 -69.714,31.212 -69.714,69.714 0,38.502 31.212,69.714 69.714,69.714 C -31.212,69.714 0,38.502 0,0"
             style="fill:#ff735d;fill-opacity:1;fill-rule:nonzero;stroke:none"
             id="path389" /></g><g
           id="g391"><g
             id="g393" /><g
             id="g405"><g
               clip-path="url(#clipPath397)"
               opacity="0.300003"
               id="g403"><g
                 transform="translate(315.194,361.369)"
                 id="g401"><path
                   d="m 0,0 c 0,-38.502 -31.212,-69.714 -69.714,-69.714 -38.502,0 -69.714,31.212 -69.714,69.714 0,38.502 31.212,69.714 69.714,69.714 C -31.212,69.714 0,38.502 0,0"
                   style="fill:#000000;fill-opacity:1;fill-rule:nonzero;stroke:none"
                   id="path399" /></g></g></g></g><g
           id="g407"
           transform="translate(313.3168,365.8257)"><path
             d="m 0,0 c 0,-38.502 -31.212,-69.714 -69.714,-69.714 -38.502,0 -69.714,31.212 -69.714,69.714 0,38.502 31.212,69.714 69.714,69.714 C -31.212,69.714 0,38.502 0,0"
             style="fill:#ff735d;fill-opacity:1;fill-rule:nonzero;stroke:none"
             id="path409" /></g><g
           id="g411"
           transform="translate(297.8348,365.8257)"><path
             d="m 0,0 c 0,-29.951 -24.28,-54.232 -54.232,-54.232 -29.951,0 -54.232,24.281 -54.232,54.232 0,29.951 24.281,54.232 54.232,54.232 C -24.28,54.232 0,29.951 0,0"
             style="fill:#ffffff;fill-opacity:1;fill-rule:nonzero;stroke:none"
             id="path413" /></g><g
           id="g415"
           transform="translate(281.7603,365.8257)"><path
             d="m 0,0 c 0,-21.074 -17.084,-38.157 -38.157,-38.157 -21.074,0 -38.157,17.083 -38.157,38.157 0,21.074 17.083,38.157 38.157,38.157 C -17.084,38.157 0,21.074 0,0"
             style="fill:#ff735d;fill-opacity:1;fill-rule:nonzero;stroke:none"
             id="path417" /></g><g
           id="g419"
           transform="translate(263.7357,365.8257)"><path
             d="m 0,0 c 0,-11.119 -9.014,-20.133 -20.133,-20.133 -11.119,0 -20.132,9.014 -20.132,20.133 0,11.119 9.013,20.133 20.132,20.133 C -9.014,20.133 0,11.119 0,0"
             style="fill:#ffffff;fill-opacity:1;fill-rule:nonzero;stroke:none"
             id="path421" /></g><g
           id="g423"
           transform="translate(297.5366,422.2895)"><path
             d="m 0,0 -1.894,14.873 15.139,16.203 1.09,-16.05 z"
             style="fill:#375a64;fill-opacity:1;fill-rule:nonzero;stroke:none"
             id="path425" /></g><g
           id="g427"
           transform="translate(330.0312,434.1249)"><path
             d="m 0,0 -15.359,1.25 -15.395,-14.81 15.399,-1.646 z"
             style="fill:#375a64;fill-opacity:1;fill-rule:nonzero;stroke:none"
             id="path429" /></g><g
           id="g431"><g
             id="g433" /><g
             id="g445"><g
               clip-path="url(#clipPath437)"
               opacity="0.300003"
               id="g443"><g
                 transform="translate(243.603,364.6551)"
                 id="g441"><path
                   d="m 0,0 57.231,40.986 c -1.81,2.705 -4.708,6.263 -7.266,8.983 L 0.939,2.566 Z"
                   style="fill:#000000;fill-opacity:1;fill-rule:nonzero;stroke:none"
                   id="path439" /></g></g></g></g><g
           id="g447"
           transform="translate(314.1423,440.4155)"><path
             d="m 0,0 c -2.394,-2.426 -4.789,-4.852 -7.183,-7.278 -5.749,-5.825 -11.498,-11.651 -17.247,-17.476 -6.925,-7.017 -13.851,-14.035 -20.776,-21.052 -6.016,-6.096 -12.032,-12.192 -18.048,-18.288 -2.922,-2.961 -5.977,-5.837 -8.788,-8.904 -0.04,-0.044 -0.084,-0.085 -0.125,-0.127 -1.697,-1.72 0.953,-4.373 2.651,-2.652 2.394,2.426 4.789,4.852 7.183,7.278 5.749,5.825 11.498,11.651 17.247,17.476 6.925,7.017 13.851,14.035 20.776,21.052 6.016,6.096 12.032,12.192 18.049,18.288 2.921,2.96 5.976,5.837 8.787,8.904 0.04,0.044 0.084,0.085 0.126,0.127 C 4.348,-0.932 1.698,1.721 0,0"
             style="fill:#1a2e35;fill-opacity:1;fill-rule:nonzero;stroke:none"
             id="path449" /></g></g></g><g
       id="g451"><g
         id="g453"
         clip-path="url(#clipPath457)"><g
           id="g459"
           transform="translate(437.8744,258.7466)"><path
             d="m 0,0 c -2.36,-0.156 -4.685,1.684 -5.078,4.016 -0.392,2.333 1.204,4.831 3.485,5.456 -1.388,1.566 -1.637,4.037 -0.588,5.848 1.049,1.811 3.316,2.825 5.365,2.4 0.185,2.058 1.511,3.977 3.372,4.876 1.861,0.898 4.188,0.745 5.915,-0.39 2.373,1.845 6.052,1.743 8.318,-0.231 2.022,0.275 4.157,-0.897 5.011,-2.75 0.855,-1.853 0.359,-4.237 -1.163,-5.596"
             style="fill:#1a2e35;fill-opacity:1;fill-rule:nonzero;stroke:none"
             id="path461" /></g><g
           id="g463"
           transform="translate(437.1421,258.1036)"><path
             d="m 0,0 c 1.353,10.587 10.61,18.358 21.272,17.86 l 1.059,-0.05 C 33.723,16.609 39.067,6.263 37.551,-5.091 l -3.431,-37.961 -0.9,-8.951 -25.892,3.056 0.491,9.693 c 0,0 -10.902,2.221 -10.525,13.207 C -2.523,-20.742 -1.259,-9.847 0,0"
             style="fill:#aa655b;fill-opacity:1;fill-rule:nonzero;stroke:none"
             id="path465" /></g><g
           id="g467"
           transform="translate(444.8705,218.8701)"><path
             d="m 0,0 c 0,0 6.992,-0.749 14.583,3.538 0,0 -3.753,-7.743 -14.662,-6.242 z"
             style="fill:#814943;fill-opacity:1;fill-rule:nonzero;stroke:none"
             id="path469" /></g><g
           id="g471"
           transform="translate(439.5558,247.9831)"><path
             d="M 0,0 C -0.068,-0.826 0.576,-1.566 1.438,-1.652 2.298,-1.739 3.052,-1.141 3.12,-0.314 3.188,0.512 2.544,1.252 1.684,1.339 0.822,1.426 0.068,0.826 0,0"
             style="fill:#1a2e35;fill-opacity:1;fill-rule:nonzero;stroke:none"
             id="path473" /></g><g
           id="g475"
           transform="translate(439.2513,252.6216)"><path
             d="M 0,0 C 0.185,-0.214 1.413,0.61 3.101,0.527 4.787,0.468 5.985,-0.458 6.177,-0.26 6.271,-0.173 6.091,0.206 5.57,0.623 5.057,1.039 4.17,1.461 3.119,1.506 2.068,1.549 1.165,1.204 0.639,0.832 0.101,0.458 -0.092,0.096 0,0"
             style="fill:#1a2e35;fill-opacity:1;fill-rule:nonzero;stroke:none"
             id="path477" /></g><g
           id="g479"
           transform="translate(454.9248,247.2104)"><path
             d="M 0,0 C -0.068,-0.826 0.576,-1.565 1.438,-1.652 2.298,-1.739 3.052,-1.141 3.12,-0.314 3.188,0.512 2.544,1.253 1.684,1.339 0.822,1.426 0.068,0.827 0,0"
             style="fill:#1a2e35;fill-opacity:1;fill-rule:nonzero;stroke:none"
             id="path481" /></g><g
           id="g483"
           transform="translate(455.8211,251.5322)"><path
             d="M 0,0 C 0.185,-0.214 1.415,0.61 3.101,0.526 4.787,0.467 5.985,-0.459 6.178,-0.26 6.272,-0.173 6.093,0.205 5.57,0.623 5.058,1.039 4.171,1.461 3.119,1.506 2.068,1.549 1.166,1.203 0.639,0.831 0.103,0.457 -0.091,0.096 0,0"
             style="fill:#1a2e35;fill-opacity:1;fill-rule:nonzero;stroke:none"
             id="path485" /></g><g
           id="g487"
           transform="translate(449.1132,239.3053)"><path
             d="m 0,0 c 0.012,0.096 -1.028,0.326 -2.717,0.623 -0.429,0.064 -0.833,0.169 -0.892,0.467 -0.086,0.315 0.115,0.771 0.348,1.263 0.453,1.023 0.928,2.097 1.427,3.221 1.988,4.589 3.448,8.369 3.262,8.448 C 1.243,14.1 -0.519,10.445 -2.506,5.856 -2.986,4.725 -3.445,3.646 -3.881,2.613 -4.067,2.131 -4.373,1.589 -4.183,0.933 -4.082,0.605 -3.777,0.357 -3.504,0.27 -3.232,0.173 -2.99,0.157 -2.778,0.134 -1.072,-0.038 -0.011,-0.095 0,0"
             style="fill:#1a2e35;fill-opacity:1;fill-rule:nonzero;stroke:none"
             id="path489" /></g><g
           id="g491"
           transform="translate(455.4608,256.8688)"><path
             d="M 0,0 C 0.203,-0.438 1.67,-0.042 3.453,-0.068 5.236,-0.053 6.721,-0.459 6.904,-0.022 6.984,0.187 6.686,0.586 6.061,0.958 5.44,1.331 4.485,1.641 3.416,1.645 2.347,1.647 1.405,1.343 0.801,0.974 0.192,0.606 -0.09,0.209 0,0"
             style="fill:#1a2e35;fill-opacity:1;fill-rule:nonzero;stroke:none"
             id="path493" /></g><g
           id="g495"
           transform="translate(439.4946,259.5827)"><path
             d="M 0,0 C 0.337,-0.4 1.749,-0.067 3.424,-0.126 5.101,-0.137 6.505,-0.529 6.849,-0.143 7.002,0.045 6.797,0.439 6.194,0.831 5.6,1.221 4.593,1.564 3.441,1.589 2.289,1.612 1.275,1.311 0.674,0.946 0.065,0.58 -0.148,0.194 0,0"
             style="fill:#1a2e35;fill-opacity:1;fill-rule:nonzero;stroke:none"
             id="path497" /></g><g
           id="g499"
           transform="translate(438.4332,263.0896)"><path
             d="m 0,0 c 0,0 3.217,6.74 6.608,8.19 4.104,1.755 5.626,-2.731 9.501,-1.841 3.875,0.89 7.794,2.575 11.565,-0.564 4.127,-3.436 2.016,-5.614 2.053,-10.497 0.149,-19.801 3.495,-25.555 4.955,-16.3 0.16,1.014 3.027,1.692 3.647,5.979 0.805,5.559 1.336,12.329 0.275,16.349 -0.894,3.39 -2.691,5.786 -5.987,8.49 -5.203,4.268 -12.603,4.7 -17.656,4.429 C 9.909,13.964 -0.056,8.63 0,0"
             style="fill:#1a2e35;fill-opacity:1;fill-rule:nonzero;stroke:none"
             id="path501" /></g><g
           id="g503"
           transform="translate(472.4299,242.4092)"><path
             d="M 0,0 C 0.148,1.691 1.671,2.961 3.352,2.722 5.39,2.431 7.615,1.162 7.282,-3.063 6.691,-10.558 -0.712,-8.419 -0.708,-8.203 -0.705,-8.056 -0.275,-3.134 0,0"
             style="fill:#aa655b;fill-opacity:1;fill-rule:nonzero;stroke:none"
             id="path505" /></g><g
           id="g507"
           transform="translate(473.5752,236.8977)"><path
             d="M 0,0 C 0.035,0.021 0.124,-0.102 0.336,-0.22 0.543,-0.336 0.908,-0.433 1.31,-0.317 2.125,-0.089 2.891,1.115 3.034,2.464 3.107,3.144 3.015,3.805 2.815,4.361 2.63,4.928 2.305,5.339 1.913,5.441 1.523,5.564 1.222,5.348 1.114,5.144 0.997,4.942 1.032,4.789 0.992,4.779 0.969,4.762 0.841,4.917 0.926,5.222 0.968,5.369 1.07,5.538 1.257,5.668 1.449,5.801 1.719,5.854 1.994,5.802 2.569,5.717 3.047,5.144 3.267,4.533 3.517,3.917 3.637,3.173 3.555,2.408 3.388,0.902 2.503,-0.451 1.395,-0.678 0.857,-0.774 0.43,-0.581 0.217,-0.386 -0.001,-0.182 -0.027,-0.012 0,0"
             style="fill:#814943;fill-opacity:1;fill-rule:nonzero;stroke:none"
             id="path509" /></g><g
           id="g511"
           transform="translate(472.9628,256.9592)"><path
             d="m 0,0 c -1.006,-0.62 -2.068,-1.258 -3.248,-1.319 -1.18,-0.062 -2.492,0.676 -2.636,1.849 -0.064,0.526 0.092,1.126 -0.233,1.546 -0.387,0.501 -1.151,0.386 -1.783,0.348 -2.193,-0.129 -4.355,1.519 -4.812,3.668 -0.595,-0.808 -1.893,-0.711 -2.71,-0.128 -0.817,0.582 -1.318,1.496 -1.941,2.282 -0.624,0.785 -1.518,1.504 -2.517,1.409 -0.558,-0.053 -1.093,-0.359 -1.649,-0.283 -0.982,0.133 -1.409,1.31 -1.513,2.295 -0.103,0.986 -0.166,2.132 -0.976,2.703 -0.75,0.529 -1.766,0.291 -2.68,0.2 -0.914,-0.091 -2.075,0.177 -2.266,1.075 -0.1,0.471 0.122,0.951 0.399,1.346 1.255,1.785 3.842,2.483 5.825,1.572 0.85,2.446 3.26,4.268 5.845,4.419 2.586,0.151 5.191,-1.377 6.321,-3.708 1.654,1.365 3.987,1.862 6.053,1.288 2.067,-0.574 3.81,-2.203 4.522,-4.226 C 1.85,16.731 3.898,15.928 4.985,14.382 6.072,12.836 6.134,10.636 5.137,9.031 6.45,8.197 7.543,6.802 7.498,5.247 7.453,3.692 5.868,2.215 4.387,2.694 4.937,1.456 4.367,-0.163 3.164,-0.784 1.96,-1.405 0.31,-0.932 -0.38,0.233"
             style="fill:#1a2e35;fill-opacity:1;fill-rule:nonzero;stroke:none"
             id="path513" /></g><g
           id="g515"
           transform="translate(449.5617,273.3392)"><path
             d="M 0,0 C -0.006,0 -0.008,-0.047 -0.005,-0.138 0.001,-0.228 0,-0.365 0.024,-0.541 0.077,-0.89 0.193,-1.41 0.502,-2.012 c 0.312,-0.594 0.806,-1.286 1.581,-1.853 0.759,-0.572 1.816,-1.03 3.034,-1.02 l -0.119,0.172 c -0.263,-0.631 -0.236,-1.404 0.054,-2.08 0.271,-0.685 0.72,-1.302 1.198,-1.906 0.245,-0.29 0.454,-0.628 0.8,-0.9 0.335,-0.262 0.745,-0.424 1.169,-0.497 0.841,-0.148 1.809,0.069 2.456,0.753 l -0.277,0.093 c 0.121,-1.501 0.9,-3.034 2.206,-4.007 0.69,-0.549 1.558,-0.905 2.427,-0.923 0.87,-0.032 1.689,0.185 2.454,0.42 l -0.196,0.097 c 0.36,-0.952 0.942,-1.776 1.668,-2.399 0.712,-0.622 1.68,-1.012 2.582,-0.835 1.789,0.292 3.033,1.711 3.335,3.087 L 24.7,-13.881 c 0.857,-0.52 1.798,-0.61 2.562,-0.499 0.774,0.104 1.391,0.409 1.836,0.718 0.446,0.315 0.717,0.647 0.882,0.878 0.152,0.241 0.216,0.375 0.208,0.379 -0.036,0.033 -0.275,-0.559 -1.161,-1.152 -0.441,-0.283 -1.045,-0.56 -1.789,-0.643 -0.734,-0.09 -1.624,0.017 -2.415,0.514 l -0.137,0.086 -0.037,-0.158 c -0.298,-1.283 -1.494,-2.605 -3.152,-2.857 -0.817,-0.152 -1.668,0.197 -2.343,0.784 -0.677,0.587 -1.232,1.382 -1.566,2.277 l -0.053,0.141 -0.144,-0.043 c -0.753,-0.229 -1.544,-0.432 -2.347,-0.399 -0.804,0.02 -1.583,0.337 -2.241,0.858 -1.233,0.921 -1.965,2.355 -2.087,3.776 l -0.03,0.357 -0.247,-0.264 C 9.893,-9.713 9.026,-9.923 8.27,-9.792 7.89,-9.728 7.526,-9.586 7.234,-9.36 6.948,-9.143 6.728,-8.809 6.479,-8.516 6.002,-7.923 5.565,-7.328 5.306,-6.691 5.03,-6.059 5.004,-5.379 5.23,-4.807 L 5.3,-4.631 5.111,-4.635 C 3.962,-4.659 2.944,-4.241 2.201,-3.703 1.443,-3.171 0.948,-2.513 0.626,-1.946 -0.005,-0.779 0.055,0.015 0,0"
             style="fill:#375a64;fill-opacity:1;fill-rule:nonzero;stroke:none"
             id="path517" /></g><g
           id="g519"
           transform="translate(447.1927,233.7768)"><path
             d="m 0,0 c -0.027,-0.071 0.386,-0.328 1.147,-0.495 0.756,-0.17 1.864,-0.194 3.013,0.144 1.148,0.342 2.065,0.966 2.606,1.519 0.548,0.555 0.755,0.996 0.693,1.04 C 7.319,2.336 6.119,0.865 3.98,0.258 1.856,-0.398 0.047,0.183 0,0"
             style="fill:#1a2e35;fill-opacity:1;fill-rule:nonzero;stroke:none"
             id="path521" /></g><g
           id="g523"
           transform="translate(422.4456,110.8951)"><path
             d="m 0,0 66.498,-0.906 c 0,0 18.597,7.781 23.706,7.991 5.109,0.209 15.25,-0.44 19.942,-7.991 4.848,-7.804 5.526,-21.574 -9.417,-31.58 -14.551,-9.743 -81.094,-18.748 -90.216,-17.919 l -16.815,22.57 c 0,0 -0.176,18.498 0,19.379 0.176,0.881 2.995,8.808 2.995,8.808 z"
             style="fill:#1a2e35;fill-opacity:1;fill-rule:nonzero;stroke:none"
             id="path525" /></g><g
           id="g527"
           transform="translate(459.3638,80.9918)"><path
             d="M 0,0 39.702,-14.747 21.607,-64.236 c -4.622,2.018 -4.752,31.091 -4.752,31.091 L -8.97,-24.74 Z"
             style="fill:#ff735d;fill-opacity:1;fill-rule:nonzero;stroke:none"
             id="path529" /></g><g
           id="g531"><g
             id="g533" /><g
             id="g545"><g
               clip-path="url(#clipPath537)"
               opacity="0.600006"
               id="g543"><g
                 transform="translate(479.6697,63.9338)"
                 id="g541"><path
                   d="M 0,0 C 0.612,0.862 1.931,1.13 2.818,0.554 3.704,-0.022 3.988,-1.361 3.392,-2.234 2.795,-3.106 1.221,-3.476 0.405,-2.805 -0.412,-2.133 -0.659,-0.543 0.13,0.161"
                   style="fill:#ffffff;fill-opacity:1;fill-rule:nonzero;stroke:none"
                   id="path539" /></g></g></g></g><g
           id="g547"
           transform="translate(499.0656,66.2446)"><path
             d="m 0,0 -4.007,1.488 -15.884,-48.104 c 0,0 0.153,-2.554 1.796,-2.872 z"
             style="fill:#1a2e35;fill-opacity:1;fill-rule:nonzero;stroke:none"
             id="path549" /></g><g
           id="g551"
           transform="translate(475.6741,47.1369)"><path
             d="M 0,0 C 0.244,-0.08 0.796,1.088 2.008,1.993 3.196,2.93 4.466,3.16 4.452,3.417 4.486,3.657 2.91,3.825 1.462,2.703 0.005,1.595 -0.241,0.029 0,0"
             style="fill:#1a2e35;fill-opacity:1;fill-rule:nonzero;stroke:none"
             id="path553" /></g><g
           id="g555"
           transform="translate(475.923,41.1614)"><path
             d="M 0,0 C 0.214,-0.141 1.007,0.755 2.33,1.202 3.639,1.688 4.82,1.491 4.897,1.736 5.018,1.949 3.664,2.634 2.03,2.046 0.392,1.474 -0.229,0.089 0,0"
             style="fill:#1a2e35;fill-opacity:1;fill-rule:nonzero;stroke:none"
             id="path557" /></g><g
           id="g559"
           transform="translate(481.0573,35.9418)"><path
             d="m 0,0 c 0.132,0.201 -0.953,0.979 -2.503,0.842 -1.552,-0.126 -2.49,-1.074 -2.326,-1.25 0.149,-0.21 1.127,0.265 2.402,0.357 C -1.156,0.072 -0.112,-0.231 0,0"
             style="fill:#1a2e35;fill-opacity:1;fill-rule:nonzero;stroke:none"
             id="path561" /></g><g
           id="g563"
           transform="translate(470.0008,49.7055)"><path
             d="M 0,0 C 0.257,0.021 0.329,1.251 0.922,2.583 1.487,3.927 2.334,4.823 2.173,5.024 2.049,5.228 0.775,4.517 0.099,2.938 -0.588,1.366 -0.233,-0.05 0,0"
             style="fill:#1a2e35;fill-opacity:1;fill-rule:nonzero;stroke:none"
             id="path565" /></g><g
           id="g567"
           transform="translate(464.5601,53.0309)"><path
             d="M 0,0 C 0.099,-0.039 0.598,0.861 0.893,2.483 1.04,3.291 1.118,4.276 1.045,5.367 1.008,5.913 0.933,6.484 0.81,7.067 0.747,7.348 0.698,7.673 0.501,8.028 0.347,8.388 -0.238,8.775 -0.744,8.609 -1.217,8.495 -1.545,8.107 -1.684,7.753 -1.829,7.392 -1.864,7.07 -1.895,6.776 -1.963,6.176 -1.969,5.592 -1.93,5.042 c 0.084,-1.103 0.347,-2.07 0.665,-2.834 0.643,-1.537 1.402,-2.259 1.479,-2.194 0.12,0.081 -0.432,0.916 -0.883,2.405 -0.223,0.743 -0.403,1.652 -0.437,2.666 -0.014,0.507 0.008,1.04 0.082,1.584 0.053,0.574 0.213,1.022 0.495,1.071 0.107,0.016 0.145,0.009 0.258,-0.156 0.1,-0.165 0.161,-0.428 0.224,-0.706 C 0.079,6.336 0.166,5.805 0.223,5.295 0.335,4.275 0.326,3.343 0.265,2.563 0.142,1.001 -0.133,0.044 0,0"
             style="fill:#1a2e35;fill-opacity:1;fill-rule:nonzero;stroke:none"
             id="path569" /></g><g
           id="g571"
           transform="translate(465.0215,53.2189)"><path
             d="m 0,0 c 0.069,0.072 -0.622,0.868 -2.155,1.529 -0.761,0.325 -1.731,0.589 -2.837,0.654 -0.552,0.03 -1.137,0.009 -1.735,-0.081 -0.596,-0.111 -1.38,-0.226 -1.83,-1.123 -0.197,-0.484 0.036,-1.03 0.313,-1.288 0.275,-0.286 0.55,-0.424 0.815,-0.587 0.545,-0.302 1.116,-0.498 1.669,-0.612 1.11,-0.23 2.144,-0.119 2.947,0.122 1.637,0.498 2.294,1.402 2.219,1.452 -0.092,0.125 -0.866,-0.547 -2.369,-0.837 -0.741,-0.142 -1.661,-0.173 -2.615,0.068 -0.477,0.119 -0.96,0.304 -1.416,0.569 -0.498,0.27 -0.85,0.622 -0.724,0.8 0.086,0.247 0.635,0.521 1.129,0.57 0.536,0.092 1.064,0.128 1.568,0.122 C -4.013,1.342 -3.108,1.164 -2.372,0.934 -0.895,0.471 -0.085,-0.118 0,0"
             style="fill:#1a2e35;fill-opacity:1;fill-rule:nonzero;stroke:none"
             id="path573" /></g><g
           id="g575"
           transform="translate(437.4537,82.0201)"><path
             d="m 0,0 -35.577,-16.502 20.305,-44.368 c 4.119,2.199 2.124,29.047 2.124,29.047 l 23.228,9.637 z"
             style="fill:#ff735d;fill-opacity:1;fill-rule:nonzero;stroke:none"
             id="path577" /></g><g
           id="g579"><g
             id="g581" /><g
             id="g593"><g
               clip-path="url(#clipPath585)"
               opacity="0.600006"
               id="g591"><g
                 transform="translate(419.9498,64.796)"
                 id="g589"><path
                   d="m 0,0 c -0.628,0.751 -1.865,0.902 -2.642,0.306 -0.776,-0.596 -0.941,-1.852 -0.326,-2.615 0.614,-0.762 2.094,-0.989 2.798,-0.31 0.705,0.68 0.818,2.166 0.039,2.758"
                   style="fill:#ffffff;fill-opacity:1;fill-rule:nonzero;stroke:none"
                   id="path587" /></g></g></g></g><g
           id="g595"
           transform="translate(401.8767,65.518)"><path
             d="m 0,0 3.591,1.666 18.163,-43.252 c 0,0 0.044,-2.368 -1.449,-2.782 z"
             style="fill:#1a2e35;fill-opacity:1;fill-rule:nonzero;stroke:none"
             id="path597" /></g><g
           id="g599"
           transform="translate(424.8603,49.581)"><path
             d="M 0,0 C -0.22,-0.092 -0.814,0.946 -1.998,1.693 -3.163,2.472 -4.353,2.592 -4.358,2.83 -4.408,3.049 -2.965,3.319 -1.547,2.389 -0.121,1.472 0.22,0.044 0,0"
             style="fill:#1a2e35;fill-opacity:1;fill-rule:nonzero;stroke:none"
             id="path601" /></g><g
           id="g603"
           transform="translate(425.0652,44.0468)"><path
             d="m 0,0 c -0.187,-0.146 -0.985,0.624 -2.238,0.94 -1.244,0.354 -2.32,0.086 -2.409,0.306 -0.127,0.188 1.073,0.919 2.624,0.495 C -0.469,1.332 0.205,0.099 0,0"
             style="fill:#1a2e35;fill-opacity:1;fill-rule:nonzero;stroke:none"
             id="path605" /></g><g
           id="g607"
           transform="translate(420.7055,38.8548)"><path
             d="M 0,0 C -0.137,0.176 0.808,0.973 2.249,0.959 3.691,0.956 4.626,0.149 4.488,-0.025 4.366,-0.229 3.428,0.137 2.244,0.13 1.062,0.15 0.12,-0.205 0,0"
             style="fill:#1a2e35;fill-opacity:1;fill-rule:nonzero;stroke:none"
             id="path609" /></g><g
           id="g611"
           transform="translate(429.9106,52.3649)"><path
             d="M 0,0 C -0.239,0 -0.395,1.131 -1.039,2.318 -1.658,3.517 -2.505,4.282 -2.371,4.48 -2.272,4.677 -1.044,4.114 -0.306,2.705 0.443,1.303 0.219,-0.029 0,0"
             style="fill:#1a2e35;fill-opacity:1;fill-rule:nonzero;stroke:none"
             id="path613" /></g><g
           id="g615"
           transform="translate(434.6911,55.8305)"><path
             d="m 0,0 c -0.088,-0.044 -0.614,0.751 -1.006,2.227 -0.193,0.735 -0.338,1.639 -0.349,2.652 -0.005,0.506 0.022,1.038 0.093,1.586 0.038,0.264 0.059,0.567 0.216,0.91 C -0.93,7.718 -0.418,8.118 0.06,8.002 0.505,7.931 0.836,7.596 0.99,7.279 1.151,6.957 1.206,6.662 1.257,6.393 1.363,5.844 1.411,5.306 1.415,4.795 1.417,3.77 1.245,2.859 1.007,2.13 0.526,0.665 -0.123,-0.057 -0.199,-0.002 -0.315,0.063 0.134,0.874 0.441,2.282 0.594,2.984 0.693,3.836 0.651,4.775 0.627,5.244 0.568,5.734 0.46,6.231 0.369,6.757 0.189,7.158 -0.075,7.183 -0.175,7.191 -0.209,7.182 -0.301,7.021 -0.382,6.861 -0.419,6.614 -0.457,6.353 -0.534,5.843 -0.576,5.346 -0.591,4.872 -0.621,3.922 -0.544,3.062 -0.431,2.347 -0.204,0.914 0.119,0.05 0,0"
             style="fill:#1a2e35;fill-opacity:1;fill-rule:nonzero;stroke:none"
             id="path617" /></g><g
           id="g619"
           transform="translate(434.2514,55.9706)"><path
             d="M 0,0 C -0.069,0.062 0.511,0.847 1.878,1.568 2.557,1.924 3.434,2.238 4.449,2.379 4.957,2.446 5.498,2.469 6.057,2.43 6.615,2.37 7.347,2.322 7.828,1.526 8.046,1.094 7.869,0.573 7.633,0.314 7.4,0.03 7.156,-0.117 6.923,-0.287 6.442,-0.605 5.929,-0.828 5.427,-0.973 4.419,-1.266 3.456,-1.239 2.697,-1.074 1.151,-0.734 0.478,0.052 0.543,0.104 c 0.076,0.122 0.84,-0.442 2.248,-0.6 0.694,-0.078 1.546,-0.039 2.41,0.253 0.431,0.145 0.864,0.35 1.265,0.628 0.44,0.286 0.739,0.636 0.61,0.791 C 6.979,1.398 6.452,1.611 5.993,1.62 5.491,1.666 5.001,1.661 4.536,1.619 3.607,1.531 2.784,1.301 2.122,1.035 0.792,0.5 0.087,-0.103 0,0"
             style="fill:#1a2e35;fill-opacity:1;fill-rule:nonzero;stroke:none"
             id="path621" /></g><g
           id="g623"
           transform="translate(419.1386,111.2474)"><path
             d="m 0,0 c 0,0 -28.716,10.725 -39.286,9.337 -5.91,-0.776 -15.15,-5.285 -15.855,-12.86 -0.704,-7.575 1.144,-17.709 11.362,-22.642 10.218,-4.932 50.999,-23.233 60.688,-26.052 9.689,-2.818 33.848,-9.419 33.848,-9.419 l 9.178,26.155 c 0,0 -50.069,17.336 -52.712,19.274 -2.643,1.937 -9.337,4.58 -9.337,4.58 z"
             style="fill:#1a2e35;fill-opacity:1;fill-rule:nonzero;stroke:none"
             id="path625" /></g><g
           id="g627"
           transform="translate(518.9614,107.6909)"><path
             d="M 0,0 C -0.002,-0.005 -0.069,0.013 -0.199,0.052 -0.345,0.096 -0.535,0.154 -0.776,0.227 -1.283,0.379 -2.032,0.599 -3.01,0.831 -3.987,1.06 -5.192,1.32 -6.609,1.457 c -1.417,0.141 -3.046,0.148 -4.832,-0.006 -1.784,-0.157 -3.733,-0.479 -5.746,-1.095 -1.005,-0.309 -2.03,-0.685 -3.031,-1.183 -1.014,-0.494 -2.057,-1.003 -3.126,-1.525 -4.296,-2.054 -9.094,-4.156 -14.204,-6.174 -10.232,-4.1 -20.055,-6.045 -27.057,-7.637 -3.514,-0.777 -6.354,-1.417 -8.311,-1.882 -0.965,-0.228 -1.721,-0.408 -2.255,-0.534 -0.246,-0.056 -0.44,-0.099 -0.588,-0.133 -0.133,-0.028 -0.202,-0.04 -0.203,-0.035 -10e-4,0.005 0.065,0.027 0.195,0.066 0.146,0.041 0.338,0.094 0.58,0.162 0.512,0.137 1.265,0.347 2.242,0.591 1.95,0.502 4.784,1.174 8.292,1.979 6.994,1.647 16.79,3.623 26.992,7.711 5.103,2.016 9.897,4.107 14.194,6.144 1.07,0.517 2.114,1.022 3.128,1.512 1.021,0.501 2.06,0.877 3.077,1.184 2.038,0.612 4.005,0.923 5.803,1.067 1.8,0.141 3.441,0.119 4.867,-0.039 1.429,-0.156 2.635,-0.434 3.611,-0.682 0.977,-0.251 1.723,-0.49 2.224,-0.662 C -0.52,0.201 -0.332,0.133 -0.189,0.082 -0.062,0.033 0.002,0.005 0,0"
             style="fill:#375a64;fill-opacity:1;fill-rule:nonzero;stroke:none"
             id="path629" /></g><g
           id="g631"
           transform="translate(517.4514,111.4765)"><path
             d="m 0,0 c -0.01,-0.05 -0.874,0.107 -2.28,0.258 -1.406,0.153 -3.359,0.268 -5.512,0.16 -2.154,-0.113 -4.085,-0.428 -5.468,-0.724 -1.383,-0.295 -2.226,-0.539 -2.241,-0.491 -0.007,0.021 0.198,0.102 0.574,0.232 0.375,0.133 0.928,0.297 1.618,0.472 1.379,0.353 3.326,0.706 5.501,0.82 2.174,0.11 4.147,-0.042 5.555,-0.252 C -1.549,0.371 -0.982,0.266 -0.595,0.172 -0.208,0.081 0.004,0.021 0,0"
             style="fill:#375a64;fill-opacity:1;fill-rule:nonzero;stroke:none"
             id="path633" /></g><g
           id="g635"
           transform="translate(407.0588,103.652)"><path
             d="m 0,0 c -0.034,-0.043 -0.829,0.573 -2.205,1.425 -1.373,0.854 -3.358,1.902 -5.683,2.726 -2.329,0.818 -4.532,1.248 -6.137,1.445 -1.606,0.2 -2.612,0.22 -2.611,0.274 0,0.022 0.252,0.034 0.707,0.038 0.456,0.008 1.116,-0.021 1.928,-0.094 1.624,-0.143 3.86,-0.543 6.216,-1.371 C -5.433,3.61 -3.441,2.518 -2.087,1.61 -1.409,1.157 -0.877,0.766 -0.527,0.473 -0.175,0.184 0.013,0.017 0,0"
             style="fill:#375a64;fill-opacity:1;fill-rule:nonzero;stroke:none"
             id="path637" /></g><g
           id="g639"
           transform="translate(421.4691,64.6434)"><path
             d="M 0,0 C 0,0 0.077,-0.025 0.224,-0.086 0.379,-0.15 0.594,-0.241 0.876,-0.359 1.454,-0.592 2.29,-0.99 3.413,-1.42 5.649,-2.308 8.955,-3.524 13.194,-4.918 21.676,-7.69 33.87,-11.221 48.46,-14.896 l -0.166,-0.088 c 2.72,7.548 5.721,15.878 8.878,24.641 L 57.258,9.463 C 53.737,10.908 50.03,12.43 46.264,13.976 22.031,23.95 0.252,32.913 -14.568,39.012 l -0.021,0.009 -0.015,0.016 c -2.476,2.621 -4.754,4.93 -6.89,6.794 -2.136,1.863 -4.1,3.302 -5.776,4.353 -1.667,1.067 -3.043,1.74 -3.962,2.21 -0.463,0.216 -0.817,0.381 -1.065,0.497 -0.238,0.113 -0.357,0.178 -0.357,0.178 0,0 0.126,-0.047 0.369,-0.151 0.251,-0.11 0.609,-0.266 1.078,-0.471 0.929,-0.454 2.316,-1.112 3.997,-2.168 1.69,-1.038 3.671,-2.468 5.823,-4.325 2.152,-1.857 4.447,-4.162 6.933,-6.774 l -0.036,0.024 C 0.34,33.128 22.133,24.198 46.382,14.263 50.147,12.716 53.854,11.193 57.375,9.747 L 57.511,9.691 57.461,9.553 C 54.294,0.793 51.285,-7.533 48.558,-15.079 l -0.044,-0.12 -0.122,0.031 C 33.801,-11.467 21.615,-7.897 13.141,-5.077 8.907,-3.659 5.608,-2.417 3.38,-1.503 2.261,-1.058 1.43,-0.648 0.858,-0.4 0.58,-0.273 0.367,-0.176 0.214,-0.106 0.071,-0.039 0,0 0,0"
             style="fill:#375a64;fill-opacity:1;fill-rule:nonzero;stroke:none"
             id="path641" /></g><g
           id="g643"
           transform="translate(492.4448,202.764)"><path
             d="m 0,0 c 0,0 8.268,-4.763 9.944,-10.359 1.017,-3.398 8.73,-46.867 9.95,-55.438 1.232,-8.654 -1.354,-14.921 -5.009,-17.764 -3.656,-2.843 -14.736,-6.631 -14.736,-6.631 l -15.589,-5.049 -4.467,11.371 14.839,21.317 -1.436,14.36 z"
             style="fill:#ff735d;fill-opacity:1;fill-rule:nonzero;stroke:none"
             id="path645" /></g><g
           id="g647"
           transform="translate(476.1927,210.2745)"><path
             d="m 0,0 -6.215,3.546 c 0,0 -5.658,-6.619 -13.375,-5.806 -7.716,0.812 -12.286,6.718 -12.286,6.718 l -23.012,-4.686 v 0 c -1.544,-0.309 -4.36,-1.285 -7.053,-5.132 -3.004,-4.292 -17.243,-23.326 -17.243,-23.326 h -9.973 c -2.749,0 -5.273,-1.519 -6.552,-3.953 -1.702,-3.24 -3.746,-7.575 -3.547,-9.371 0.338,-3.036 -0.248,-11.373 3.824,-13.975 1.292,-0.826 5.913,-3.302 9.498,-3.133 5.29,0.249 11.435,3.004 14.975,5.479 2.998,2.097 9.971,9.343 12.653,12.171 l -0.004,-0.044 1.722,-60.369 60.336,1.718 12.504,92.653 C 16.252,-7.51 0.609,0 0,0"
             style="fill:#ff735d;fill-opacity:1;fill-rule:nonzero;stroke:none"
             id="path649" /></g><g
           id="g651"
           transform="translate(417.6719,194.0985)"><path
             d="M 0,0 C 0.085,0.001 0.243,-7.482 0.352,-16.711 0.461,-25.943 0.48,-33.426 0.394,-33.427 0.309,-33.428 0.151,-25.947 0.042,-16.715 -0.067,-7.485 -0.086,-0.001 0,0"
             style="fill:#1a2e35;fill-opacity:1;fill-rule:nonzero;stroke:none"
             id="path653" /></g><g
           id="g655"
           transform="translate(499.7501,145.2971)"><path
             d="m 0,0 c 0.003,-0.031 -0.512,-0.082 -1.423,-0.256 -0.914,-0.167 -2.216,-0.527 -3.736,-1.189 -1.524,-0.656 -3.23,-1.675 -4.975,-3.005 -1.743,-1.334 -3.51,-2.991 -5.24,-4.846 -1.727,-1.863 -3.301,-3.707 -4.783,-5.343 -1.478,-1.638 -2.865,-3.069 -4.11,-4.187 -1.241,-1.12 -2.314,-1.949 -3.089,-2.472 -0.379,-0.273 -0.696,-0.451 -0.903,-0.584 -0.21,-0.128 -0.322,-0.191 -0.328,-0.182 -0.006,0.009 0.096,0.089 0.294,0.234 0.195,0.149 0.5,0.343 0.867,0.63 0.75,0.551 1.796,1.401 3.011,2.536 1.218,1.132 2.582,2.571 4.046,4.216 1.467,1.643 3.034,3.493 4.768,5.363 1.739,1.864 3.525,3.528 5.294,4.862 1.771,1.33 3.509,2.342 5.061,2.979 1.549,0.644 2.875,0.975 3.801,1.107 0.459,0.091 0.826,0.094 1.07,0.123 C -0.13,0.005 -0.001,0.011 0,0"
             style="fill:#1a2e35;fill-opacity:1;fill-rule:nonzero;stroke:none"
             id="path657" /></g><g
           id="g659"
           transform="translate(501.1153,149.3861)"><path
             d="m 0,0 c 0.008,-0.056 -0.913,-0.183 -2.351,-0.581 -1.436,-0.395 -3.379,-1.12 -5.335,-2.281 -1.953,-1.168 -3.515,-2.531 -4.547,-3.606 -1.035,-1.074 -1.585,-1.824 -1.63,-1.79 -0.017,0.012 0.108,0.208 0.349,0.553 0.237,0.348 0.619,0.825 1.121,1.387 1.001,1.125 2.566,2.537 4.549,3.722 1.985,1.179 3.972,1.882 5.438,2.227 0.733,0.174 1.334,0.282 1.753,0.325 C -0.235,0.005 -0.003,0.021 0,0"
             style="fill:#1a2e35;fill-opacity:1;fill-rule:nonzero;stroke:none"
             id="path661" /></g><g
           id="g663"><g
             id="g665" /><g
             id="g677"><g
               clip-path="url(#clipPath669)"
               opacity="0.300003"
               id="g675"><g
                 transform="translate(388.8193,159.9826)"
                 id="g673"><path
                   d="m 0,0 c 3.193,-0.87 7.03,3.725 9.93,6.601 1.509,1.496 3.078,3.092 3.634,5.143 0.459,1.694 0.159,3.522 -0.502,5.148 -0.661,1.626 -1.128,2.68 -2.123,4.126 0.267,-2.48 0.877,-6.279 0.043,-9.396 C 10.286,9.023 8.639,6.955 6.892,4.993 5.044,2.917 2.857,0.738 0,0"
                   style="fill:#000000;fill-opacity:1;fill-rule:nonzero;stroke:none"
                   id="path671" /></g></g></g></g><g
           id="g679"
           transform="translate(402.474,162.6118)"><path
             d="M 0,0 C -0.06,0.019 0.31,1.053 0.609,2.784 0.765,3.649 0.868,4.691 0.902,5.85 0.917,7.009 0.851,8.285 0.65,9.608 c -0.216,1.321 -0.547,2.555 -0.918,3.654 -0.39,1.091 -0.809,2.052 -1.224,2.826 -0.818,1.555 -1.488,2.424 -1.438,2.461 0.018,0.013 0.191,-0.199 0.491,-0.593 0.154,-0.196 0.334,-0.44 0.518,-0.74 0.188,-0.299 0.418,-0.629 0.622,-1.024 0.444,-0.769 0.89,-1.733 1.3,-2.835 C 0.392,12.248 0.736,10.997 0.956,9.656 1.16,8.313 1.218,7.017 1.188,5.842 1.137,4.667 1.01,3.614 0.825,2.745 0.753,2.306 0.635,1.921 0.549,1.579 0.465,1.237 0.37,0.949 0.284,0.715 0.12,0.247 0.02,-0.007 0,0"
             style="fill:#1a2e35;fill-opacity:1;fill-rule:nonzero;stroke:none"
             id="path681" /></g><g
           id="g683"
           transform="translate(446.8295,212.4004)"><path
             d="m 0,0 c 0.041,-0.081 -0.666,-0.492 -1.406,-1.156 -0.745,-0.659 -1.235,-1.313 -1.311,-1.263 -0.07,0.039 0.323,0.802 1.105,1.494 C -0.834,-0.228 -0.031,0.074 0,0"
             style="fill:#1a2e35;fill-opacity:1;fill-rule:nonzero;stroke:none"
             id="path685" /></g><g
           id="g687"
           transform="translate(453.1082,208.7523)"><path
             d="m 0,0 c 0.065,-0.065 -0.542,-0.717 -1.03,-1.68 -0.499,-0.957 -0.675,-1.831 -0.767,-1.816 -0.078,0.003 -0.034,0.945 0.491,1.958 C -0.789,-0.522 -0.049,0.062 0,0"
             style="fill:#1a2e35;fill-opacity:1;fill-rule:nonzero;stroke:none"
             id="path689" /></g><g
           id="g691"
           transform="translate(463.8581,204.9674)"><path
             d="M 0,0 C -0.087,-0.019 -0.331,0.807 -0.691,1.8 -1.047,2.794 -1.385,3.586 -1.307,3.627 -1.234,3.666 -0.764,2.922 -0.4,1.905 -0.032,0.889 0.081,0.016 0,0"
             style="fill:#1a2e35;fill-opacity:1;fill-rule:nonzero;stroke:none"
             id="path693" /></g><g
           id="g695"
           transform="translate(470.7753,208.2372)"><path
             d="M 0,0 C -0.092,-0.021 -0.328,1.033 -1.009,2.144 -1.677,3.263 -2.501,3.961 -2.44,4.032 -2.401,4.1 -1.449,3.481 -0.744,2.304 -0.029,1.134 0.078,0.003 0,0"
             style="fill:#1a2e35;fill-opacity:1;fill-rule:nonzero;stroke:none"
             id="path697" /></g><g
           id="g699"
           transform="translate(490.6416,188.6876)"><path
             d="m 0,0 c 0.085,-0.011 -0.937,-8.257 -2.281,-18.416 -1.345,-10.162 -2.504,-18.388 -2.589,-18.376 -0.084,0.011 0.937,8.255 2.282,18.417 C -1.244,-8.217 -0.085,0.011 0,0"
             style="fill:#1a2e35;fill-opacity:1;fill-rule:nonzero;stroke:none"
             id="path701" /></g><g
           id="g703"
           transform="translate(400.2245,175.3357)"><path
             d="M 0,0 C 0.021,-0.001 0.014,-0.303 -0.018,-0.852 -0.023,-1.128 -0.072,-1.46 -0.142,-1.845 -0.175,-2.04 -0.21,-2.246 -0.246,-2.462 c -0.046,-0.217 -0.112,-0.442 -0.172,-0.68 -0.223,-0.96 -0.654,-2.055 -1.189,-3.24 -0.583,-1.163 -1.3,-2.408 -2.217,-3.6 -0.929,-1.182 -1.931,-2.216 -2.947,-3.036 -1.036,-0.788 -2.035,-1.429 -2.959,-1.784 -0.228,-0.094 -0.442,-0.193 -0.65,-0.268 -0.212,-0.059 -0.414,-0.115 -0.606,-0.168 -0.185,-0.051 -0.36,-0.099 -0.526,-0.144 -0.163,-0.036 -0.318,-0.043 -0.454,-0.063 -0.548,-0.064 -0.848,-0.089 -0.85,-0.067 -0.015,0.084 1.229,0.106 2.998,0.911 0.894,0.372 1.861,1.02 2.867,1.805 0.988,0.817 1.967,1.839 2.881,3.003 0.904,1.174 1.617,2.396 2.206,3.536 0.541,1.161 0.988,2.233 1.234,3.173 C -0.087,-1.216 -0.07,0.006 0,0"
             style="fill:#1a2e35;fill-opacity:1;fill-rule:nonzero;stroke:none"
             id="path705" /></g><g
           id="g707"><g
             id="g709" /><g
             id="g721"><g
               clip-path="url(#clipPath713)"
               opacity="0.300003"
               id="g719"><g
                 transform="translate(488.7002,106.328)"
                 id="g717"><path
                   d="m 0,0 c 2.558,1.237 3.14,4.556 3.401,7.385 0.765,8.293 1.53,16.586 2.295,24.879 0.359,3.899 0.534,8.35 -2.216,11.137 -2.511,2.546 -6.501,2.699 -10.077,2.688 -22.079,-0.064 -41.577,-0.708 -63.656,-0.772 l 1.125,-38.622 z"
                   style="fill:#000000;fill-opacity:1;fill-rule:nonzero;stroke:none"
                   id="path715" /></g></g></g></g><g
           id="g723"
           transform="translate(408.9317,145.662)"><path
             d="m 0,0 2.351,-44.795 c 0.091,-1.726 1.534,-3.08 3.283,-3.079 l 71.355,-0.125 c 1.753,0.001 3.198,1.362 3.283,3.092 l 2.723,44.034 c 0.09,1.829 -1.211,4.262 -3.063,4.298 L 3.349,3.418 C 1.441,3.455 -0.099,1.884 0,0"
             style="fill:#e1e1e1;fill-opacity:1;fill-rule:nonzero;stroke:none"
             id="path725" /></g><g
           id="g727"
           transform="translate(408.9317,145.662)"><path
             d="m 0,0 c 0,0 -0.005,0.056 -0.008,0.168 -0.009,0.112 0.002,0.278 0.027,0.499 0.063,0.429 0.248,1.105 0.845,1.745 0.297,0.314 0.692,0.618 1.194,0.812 0.496,0.211 1.1,0.257 1.724,0.24 1.258,0.004 2.707,0.009 4.338,0.015 6.535,0.012 15.979,0.029 27.647,0.051 11.675,0.011 25.573,0.023 41.004,0.037 0.964,10e-4 1.935,0.002 2.911,0.002 0.488,0.022 1.045,-0.097 1.475,-0.376 0.442,-0.271 0.801,-0.65 1.089,-1.069 0.567,-0.845 0.903,-1.85 0.896,-2.89 -0.059,-0.998 -0.119,-2.002 -0.178,-3.012 -0.248,-4.031 -0.502,-8.148 -0.76,-12.338 -0.517,-8.381 -1.052,-17.058 -1.601,-25.946 L 80.5,-43.726 c -0.046,-0.559 -0.038,-1.095 -0.137,-1.677 -0.212,-1.149 -1.072,-2.126 -2.152,-2.526 -0.533,-0.213 -1.141,-0.242 -1.675,-0.223 l -1.641,0.003 c -1.092,0.002 -2.18,0.004 -3.265,0.006 -4.337,0.008 -8.611,0.016 -12.81,0.024 -8.399,0.018 -16.5,0.035 -24.218,0.052 -7.717,0.018 -15.051,0.036 -21.914,0.052 -1.716,0.005 -3.402,0.009 -5.058,0.013 -0.414,0.001 -0.826,0.003 -1.236,0.004 -0.409,0.007 -0.815,-0.018 -1.239,0.039 -0.835,0.113 -1.611,0.548 -2.139,1.182 -0.539,0.626 -0.804,1.467 -0.797,2.255 -0.04,0.779 -0.079,1.55 -0.119,2.312 -0.078,1.526 -0.154,3.017 -0.229,4.474 -0.591,11.654 -1.069,21.085 -1.4,27.61 C 0.313,-6.87 0.19,-4.342 0.106,-2.619 0.068,-1.765 0.039,-1.112 0.019,-0.666 0.001,-0.226 0,0 0,0 0,0 0.022,-0.225 0.051,-0.664 0.078,-1.11 0.117,-1.762 0.168,-2.615 c 0.098,-1.723 0.24,-4.251 0.423,-7.505 0.354,-6.524 0.866,-15.953 1.499,-27.604 0.078,-1.457 0.158,-2.949 0.239,-4.474 0.041,-0.762 0.083,-1.533 0.124,-2.312 -0.003,-0.772 0.243,-1.523 0.745,-2.113 0.493,-0.588 1.215,-0.991 1.991,-1.095 0.382,-0.051 0.796,-0.029 1.205,-0.034 0.41,-10e-4 0.822,-10e-4 1.236,-10e-4 1.656,-0.002 3.342,-0.003 5.058,-0.005 6.864,-0.007 14.197,-0.015 21.914,-0.024 7.718,-0.01 15.819,-0.021 24.218,-0.033 4.199,-0.007 8.473,-0.013 12.81,-0.02 1.085,-0.002 2.173,-0.004 3.265,-0.005 l 1.641,-0.003 c 0.559,-0.017 1.068,0.01 1.566,0.204 0.983,0.364 1.766,1.254 1.957,2.296 0.088,0.508 0.087,1.088 0.132,1.634 l 0.103,1.665 c 0.55,8.887 1.088,17.564 1.607,25.945 0.261,4.19 0.517,8.306 0.767,12.338 0.061,1.006 0.121,2.007 0.181,3.003 0.008,0.96 -0.311,1.927 -0.843,2.717 -0.529,0.792 -1.366,1.394 -2.326,1.322 -0.977,0 -1.947,0 -2.912,10e-4 C 61.337,3.293 47.439,3.303 35.765,3.311 24.097,3.331 14.654,3.347 8.119,3.358 6.488,3.363 5.039,3.368 3.781,3.372 3.151,3.393 2.577,3.353 2.086,3.152 1.594,2.967 1.204,2.674 0.91,2.369 0.317,1.748 0.123,1.085 0.05,0.662 -0.017,0.228 0.016,0 0,0"
             style="fill:#1a2e35;fill-opacity:1;fill-rule:nonzero;stroke:none"
             id="path729" /></g><g
           id="g731"
           transform="translate(455.1608,123.8142)"><path
             d="m 0,0 c 0,-2.321 -1.882,-4.203 -4.203,-4.203 -2.321,0 -4.203,1.882 -4.203,4.203 0,2.321 1.882,4.203 4.203,4.203 C -1.882,4.203 0,2.321 0,0"
             style="fill:#ffffff;fill-opacity:1;fill-rule:nonzero;stroke:none"
             id="path733" /></g><g
           id="g735"
           transform="translate(455.1608,123.8142)"><path
             d="M 0,0 C -0.035,-0.002 -0.018,0.374 -0.19,1.011 -0.359,1.636 -0.785,2.551 -1.727,3.254 -2.193,3.597 -2.778,3.887 -3.451,4.002 -4.119,4.112 -4.872,4.088 -5.586,3.813 -6.3,3.555 -6.982,3.067 -7.465,2.394 -7.963,1.73 -8.242,0.879 -8.251,0.001 c 0.008,-0.879 0.288,-1.731 0.785,-2.395 0.484,-0.673 1.165,-1.161 1.88,-1.419 0.714,-0.275 1.467,-0.3 2.135,-0.189 0.673,0.115 1.258,0.405 1.725,0.748 0.941,0.703 1.367,1.618 1.536,2.243 C -0.018,-0.375 -0.035,0.002 0,0 0.011,0 0.016,-0.092 0.018,-0.27 0.022,-0.447 0,-0.711 -0.073,-1.041 c -0.138,-0.651 -0.546,-1.622 -1.52,-2.387 -0.483,-0.373 -1.097,-0.693 -1.811,-0.827 -0.708,-0.129 -1.511,-0.113 -2.279,0.173 -0.768,0.27 -1.503,0.787 -2.027,1.508 -0.538,0.711 -0.843,1.63 -0.851,2.575 0.008,0.944 0.313,1.862 0.851,2.573 0.524,0.721 1.259,1.238 2.027,1.508 0.768,0.286 1.571,0.302 2.279,0.173 C -2.69,4.121 -2.076,3.801 -1.594,3.428 -0.62,2.664 -0.211,1.692 -0.073,1.041 0,0.711 0.022,0.447 0.018,0.27 0.016,0.092 0.011,0 0,0"
             style="fill:#1a2e35;fill-opacity:1;fill-rule:nonzero;stroke:none"
             id="path737" /></g><g
           id="g739"
           transform="translate(411.3352,140.7036)"><path
             d="m 0,0 c 0.085,0.003 0.437,-7.524 0.785,-16.811 0.349,-9.29 0.562,-16.821 0.476,-16.825 -0.085,-0.003 -0.437,7.523 -0.785,16.813 C 0.128,-7.536 -0.086,-0.003 0,0"
             style="fill:#1a2e35;fill-opacity:1;fill-rule:nonzero;stroke:none"
             id="path741" /></g><g
           id="g743"
           transform="translate(389.8882,199.1488)"><path
             d="m 0,0 c -0.417,0.354 1.411,7.388 1.411,7.388 0,0 -4.841,7.899 -4.969,10.446 -0.127,2.548 1.911,7.771 1.911,7.771 l 13.885,3.567 c 0,0 4.461,-8.28 5.352,-11.21 C 18.48,15.032 16.06,5.096 16.06,5.096 L 13.708,0 C 13.708,0 6.615,-5.605 0,0"
             style="fill:#aa655b;fill-opacity:1;fill-rule:nonzero;stroke:none"
             id="path745" /></g><g
           id="g747"
           transform="translate(386.3573,215.4599)"><path
             d="m 0,0 c 0,0 -0.602,1.044 -1.462,3.083 -0.88,2.085 -1.959,4.13 0,5.296 1.152,0.686 2.092,0.33 2.092,0.33 0,0 -0.301,1.755 0.748,2.413 1.048,0.659 2.058,0.179 2.058,0.179 0,0 -0.33,2.475 1.179,3.526 1.893,1.316 3.845,0.109 3.845,0.109 0,0 -1.194,10.835 -1.298,11.41 -0.381,2.107 0.399,3.971 2.495,3.451 0.768,-0.19 1.195,-1 2.096,-4.529 0.901,-3.528 2.348,-9.55 2.348,-9.55 0,0 2.439,-4.238 3.591,-6.536 1.152,-2.299 3.429,-7.531 3.618,-8.918 0.491,-3.584 -1.609,-8.33 -1.609,-8.33 L 4.941,-8.923 c 0,0 -4.379,7.895 -4.941,8.923"
             style="fill:#aa655b;fill-opacity:1;fill-rule:nonzero;stroke:none"
             id="path749" /></g><g
           id="g751"
           transform="translate(387.278,223.7014)"><path
             d="M 0,0 C 0.036,0.023 0.47,-0.588 1.142,-1.594 1.491,-2.125 1.883,-2.722 2.31,-3.37 2.526,-3.706 2.764,-4.062 2.944,-4.48 3.124,-4.89 3.235,-5.393 3.118,-5.887 3.02,-6.372 2.673,-6.844 2.186,-6.98 1.704,-7.131 1.235,-6.987 0.864,-6.818 c -0.379,0.175 -0.699,0.403 -0.986,0.61 -0.291,0.209 -0.556,0.409 -0.796,0.596 -0.478,0.374 -0.851,0.694 -1.101,0.924 -0.249,0.23 -0.378,0.368 -0.364,0.384 0.03,0.035 0.614,-0.433 1.596,-1.132 0.497,-0.332 1.074,-0.796 1.768,-1.121 0.346,-0.152 0.749,-0.255 1.112,-0.134 0.368,0.107 0.634,0.459 0.723,0.872 0.098,0.413 0.01,0.837 -0.152,1.221 -0.161,0.385 -0.385,0.735 -0.595,1.075 -0.406,0.661 -0.78,1.27 -1.112,1.811 C 0.332,-0.676 -0.036,-0.023 0,0"
             style="fill:#814943;fill-opacity:1;fill-rule:nonzero;stroke:none"
             id="path753" /></g><g
           id="g755"
           transform="translate(399.3834,222.4145)"><path
             d="M 0,0 C -0.08,-0.004 -0.154,1.057 0.155,2.319 0.456,3.584 1.006,4.494 1.075,4.454 1.157,4.414 0.747,3.47 0.456,2.247 0.157,1.025 0.091,-0.002 0,0"
             style="fill:#814943;fill-opacity:1;fill-rule:nonzero;stroke:none"
             id="path757" /></g><g
           id="g759"
           transform="translate(405.234,219.2471)"><path
             d="m 0,0 c -1.319,1.344 -3.097,2.178 -4.937,2.577 -1.84,0.4 -3.748,0.387 -5.623,0.216 -1.501,-0.137 -3.216,-0.525 -3.9,-1.868 -0.704,-1.383 0.143,-3.165 1.475,-3.961 1.333,-0.796 2.98,-0.827 4.525,-0.687 1.545,0.141 3.104,0.429 4.637,0.19"
             style="fill:#aa655b;fill-opacity:1;fill-rule:nonzero;stroke:none"
             id="path761" /></g><g
           id="g763"
           transform="translate(401.4109,215.7139)"><path
             d="m 0,0 c -0.004,-0.026 -0.416,0.039 -1.165,0.031 -0.75,-0.001 -1.824,-0.137 -3.163,-0.301 -0.67,-0.074 -1.414,-0.136 -2.216,-0.093 -0.797,0.045 -1.67,0.194 -2.486,0.624 -0.82,0.423 -1.522,1.187 -1.848,2.149 -0.167,0.477 -0.211,1.014 -0.104,1.536 0.122,0.517 0.405,1.008 0.814,1.364 0.824,0.728 1.879,0.961 2.837,1.102 0.974,0.118 1.907,0.166 2.805,0.169 1.791,0.007 3.41,-0.258 4.692,-0.71 C 1.452,5.425 2.395,4.827 2.982,4.351 3.278,4.115 3.49,3.91 3.628,3.767 3.764,3.621 3.831,3.541 3.823,3.533 3.802,3.512 3.515,3.816 2.909,4.255 2.308,4.695 1.366,5.252 0.096,5.663 -1.169,6.08 -2.758,6.318 -4.525,6.296 -5.406,6.285 -6.341,6.23 -7.289,6.111 -8.222,5.973 -9.226,5.735 -9.96,5.081 -10.327,4.762 -10.572,4.33 -10.681,3.879 c -0.094,-0.458 -0.06,-0.938 0.092,-1.374 0.293,-0.88 0.937,-1.595 1.693,-1.992 0.761,-0.41 1.594,-0.565 2.368,-0.62 0.779,-0.052 1.511,-0.005 2.178,0.055 1.334,0.135 2.429,0.24 3.187,0.203 0.378,-0.013 0.67,-0.05 0.867,-0.08 C -0.1,0.035 0.002,0.01 0,0"
             style="fill:#814943;fill-opacity:1;fill-rule:nonzero;stroke:none"
             id="path765" /></g><g
           id="g767"
           transform="translate(387.3853,223.5325)"><path
             d="M 0,0 C 1.553,-2.358 2.924,-4.951 4.233,-7.452 4.613,-8.18 5.016,-8.95 5.716,-9.381 6.276,-9.726 7.665,-9.1 8.287,-8.887 L 4.023,0.816"
             style="fill:#aa655b;fill-opacity:1;fill-rule:nonzero;stroke:none"
             id="path769" /></g><g
           id="g771"
           transform="translate(391.408,224.3486)"><path
             d="M 0,0 C 0.018,0.008 0.151,-0.248 0.379,-0.723 0.623,-1.248 0.94,-1.93 1.323,-2.755 2.113,-4.484 3.196,-6.903 4.405,-9.641 L 4.471,-9.792 4.314,-9.848 C 3.853,-10.012 3.359,-10.22 2.826,-10.354 2.615,-10.405 2.4,-10.446 2.174,-10.451 c -0.113,-0.002 -0.23,0.002 -0.35,0.037 -0.121,0.026 -0.241,0.102 -0.321,0.158 -0.36,0.249 -0.635,0.58 -0.859,0.918 -0.438,0.688 -0.747,1.379 -1.094,2.02 -0.67,1.29 -1.284,2.446 -1.816,3.407 -0.531,0.962 -0.98,1.729 -1.291,2.259 -0.311,0.53 -0.485,0.823 -0.466,0.836 0.016,0.011 0.224,-0.26 0.568,-0.772 0.343,-0.511 0.822,-1.264 1.379,-2.215 0.558,-0.95 1.194,-2.097 1.878,-3.382 0.352,-0.634 0.678,-1.339 1.095,-1.984 0.213,-0.319 0.466,-0.617 0.781,-0.834 0.268,-0.218 0.683,-0.138 1.073,-0.05 0.505,0.126 0.984,0.326 1.463,0.496 l -0.09,-0.207 c -1.2,2.742 -2.249,5.175 -2.989,6.926 -0.349,0.841 -0.637,1.535 -0.859,2.07 C 0.081,-0.279 -0.018,-0.008 0,0"
             style="fill:#814943;fill-opacity:1;fill-rule:nonzero;stroke:none"
             id="path773" /></g><g
           id="g775"
           transform="translate(390.2586,227.2313)"><path
             d="m 0,0 c 1.371,-3.437 2.741,-6.875 4.112,-10.312 0.291,-0.73 0.591,-1.475 1.105,-2.068 0.515,-0.594 1.294,-1.018 2.071,-0.902 1.071,0.159 1.771,1.296 1.826,2.378 0.054,1.081 -0.374,2.121 -0.77,3.129 -1.23,3.134 -2.217,6.364 -2.949,9.651"
             style="fill:#aa655b;fill-opacity:1;fill-rule:nonzero;stroke:none"
             id="path777" /></g><g
           id="g779"
           transform="translate(395.6541,229.1068)"><path
             d="M 0,0 C 0.01,0.002 0.046,-0.106 0.104,-0.314 0.168,-0.556 0.249,-0.857 0.347,-1.225 0.56,-2.016 0.87,-3.16 1.304,-4.557 c 0.434,-1.397 0.994,-3.048 1.702,-4.847 0.344,-0.896 0.788,-1.85 0.862,-2.95 0.039,-0.543 -0.056,-1.126 -0.311,-1.638 -0.25,-0.509 -0.663,-0.986 -1.236,-1.21 -0.574,-0.23 -1.223,-0.132 -1.727,0.14 -0.514,0.265 -0.921,0.686 -1.214,1.143 -0.583,0.929 -0.867,1.912 -1.244,2.802 -0.702,1.795 -1.337,3.417 -1.876,4.795 -0.512,1.338 -0.932,2.435 -1.24,3.242 -0.13,0.359 -0.237,0.652 -0.323,0.887 -0.07,0.205 -0.102,0.314 -0.092,0.317 0.009,0.005 0.061,-0.097 0.15,-0.293 0.1,-0.23 0.225,-0.517 0.377,-0.866 0.331,-0.798 0.782,-1.883 1.331,-3.206 0.557,-1.37 1.213,-2.984 1.938,-4.77 0.383,-0.887 0.684,-1.881 1.233,-2.741 0.276,-0.427 0.643,-0.8 1.101,-1.037 0.451,-0.239 0.996,-0.315 1.473,-0.125 0.479,0.186 0.846,0.599 1.072,1.058 0.231,0.466 0.319,0.976 0.284,1.485 C 3.503,-11.35 3.081,-10.412 2.74,-9.507 2.044,-7.695 1.503,-6.03 1.094,-4.62 0.685,-3.21 0.407,-2.055 0.23,-1.254 0.144,-0.853 0.08,-0.541 0.043,-0.328 0.005,-0.115 -0.01,-0.002 0,0"
             style="fill:#814943;fill-opacity:1;fill-rule:nonzero;stroke:none"
             id="path781" /></g><g
           id="g783"
           transform="translate(390.5893,203.0545)"><path
             d="m 0,0 c 0,0 -9.416,-27.754 -9.788,-29.116 -0.372,-1.363 1.858,-11.275 5.947,-13.629 4.089,-2.354 12.018,7.434 13.01,11.027 0.991,3.593 0,9.664 0,9.664 L 15.516,1.86"
             style="fill:#aa655b;fill-opacity:1;fill-rule:nonzero;stroke:none"
             id="path785" /></g><g
           id="g787"
           transform="translate(399.7582,207.3684)"><path
             d="m 0,0 c -0.004,-0.035 -0.351,-0.039 -0.886,0.116 -0.533,0.153 -1.241,0.5 -1.873,1.077 -0.63,0.58 -1.037,1.256 -1.235,1.773 -0.201,0.52 -0.227,0.866 -0.193,0.873 C -4.097,3.876 -3.77,2.518 -2.55,1.422 -1.352,0.301 0.029,0.092 0,0"
             style="fill:#814943;fill-opacity:1;fill-rule:nonzero;stroke:none"
             id="path789" /></g></g></g></g></svg>
