<?xml version="1.0" encoding="UTF-8" standalone="no"?>
<!-- Created with Inkscape (http://www.inkscape.org/) -->

<svg
   version="1.1"
   id="svg179"
   xml:space="preserve"
   width="666.66669"
   height="666.66669"
   viewBox="0 0 666.66669 666.66669"
   sodipodi:docname="Newspaper.svg"
   inkscape:version="1.1.2 (b8e25be833, 2022-02-05)"
   xmlns:inkscape="http://www.inkscape.org/namespaces/inkscape"
   xmlns:sodipodi="http://sodipodi.sourceforge.net/DTD/sodipodi-0.dtd"
   xmlns="http://www.w3.org/2000/svg"
   xmlns:svg="http://www.w3.org/2000/svg"><defs
     id="defs183"><clipPath
       clipPathUnits="userSpaceOnUse"
       id="clipPath195"><path
         d="M 0,500 H 500 V 0 H 0 Z"
         id="path193" /></clipPath><clipPath
       clipPathUnits="userSpaceOnUse"
       id="clipPath207"><path
         d="M 94.2849,438.984 H 409.029 V 135.802 H 94.2849 Z"
         id="path205" /></clipPath><clipPath
       clipPathUnits="userSpaceOnUse"
       id="clipPath223"><path
         d="M 380.951,365.83 H 428.46 V 332.513 H 380.951 Z"
         id="path221" /></clipPath><clipPath
       clipPathUnits="userSpaceOnUse"
       id="clipPath239"><path
         d="M 67.0528,269.503 H 113.756 V 230.382 H 67.0528 Z"
         id="path237" /></clipPath><clipPath
       clipPathUnits="userSpaceOnUse"
       id="clipPath261"><path
         d="M 0,500 H 500 V 0 H 0 Z"
         id="path259" /></clipPath><clipPath
       clipPathUnits="userSpaceOnUse"
       id="clipPath431"><path
         d="M 182.643,363.979 H 305.279 V 135.882 H 182.643 Z"
         id="path429" /></clipPath><clipPath
       clipPathUnits="userSpaceOnUse"
       id="clipPath471"><path
         d="M 0,500 H 500 V 0 H 0 Z"
         id="path469" /></clipPath><clipPath
       clipPathUnits="userSpaceOnUse"
       id="clipPath521"><path
         d="M 245.894,274.763 H 290.9 V 165.01 h -45.006 z"
         id="path519" /></clipPath><clipPath
       clipPathUnits="userSpaceOnUse"
       id="clipPath537"><path
         d="M 245.893,351.285 H 396.676 V 165.01 H 245.893 Z"
         id="path535" /></clipPath><clipPath
       clipPathUnits="userSpaceOnUse"
       id="clipPath593"><path
         d="M 0,500 H 500 V 0 H 0 Z"
         id="path591" /></clipPath><clipPath
       clipPathUnits="userSpaceOnUse"
       id="clipPath663"><path
         d="m 195.21,261.441 h 85.176 V 107.025 H 195.21 Z"
         id="path661" /></clipPath><clipPath
       clipPathUnits="userSpaceOnUse"
       id="clipPath687"><path
         d="m 266.943,182.525 h 13.443 v -33.317 h -13.443 z"
         id="path685" /></clipPath><clipPath
       clipPathUnits="userSpaceOnUse"
       id="clipPath703"><path
         d="M 87.2849,269.469 H 113.756 V 230.407 H 87.2849 Z"
         id="path701" /></clipPath><clipPath
       clipPathUnits="userSpaceOnUse"
       id="clipPath735"><path
         d="m 380.95,357.985 h 21.069 V 332.513 H 380.95 Z"
         id="path733" /></clipPath><clipPath
       clipPathUnits="userSpaceOnUse"
       id="clipPath807"><path
         d="M 0,500 H 500 V 0 H 0 Z"
         id="path805" /></clipPath></defs><sodipodi:namedview
     id="namedview181"
     pagecolor="#ffffff"
     bordercolor="#666666"
     borderopacity="1.0"
     inkscape:pageshadow="2"
     inkscape:pageopacity="0.0"
     inkscape:pagecheckerboard="0"
     showgrid="false"
     inkscape:zoom="0.77849997"
     inkscape:cx="207.45023"
     inkscape:cy="258.18883"
     inkscape:window-width="1366"
     inkscape:window-height="705"
     inkscape:window-x="-8"
     inkscape:window-y="-8"
     inkscape:window-maximized="1"
     inkscape:current-layer="g197" /><g
     id="g185"
     inkscape:groupmode="layer"
     inkscape:label="2661125"
     transform="matrix(1.3333333,0,0,-1.3333333,0,666.66667)"><g
       id="g1331"><g
         id="g197"
         transform="translate(250,413.6309)"><path
           d="m 0,0 c -104.14,0 -188.562,-84.422 -188.562,-188.562 0,-32 7.983,-62.134 22.049,-88.534 h 333.027 c 14.065,26.4 22.048,56.534 22.048,88.534 C 188.562,-84.422 104.14,0 0,0"
           style="fill:#ecf1f7;fill-opacity:1;fill-rule:nonzero;stroke:none"
           id="path199" /></g><g
         id="g201"><g
           id="g203" /><g
           id="g215"><g
             clip-path="url(#clipPath207)"
             id="g213"><g
               transform="translate(409.0254,159.9229)"
               id="g211"><path
                 d="m 0,0 -0.008,192.785 c 0,2.906 -2.379,5.282 -5.283,5.282 l -91.456,-0.004 v 5.908 75.09 H -314.74 V -24.111 h 205.302 l 12.691,-0.01 v 0.01 0.94 l 91.466,0.005 c 2.906,0 5.285,2.375 5.285,5.281 z"
                 style="fill:#ffc1ac;fill-opacity:1;fill-rule:nonzero;stroke:none"
                 id="path209" /></g></g></g></g><g
         id="g217"><g
           id="g219" /><g
           id="g231"><g
             clip-path="url(#clipPath223)"
             id="g229"><g
               transform="translate(424.415,365.8301)"
               id="g227"><path
                 d="m 0,0 h -39.42 c -2.234,0 -4.045,-1.811 -4.045,-4.044 v -18.37 c 0,-2.233 1.811,-4.044 4.045,-4.044 h 4.373 c 0.125,-1.642 0.061,-4.574 -1.558,-6.859 0,0 10.576,0.983 13.346,6.859 H 0 c 2.234,0 4.045,1.811 4.045,4.044 v 18.37 C 4.045,-1.811 2.234,0 0,0"
                 style="fill:#ffc1ac;fill-opacity:1;fill-rule:nonzero;stroke:none"
                 id="path225" /></g></g></g></g><g
         id="g233"><g
           id="g235" /><g
           id="g247"><g
             clip-path="url(#clipPath239)"
             id="g245"><g
               transform="translate(113.7559,233.3486)"
               id="g243"><path
                 d="m 0,0 c -12.104,-4.026 -16.354,0.279 -16.354,0.279 -3.092,-2.05 -6.8,-3.246 -10.789,-3.246 -10.802,0 -19.56,8.758 -19.56,19.561 0,10.802 8.758,19.56 19.56,19.56 10.803,0 19.561,-8.758 19.561,-19.56 0,-3.101 -0.725,-6.031 -2.009,-8.637 0,0 1.678,-6.47 9.591,-7.957"
                 style="fill:#ffc1ac;fill-opacity:1;fill-rule:nonzero;stroke:none"
                 id="path241" /></g></g></g></g><path
         d="M 305.279,135.892 H 87.285 v 303.087 h 217.994 z"
         style="fill:#ffffff;fill-opacity:1;fill-rule:nonzero;stroke:#1f2f6d;stroke-width:1;stroke-linecap:round;stroke-linejoin:round;stroke-miterlimit:10;stroke-dasharray:none;stroke-opacity:1"
         id="path249" /><text
         transform="matrix(1,0,0,-1,122.875,404.7954)"
         style="font-variant:normal;font-weight:normal;font-stretch:normal;font-size:24.7249px;font-family:Andada;-inkscape-font-specification:Andada-Regular;writing-mode:lr-tb;fill:#1f2f6d;fill-opacity:1;fill-rule:nonzero;stroke:none"
         id="text253"><tspan
           x="0 17.084906 33.502239 42.477379 53.455235 69.847839 75.386223 94.201866 108.74011 132.99277"
           y="0"
           sodipodi:role="line"
           id="tspan251">DAILY NEWS</tspan></text><g
         id="g255"><g
           id="g257"
           clip-path="url(#clipPath261)"><path
             d="m 238.448,375.829 h -49.106 v -3.716 h 49.106 z"
             style="fill:#dee1ef;fill-opacity:1;fill-rule:nonzero;stroke:none"
             id="path263" /><path
             d="m 238.448,370.255 h -49.106 v -3.716 h 49.106 z"
             style="fill:#dee1ef;fill-opacity:1;fill-rule:nonzero;stroke:none"
             id="path265" /><path
             d="m 238.448,364.682 h -49.106 v -3.716 h 49.106 z"
             style="fill:#dee1ef;fill-opacity:1;fill-rule:nonzero;stroke:none"
             id="path267" /><path
             d="m 238.448,359.108 h -49.106 v -3.716 h 49.106 z"
             style="fill:#dee1ef;fill-opacity:1;fill-rule:nonzero;stroke:none"
             id="path269" /><path
             d="m 238.448,353.534 h -49.106 v -3.715 h 49.106 z"
             style="fill:#dee1ef;fill-opacity:1;fill-rule:nonzero;stroke:none"
             id="path271" /><path
             d="m 218.973,347.961 h -29.631 v -3.716 h 29.631 z"
             style="fill:#dee1ef;fill-opacity:1;fill-rule:nonzero;stroke:none"
             id="path273" /><path
             d="m 238.448,342.388 h -49.106 v -3.716 h 49.106 z"
             style="fill:#dee1ef;fill-opacity:1;fill-rule:nonzero;stroke:none"
             id="path275" /><path
             d="m 238.448,336.815 h -49.106 v -3.717 h 49.106 z"
             style="fill:#dee1ef;fill-opacity:1;fill-rule:nonzero;stroke:none"
             id="path277" /><path
             d="m 238.448,331.241 h -49.106 v -3.715 h 49.106 z"
             style="fill:#dee1ef;fill-opacity:1;fill-rule:nonzero;stroke:none"
             id="path279" /><path
             d="m 238.448,325.667 h -49.106 v -3.716 h 49.106 z"
             style="fill:#dee1ef;fill-opacity:1;fill-rule:nonzero;stroke:none"
             id="path281" /><path
             d="m 238.448,320.094 h -49.106 v -3.715 h 49.106 z"
             style="fill:#dee1ef;fill-opacity:1;fill-rule:nonzero;stroke:none"
             id="path283" /><path
             d="m 238.448,314.521 h -49.106 v -3.715 h 49.106 z"
             style="fill:#dee1ef;fill-opacity:1;fill-rule:nonzero;stroke:none"
             id="path285" /><path
             d="m 209.235,309.024 h -19.894 v -3.715 h 19.894 z"
             style="fill:#dee1ef;fill-opacity:1;fill-rule:nonzero;stroke:none"
             id="path287" /><path
             d="m 238.448,381.363 h -49.106 v -3.716 h 49.106 z"
             style="fill:#dee1ef;fill-opacity:1;fill-rule:nonzero;stroke:none"
             id="path289" /><path
             d="m 238.448,386.897 h -49.106 v -3.716 h 49.106 z"
             style="fill:#dee1ef;fill-opacity:1;fill-rule:nonzero;stroke:none"
             id="path291" /><path
             d="m 292.602,375.829 h -49.11 v -3.716 h 49.11 z"
             style="fill:#dee1ef;fill-opacity:1;fill-rule:nonzero;stroke:none"
             id="path293" /><path
             d="m 292.602,381.363 h -49.11 v -3.716 h 49.11 z"
             style="fill:#dee1ef;fill-opacity:1;fill-rule:nonzero;stroke:none"
             id="path295" /><path
             d="m 292.602,386.897 h -49.11 v -3.716 h 49.11 z"
             style="fill:#dee1ef;fill-opacity:1;fill-rule:nonzero;stroke:none"
             id="path297" /><path
             d="m 292.602,370.255 h -49.11 v -3.716 h 49.11 z"
             style="fill:#dee1ef;fill-opacity:1;fill-rule:nonzero;stroke:none"
             id="path299" /><path
             d="m 292.602,364.682 h -49.11 v -3.716 h 49.11 z"
             style="fill:#dee1ef;fill-opacity:1;fill-rule:nonzero;stroke:none"
             id="path301" /><path
             d="m 292.602,359.108 h -49.11 v -3.716 h 49.11 z"
             style="fill:#dee1ef;fill-opacity:1;fill-rule:nonzero;stroke:none"
             id="path303" /><path
             d="m 292.602,353.534 h -49.11 v -3.715 h 49.11 z"
             style="fill:#dee1ef;fill-opacity:1;fill-rule:nonzero;stroke:none"
             id="path305" /><path
             d="m 292.602,347.961 h -49.11 v -3.716 h 49.11 z"
             style="fill:#dee1ef;fill-opacity:1;fill-rule:nonzero;stroke:none"
             id="path307" /><path
             d="m 292.602,342.388 h -49.11 v -3.716 h 49.11 z"
             style="fill:#dee1ef;fill-opacity:1;fill-rule:nonzero;stroke:none"
             id="path309" /><path
             d="m 282.863,336.815 h -39.372 v -3.717 h 39.372 z"
             style="fill:#dee1ef;fill-opacity:1;fill-rule:nonzero;stroke:none"
             id="path311" /><path
             d="m 292.602,331.241 h -49.11 v -3.715 h 49.11 z"
             style="fill:#dee1ef;fill-opacity:1;fill-rule:nonzero;stroke:none"
             id="path313" /><path
             d="m 292.602,325.667 h -49.11 v -3.716 h 49.11 z"
             style="fill:#dee1ef;fill-opacity:1;fill-rule:nonzero;stroke:none"
             id="path315" /><path
             d="m 292.602,320.094 h -49.11 v -3.715 h 49.11 z"
             style="fill:#dee1ef;fill-opacity:1;fill-rule:nonzero;stroke:none"
             id="path317" /><path
             d="m 292.602,314.521 h -49.11 v -3.715 h 49.11 z"
             style="fill:#dee1ef;fill-opacity:1;fill-rule:nonzero;stroke:none"
             id="path319" /><path
             d="m 273.126,309.024 h -29.635 v -3.715 h 29.635 z"
             style="fill:#dee1ef;fill-opacity:1;fill-rule:nonzero;stroke:none"
             id="path321" /><path
             d="M 292.602,271.525 H 99.396 v 3.238 h 193.206 z"
             style="fill:#dee1ef;fill-opacity:1;fill-rule:nonzero;stroke:none"
             id="path323" /><path
             d="M 292.602,299.589 H 230.278 V 280.16 h 62.324 z"
             style="fill:#4dc7b8;fill-opacity:1;fill-rule:nonzero;stroke:none"
             id="path325" /><path
             d="M 226.879,299.589 H 99.396 V 280.16 h 127.483 z"
             style="fill:#4dc7b8;fill-opacity:1;fill-rule:nonzero;stroke:none"
             id="path327" /><path
             d="m 226.701,203.227 h -60.787 v -4.534 h 60.787 z"
             style="fill:#dee1ef;fill-opacity:1;fill-rule:nonzero;stroke:none"
             id="path329" /><path
             d="m 226.701,196.425 h -60.787 v -4.534 h 60.787 z"
             style="fill:#dee1ef;fill-opacity:1;fill-rule:nonzero;stroke:none"
             id="path331" /><path
             d="m 226.701,189.624 h -60.787 v -4.534 h 60.787 z"
             style="fill:#dee1ef;fill-opacity:1;fill-rule:nonzero;stroke:none"
             id="path333" /><path
             d="m 226.701,182.822 h -60.787 v -4.533 h 60.787 z"
             style="fill:#dee1ef;fill-opacity:1;fill-rule:nonzero;stroke:none"
             id="path335" /><path
             d="m 226.701,176.021 h -60.787 v -4.534 h 60.787 z"
             style="fill:#dee1ef;fill-opacity:1;fill-rule:nonzero;stroke:none"
             id="path337" /><path
             d="m 226.701,169.219 h -60.787 v -4.532 h 60.787 z"
             style="fill:#dee1ef;fill-opacity:1;fill-rule:nonzero;stroke:none"
             id="path339" /><path
             d="m 226.701,162.418 h -60.787 v -4.532 h 60.787 z"
             style="fill:#dee1ef;fill-opacity:1;fill-rule:nonzero;stroke:none"
             id="path341" /><path
             d="m 226.701,155.618 h -60.787 v -4.535 h 60.787 z"
             style="fill:#dee1ef;fill-opacity:1;fill-rule:nonzero;stroke:none"
             id="path343" /><path
             d="m 188.843,148.817 h -22.929 v -4.536 h 22.929 z"
             style="fill:#dee1ef;fill-opacity:1;fill-rule:nonzero;stroke:none"
             id="path345" /><path
             d="m 291.89,203.227 h -61.755 v -4.534 h 61.755 z"
             style="fill:#dee1ef;fill-opacity:1;fill-rule:nonzero;stroke:none"
             id="path347" /><path
             d="m 291.89,196.425 h -61.755 v -4.534 h 61.755 z"
             style="fill:#dee1ef;fill-opacity:1;fill-rule:nonzero;stroke:none"
             id="path349" /><path
             d="M 291.89,189.624 H 230.135 V 185.09 H 291.89 Z"
             style="fill:#dee1ef;fill-opacity:1;fill-rule:nonzero;stroke:none"
             id="path351" /><path
             d="m 291.89,182.822 h -61.755 v -4.533 h 61.755 z"
             style="fill:#dee1ef;fill-opacity:1;fill-rule:nonzero;stroke:none"
             id="path353" /><path
             d="m 291.89,176.021 h -61.755 v -4.534 h 61.755 z"
             style="fill:#dee1ef;fill-opacity:1;fill-rule:nonzero;stroke:none"
             id="path355" /><path
             d="m 291.89,169.219 h -61.755 v -4.532 h 61.755 z"
             style="fill:#dee1ef;fill-opacity:1;fill-rule:nonzero;stroke:none"
             id="path357" /><path
             d="m 291.89,162.418 h -61.755 v -4.532 h 61.755 z"
             style="fill:#dee1ef;fill-opacity:1;fill-rule:nonzero;stroke:none"
             id="path359" /><path
             d="m 291.89,155.618 h -61.755 v -4.535 h 61.755 z"
             style="fill:#dee1ef;fill-opacity:1;fill-rule:nonzero;stroke:none"
             id="path361" /><path
             d="m 270.106,148.817 h -39.972 v -4.536 h 39.972 z"
             style="fill:#dee1ef;fill-opacity:1;fill-rule:nonzero;stroke:none"
             id="path363" /><g
             id="g365"
             transform="translate(99.3955,426.897)"><path
               d="M 0,0 H 193.206"
               style="fill:none;stroke:#1f2f6d;stroke-width:1;stroke-linecap:round;stroke-linejoin:round;stroke-miterlimit:10;stroke-dasharray:none;stroke-opacity:1"
               id="path367" /></g><g
             id="g369"
             transform="translate(99.3955,430.6968)"><path
               d="M 0,0 H 193.206"
               style="fill:none;stroke:#1f2f6d;stroke-width:1;stroke-linecap:round;stroke-linejoin:round;stroke-miterlimit:10;stroke-dasharray:none;stroke-opacity:1"
               id="path371" /></g><g
             id="g373"
             transform="translate(99.3955,400.5581)"><path
               d="M 0,0 H 193.206"
               style="fill:none;stroke:#1f2f6d;stroke-width:1;stroke-linecap:round;stroke-linejoin:round;stroke-miterlimit:10;stroke-dasharray:none;stroke-opacity:1"
               id="path375" /></g><g
             id="g377"
             transform="translate(99.3955,396.4927)"><path
               d="M 0,0 H 193.206"
               style="fill:none;stroke:#1f2f6d;stroke-width:1;stroke-linecap:round;stroke-linejoin:round;stroke-miterlimit:10;stroke-dasharray:none;stroke-opacity:1"
               id="path379" /></g><path
             d="m 292.602,409.766 h -17.127 v -4.765 h 17.127 z"
             style="fill:#dee1ef;fill-opacity:1;fill-rule:nonzero;stroke:none"
             id="path381" /><path
             d="M 182.358,304.038 H 99.395 v 82.859 h 82.963 z"
             style="fill:#fce001;fill-opacity:1;fill-rule:nonzero;stroke:none"
             id="path383" /><path
             d="M 161.925,203.227 H 99.602 v -58.945 h 62.323 z"
             style="fill:#7a90eb;fill-opacity:1;fill-rule:nonzero;stroke:none"
             id="path385" /><path
             d="m 229.565,267.448 h 62.324 v -58.944 h -62.324 z"
             style="fill:#7a90eb;fill-opacity:1;fill-rule:nonzero;stroke:none"
             id="path387" /><path
             d="m 164.789,267.448 h 60.787 v -4.534 h -60.787 z"
             style="fill:#dee1ef;fill-opacity:1;fill-rule:nonzero;stroke:none"
             id="path389" /><path
             d="m 164.789,260.646 h 60.787 v -4.535 h -60.787 z"
             style="fill:#dee1ef;fill-opacity:1;fill-rule:nonzero;stroke:none"
             id="path391" /><path
             d="m 164.789,253.845 h 60.787 v -4.533 h -60.787 z"
             style="fill:#dee1ef;fill-opacity:1;fill-rule:nonzero;stroke:none"
             id="path393" /><path
             d="m 164.789,247.044 h 60.787 v -4.533 h -60.787 z"
             style="fill:#dee1ef;fill-opacity:1;fill-rule:nonzero;stroke:none"
             id="path395" /><path
             d="m 164.789,240.244 h 60.787 v -4.536 h -60.787 z"
             style="fill:#dee1ef;fill-opacity:1;fill-rule:nonzero;stroke:none"
             id="path397" /><path
             d="m 164.789,233.441 h 60.787 v -4.533 h -60.787 z"
             style="fill:#dee1ef;fill-opacity:1;fill-rule:nonzero;stroke:none"
             id="path399" /><path
             d="m 164.789,226.64 h 60.787 v -4.533 h -60.787 z"
             style="fill:#dee1ef;fill-opacity:1;fill-rule:nonzero;stroke:none"
             id="path401" /><path
             d="m 164.789,219.84 h 60.787 v -4.535 h -60.787 z"
             style="fill:#dee1ef;fill-opacity:1;fill-rule:nonzero;stroke:none"
             id="path403" /><path
             d="m 164.789,213.039 h 33.109 v -4.535 h -33.109 z"
             style="fill:#dee1ef;fill-opacity:1;fill-rule:nonzero;stroke:none"
             id="path405" /><path
             d="m 99.602,267.448 h 61.755 v -4.534 H 99.602 Z"
             style="fill:#dee1ef;fill-opacity:1;fill-rule:nonzero;stroke:none"
             id="path407" /><path
             d="m 99.602,260.646 h 61.755 v -4.535 H 99.602 Z"
             style="fill:#dee1ef;fill-opacity:1;fill-rule:nonzero;stroke:none"
             id="path409" /><path
             d="m 99.602,253.845 h 61.755 v -4.533 H 99.602 Z"
             style="fill:#dee1ef;fill-opacity:1;fill-rule:nonzero;stroke:none"
             id="path411" /><path
             d="m 99.602,247.044 h 61.755 v -4.533 H 99.602 Z"
             style="fill:#dee1ef;fill-opacity:1;fill-rule:nonzero;stroke:none"
             id="path413" /><path
             d="m 99.602,240.244 h 61.755 v -4.536 H 99.602 Z"
             style="fill:#dee1ef;fill-opacity:1;fill-rule:nonzero;stroke:none"
             id="path415" /><path
             d="m 99.602,233.441 h 61.755 v -4.533 H 99.602 Z"
             style="fill:#dee1ef;fill-opacity:1;fill-rule:nonzero;stroke:none"
             id="path417" /><path
             d="m 99.602,226.64 h 61.755 v -4.533 H 99.602 Z"
             style="fill:#dee1ef;fill-opacity:1;fill-rule:nonzero;stroke:none"
             id="path419" /><path
             d="m 99.602,219.84 h 61.755 v -4.535 H 99.602 Z"
             style="fill:#dee1ef;fill-opacity:1;fill-rule:nonzero;stroke:none"
             id="path421" /><path
             d="m 99.602,213.039 h 30.719 v -4.535 H 99.602 Z"
             style="fill:#dee1ef;fill-opacity:1;fill-rule:nonzero;stroke:none"
             id="path423" /><g
             id="g425"><g
               id="g427" /><g
               id="g439"><g
                 clip-path="url(#clipPath431)"
                 id="g437"><g
                   transform="translate(305.2793,363.8887)"
                   id="g435"><path
                     d="m 0,0 -62.206,0.09 c -4.565,0 -8.279,-3.716 -8.279,-8.284 l 0.003,-81.687 h -36.608 c -8.572,0 -15.546,-6.973 -15.546,-15.546 V -227.914 L 0,-228.007 Z"
                     style="fill:#dee1ef;fill-opacity:1;fill-rule:nonzero;stroke:none"
                     id="path433" /></g></g></g></g><g
             id="g441"
             transform="translate(240.7939,352.6943)"><path
               d="M 0,0 C 0,2.905 2.375,5.285 5.279,5.285 L 155.94,5.291 c 2.905,0 5.284,-2.376 5.284,-5.283 l 0.007,-192.784 H 0.008 Z"
               style="fill:#1f2f6d;fill-opacity:1;fill-rule:nonzero;stroke:none"
               id="path443" /></g><g
             id="g445"
             transform="translate(245.8994,169.8145)"><path
               d="m 0,0 c 0,-2.643 2.162,-4.805 4.808,-4.805 l 141.165,0.006 c 2.644,0 4.807,2.161 4.807,4.807 l -0.009,176.658 c 0,2.643 -2.164,4.805 -4.806,4.805 L 4.796,181.465 c -2.641,0 -4.806,-2.162 -4.806,-4.804 z"
               style="fill:#ffffff;fill-opacity:1;fill-rule:nonzero;stroke:none"
               id="path447" /></g><g
             id="g449"
             transform="translate(396.6699,346.4805)"><path
               d="M 0,0 C 0,2.643 -2.163,4.805 -4.806,4.805 L -145.975,4.799 c -2.64,0 -4.805,-2.162 -4.805,-4.804 l 0.002,-23.111 H 0.001 Z"
               style="fill:#ff6666;fill-opacity:1;fill-rule:nonzero;stroke:none"
               id="path451" /></g><g
             id="g453"
             transform="translate(396.7441,136.8369)"><path
               d="m 0,0 -150.655,-0.009 c -2.907,0 -5.286,2.376 -5.286,5.282 l -0.001,17.808 H 5.281 L 5.285,5.28 C 5.285,2.375 2.906,0 0,0"
               style="fill:#a1b3ff;fill-opacity:1;fill-rule:nonzero;stroke:none"
               id="path455" /></g><g
             id="g457"
             transform="translate(313.7637,149.208)"><path
               d="m 0,0 c 0,-4.227 3.425,-7.651 7.651,-7.651 4.226,0 7.652,3.424 7.652,7.651 0,4.228 -3.426,7.651 -7.652,7.651 C 3.425,7.651 0,4.228 0,0"
               style="fill:#1f2f6d;fill-opacity:1;fill-rule:nonzero;stroke:none"
               id="path459" /></g></g></g><text
         transform="matrix(1,0,0,-1,285.0791,328.959)"
         style="font-variant:normal;font-weight:bold;font-stretch:normal;font-size:25.047px;font-family:'Open Sans';-inkscape-font-specification:OpenSans-Bold;writing-mode:lr-tb;fill:#ffffff;fill-opacity:1;fill-rule:nonzero;stroke:none"
         id="text463"><tspan
           x="0 20.363211 34.38953 58.609982"
           y="0"
           sodipodi:role="line"
           id="tspan461">NEWS</tspan></text><g
         id="g465"><g
           id="g467"
           clip-path="url(#clipPath471)"><path
             d="M 389.665,235.173 H 339.97 v 49.168 h 49.695 z"
             style="fill:#ffc773;fill-opacity:1;fill-rule:nonzero;stroke:none"
             id="path473" /><path
             d="m 252.903,279.216 h 81.588 v 5.125 h -81.588 z"
             style="fill:#dee1ef;fill-opacity:1;fill-rule:nonzero;stroke:none"
             id="path475" /><path
             d="M 252.903,291.989 H 389.665 V 302.38 H 252.903 Z"
             style="fill:#dee1ef;fill-opacity:1;fill-rule:nonzero;stroke:none"
             id="path477" /><path
             d="m 252.903,270.407 h 81.588 v 5.125 h -81.588 z"
             style="fill:#dee1ef;fill-opacity:1;fill-rule:nonzero;stroke:none"
             id="path479" /><path
             d="m 252.903,261.599 h 81.588 v 5.125 h -81.588 z"
             style="fill:#dee1ef;fill-opacity:1;fill-rule:nonzero;stroke:none"
             id="path481" /><path
             d="m 252.903,252.79 h 81.588 v 5.125 h -81.588 z"
             style="fill:#dee1ef;fill-opacity:1;fill-rule:nonzero;stroke:none"
             id="path483" /><path
             d="m 252.903,243.981 h 81.588 v 5.125 h -81.588 z"
             style="fill:#dee1ef;fill-opacity:1;fill-rule:nonzero;stroke:none"
             id="path485" /><path
             d="m 252.903,235.173 h 81.588 v 5.125 h -81.588 z"
             style="fill:#dee1ef;fill-opacity:1;fill-rule:nonzero;stroke:none"
             id="path487" /><path
             d="m 252.903,177.738 h 49.696 v 49.168 h -49.696 z"
             style="fill:#476cff;fill-opacity:1;fill-rule:nonzero;stroke:none"
             id="path489" /><path
             d="m 389.665,221.782 h -81.587 v 5.124 h 81.587 z"
             style="fill:#dee1ef;fill-opacity:1;fill-rule:nonzero;stroke:none"
             id="path491" /><path
             d="m 389.665,212.973 h -81.587 v 5.125 h 81.587 z"
             style="fill:#dee1ef;fill-opacity:1;fill-rule:nonzero;stroke:none"
             id="path493" /><path
             d="m 389.665,204.164 h -81.587 v 5.125 h 81.587 z"
             style="fill:#dee1ef;fill-opacity:1;fill-rule:nonzero;stroke:none"
             id="path495" /><path
             d="m 389.665,195.355 h -81.587 v 5.125 h 81.587 z"
             style="fill:#dee1ef;fill-opacity:1;fill-rule:nonzero;stroke:none"
             id="path497" /><path
             d="m 389.665,186.547 h -81.587 v 5.125 h 81.587 z"
             style="fill:#dee1ef;fill-opacity:1;fill-rule:nonzero;stroke:none"
             id="path499" /><path
             d="m 389.665,177.738 h -81.587 v 5.125 h 81.587 z"
             style="fill:#dee1ef;fill-opacity:1;fill-rule:nonzero;stroke:none"
             id="path501" /><path
             d="m 272.225,315.373 h -19.321 v -6.704 h 19.321 z"
             style="fill:#4dc7b8;fill-opacity:1;fill-rule:nonzero;stroke:none"
             id="path503" /><path
             d="m 295.713,315.373 h -19.321 v -6.704 h 19.321 z"
             style="fill:#ffc773;fill-opacity:1;fill-rule:nonzero;stroke:none"
             id="path505" /><path
             d="M 319.201,315.373 H 299.88 v -6.704 h 19.321 z"
             style="fill:#6579cf;fill-opacity:1;fill-rule:nonzero;stroke:none"
             id="path507" /><path
             d="m 342.689,315.373 h -19.321 v -6.704 h 19.321 z"
             style="fill:#4dc7b8;fill-opacity:1;fill-rule:nonzero;stroke:none"
             id="path509" /><path
             d="m 366.177,315.373 h -19.32 v -6.704 h 19.32 z"
             style="fill:#ffc773;fill-opacity:1;fill-rule:nonzero;stroke:none"
             id="path511" /><path
             d="m 389.665,315.373 h -19.32 v -6.704 h 19.32 z"
             style="fill:#6579cf;fill-opacity:1;fill-rule:nonzero;stroke:none"
             id="path513" /><g
             id="g515"><g
               id="g517" /><g
               id="g529"><g
                 clip-path="url(#clipPath521)"
                 id="g527"><g
                   transform="translate(290.8994,261.2104)"
                   id="g525"><path
                     d="M 0,0 C 0,7.473 -6.08,13.553 -13.553,13.553 H -45.006 L -45,-91.396 c 0,-2.643 2.162,-4.805 4.808,-4.805 L 0,-96.199 Z"
                     style="fill:#dee1ef;fill-opacity:1;fill-rule:nonzero;stroke:none"
                     id="path523" /></g></g></g></g><g
             id="g531"><g
               id="g533" /><g
               id="g553"><g
                 clip-path="url(#clipPath537)"
                 opacity="0.5"
                 id="g551"><g
                   transform="translate(285.7441,351.2808)"
                   id="g541"><path
                     d="m 0,0 -39.852,-58.841 0.005,-98.298 L 66.582,0.003 Z"
                     style="fill:#ffffff;fill-opacity:1;fill-rule:nonzero;stroke:none"
                     id="path539" /></g><g
                   transform="translate(391.8643,351.2852)"
                   id="g545"><path
                     d="m 0,0 h -19.999 l -124.91,-184.433 c 0.882,-1.112 2.229,-1.842 3.752,-1.842 l 45.078,0.002 L 4.808,-37.313 4.806,-4.805 C 4.806,-2.162 2.643,0 0,0"
                     style="fill:#ffffff;fill-opacity:1;fill-rule:nonzero;stroke:none"
                     id="path543" /></g><g
                   transform="translate(396.6758,235.7627)"
                   id="g549"><path
                     d="M 0,0 -0.003,53.669 -84.27,-70.75 l 36.354,0.002 z"
                     style="fill:#ffffff;fill-opacity:1;fill-rule:nonzero;stroke:none"
                     id="path547" /></g></g></g></g><g
             id="g555"
             transform="translate(401.8184,134.7285)"><path
               d="M 0,0 H 22.458"
               style="fill:none;stroke:#1f2f6d;stroke-width:4;stroke-linecap:round;stroke-linejoin:round;stroke-miterlimit:10;stroke-dasharray:none;stroke-opacity:1"
               id="path557" /></g><g
             id="g559"
             transform="translate(435.124,134.7285)"><path
               d="M 0,0 H 17.385"
               style="fill:none;stroke:#1f2f6d;stroke-width:4;stroke-linecap:round;stroke-linejoin:round;stroke-miterlimit:10;stroke-dasharray:none;stroke-opacity:1"
               id="path561" /></g><g
             id="g563"
             transform="translate(388.9883,134.7285)"><path
               d="M 0,0 H -318.407"
               style="fill:none;stroke:#1f2f6d;stroke-width:4;stroke-linecap:round;stroke-linejoin:round;stroke-miterlimit:10;stroke-dasharray:none;stroke-opacity:1"
               id="path565" /></g><g
             id="g567"
             transform="translate(59.2656,134.7285)"><path
               d="M 0,0 H -11.774"
               style="fill:none;stroke:#1f2f6d;stroke-width:4;stroke-linecap:round;stroke-linejoin:round;stroke-miterlimit:10;stroke-dasharray:none;stroke-opacity:1"
               id="path569" /></g><g
             id="g571"
             transform="translate(200.7422,99.7402)"><path
               d="m 0,0 c -0.131,0 -0.261,0.009 -0.391,0.027 -6.565,0.952 -11.708,6.765 -11.708,13.237 v 142.458 c 0,6.917 5.628,12.546 12.545,12.546 h 73.219 c 6.917,0 12.546,-5.629 12.546,-12.546 V 13.264 C 86.211,6.489 80.886,0.92 73.55,0.02 73.439,0.007 73.329,0 73.218,0 Z"
               style="fill:#1f2f6d;fill-opacity:1;fill-rule:nonzero;stroke:none"
               id="path573" /></g><g
             id="g575"
             transform="translate(200.7422,102.4629)"><path
               d="m 0,0 c -4.97,0.719 -9.376,5.126 -9.376,10.541 v 142.458 c 0,5.417 4.406,9.823 9.822,9.823 h 73.219 c 5.416,0 9.822,-4.406 9.822,-9.823 V 10.541 C 83.487,5.126 79.081,0.719 73.218,0 Z"
               style="fill:#266193;fill-opacity:1;fill-rule:nonzero;stroke:none"
               id="path577" /></g><g
             id="g579"
             transform="translate(274.4072,261.4409)"><path
               d="m 0,0 h -17.913 v -1.941 c 0,-1.815 -1.472,-3.287 -3.287,-3.287 h -29.152 c -1.815,0 -3.287,1.472 -3.287,3.287 V 0 h -19.58 c -3.302,0 -5.978,-2.677 -5.978,-5.979 v -142.458 c 0,-3.302 2.676,-5.979 5.978,-5.979 H 0 c 3.302,0 5.979,2.677 5.979,5.979 V -5.979 C 5.979,-2.677 3.302,0 0,0"
               style="fill:#ffffff;fill-opacity:1;fill-rule:nonzero;stroke:none"
               id="path581" /></g></g></g><text
         transform="matrix(1,0,0,-1,220.1167,233.7764)"
         style="font-variant:normal;font-weight:bold;font-stretch:normal;font-size:18.8256px;font-family:'Open Sans';-inkscape-font-specification:OpenSans-Bold;writing-mode:lr-tb;fill:#266193;fill-opacity:1;fill-rule:nonzero;stroke:none"
         id="text585"><tspan
           x="0 15.305213 25.847549 44.051903"
           y="0"
           sodipodi:role="line"
           id="tspan583">NEWS</tspan></text><g
         id="g587"><g
           id="g589"
           clip-path="url(#clipPath593)"><g
             id="g595"
             transform="translate(215.1016,243.2256)"><path
               d="m 0,0 h -12.022 c -0.541,0 -0.979,0.438 -0.979,0.979 0,0.541 0.438,0.979 0.979,0.979 H 0 C 0.541,1.958 0.979,1.52 0.979,0.979 0.979,0.438 0.541,0 0,0"
               style="fill:#266193;fill-opacity:1;fill-rule:nonzero;stroke:none"
               id="path597" /></g><g
             id="g599"
             transform="translate(215.1016,239.4492)"><path
               d="m 0,0 h -12.022 c -0.541,0 -0.979,0.438 -0.979,0.979 0,0.542 0.438,0.979 0.979,0.979 H 0 C 0.541,1.958 0.979,1.521 0.979,0.979 0.979,0.438 0.541,0 0,0"
               style="fill:#266193;fill-opacity:1;fill-rule:nonzero;stroke:none"
               id="path601" /></g><g
             id="g603"
             transform="translate(215.1016,235.6738)"><path
               d="m 0,0 h -12.022 c -0.541,0 -0.979,0.438 -0.979,0.979 0,0.541 0.438,0.979 0.979,0.979 H 0 C 0.541,1.958 0.979,1.52 0.979,0.979 0.979,0.438 0.541,0 0,0"
               style="fill:#266193;fill-opacity:1;fill-rule:nonzero;stroke:none"
               id="path605" /></g><path
             d="m 274.534,166.696 h -73.473 v 2.17 h 73.473 z"
             style="fill:#dee1ef;fill-opacity:1;fill-rule:nonzero;stroke:none"
             id="path607" /><path
             d="m 274.534,161.803 h -73.473 v 2.17 h 73.473 z"
             style="fill:#dee1ef;fill-opacity:1;fill-rule:nonzero;stroke:none"
             id="path609" /><path
             d="m 274.534,156.908 h -73.473 v 2.17 h 73.473 z"
             style="fill:#dee1ef;fill-opacity:1;fill-rule:nonzero;stroke:none"
             id="path611" /><path
             d="m 274.534,152.015 h -73.473 v 2.17 h 73.473 z"
             style="fill:#dee1ef;fill-opacity:1;fill-rule:nonzero;stroke:none"
             id="path613" /><path
             d="m 274.534,147.121 h -73.473 v 2.17 h 73.473 z"
             style="fill:#dee1ef;fill-opacity:1;fill-rule:nonzero;stroke:none"
             id="path615" /><path
             d="m 274.534,142.227 h -73.473 v 2.17 h 73.473 z"
             style="fill:#dee1ef;fill-opacity:1;fill-rule:nonzero;stroke:none"
             id="path617" /><path
             d="m 274.534,137.333 h -73.473 v 2.17 h 73.473 z"
             style="fill:#dee1ef;fill-opacity:1;fill-rule:nonzero;stroke:none"
             id="path619" /><path
             d="m 274.534,132.438 h -73.473 v 2.171 h 73.473 z"
             style="fill:#dee1ef;fill-opacity:1;fill-rule:nonzero;stroke:none"
             id="path621" /><path
             d="m 274.534,127.545 h -73.473 v 2.17 h 73.473 z"
             style="fill:#dee1ef;fill-opacity:1;fill-rule:nonzero;stroke:none"
             id="path623" /><path
             d="m 274.534,122.651 h -73.473 v 2.17 h 73.473 z"
             style="fill:#dee1ef;fill-opacity:1;fill-rule:nonzero;stroke:none"
             id="path625" /><path
             d="m 274.534,117.757 h -73.473 v 2.17 h 73.473 z"
             style="fill:#dee1ef;fill-opacity:1;fill-rule:nonzero;stroke:none"
             id="path627" /><path
             d="m 274.534,173.304 h -73.473 v 5.482 h 73.473 z"
             style="fill:#dee1ef;fill-opacity:1;fill-rule:nonzero;stroke:none"
             id="path629" /><path
             d="m 231.083,184.911 h -30.021 v 36.782 h 30.021 z"
             style="fill:#ffb296;fill-opacity:1;fill-rule:nonzero;stroke:none"
             id="path631" /><path
             d="m 274.534,219.346 h -38.695 v 2.17 h 38.695 z"
             style="fill:#dee1ef;fill-opacity:1;fill-rule:nonzero;stroke:none"
             id="path633" /><path
             d="m 274.534,214.452 h -38.695 v 2.17 h 38.695 z"
             style="fill:#dee1ef;fill-opacity:1;fill-rule:nonzero;stroke:none"
             id="path635" /><path
             d="m 274.534,209.558 h -38.695 v 2.171 h 38.695 z"
             style="fill:#dee1ef;fill-opacity:1;fill-rule:nonzero;stroke:none"
             id="path637" /><path
             d="m 274.534,204.664 h -38.695 v 2.17 h 38.695 z"
             style="fill:#dee1ef;fill-opacity:1;fill-rule:nonzero;stroke:none"
             id="path639" /><path
             d="m 274.534,199.771 h -38.695 v 2.17 h 38.695 z"
             style="fill:#dee1ef;fill-opacity:1;fill-rule:nonzero;stroke:none"
             id="path641" /><path
             d="m 274.534,194.876 h -38.695 v 2.171 h 38.695 z"
             style="fill:#dee1ef;fill-opacity:1;fill-rule:nonzero;stroke:none"
             id="path643" /><path
             d="m 274.534,189.982 h -38.695 v 2.17 h 38.695 z"
             style="fill:#dee1ef;fill-opacity:1;fill-rule:nonzero;stroke:none"
             id="path645" /><path
             d="m 274.534,185.089 h -38.695 v 2.17 h 38.695 z"
             style="fill:#dee1ef;fill-opacity:1;fill-rule:nonzero;stroke:none"
             id="path647" /><g
             id="g649"
             transform="translate(246.4648,259.521)"><path
               d="m 0,0 h -20.592 c -0.528,0 -0.96,0.432 -0.96,0.959 0,0.529 0.432,0.961 0.96,0.961 H 0 C 0.528,1.92 0.961,1.488 0.961,0.959 0.961,0.432 0.528,0 0,0"
               style="fill:#4a83b4;fill-opacity:1;fill-rule:nonzero;stroke:none"
               id="path651" /></g><g
             id="g653"
             transform="translate(252.3506,260.4702)"><path
               d="m 0,0 c 0,-0.536 -0.435,-0.97 -0.971,-0.97 -0.536,0 -0.969,0.434 -0.969,0.97 0,0.536 0.433,0.971 0.969,0.971 C -0.435,0.971 0,0.536 0,0"
               style="fill:#4a83b4;fill-opacity:1;fill-rule:nonzero;stroke:none"
               id="path655" /></g><g
             id="g657"><g
               id="g659" /><g
               id="g679"><g
                 clip-path="url(#clipPath663)"
                 opacity="0.5"
                 id="g677"><g
                   transform="translate(280.3857,255.4619)"
                   id="g667"><path
                     d="m 0,0 c 0,2.224 -1.217,4.16 -3.019,5.19 l -82.157,-121.305 v -26.343 c 0,-2.799 1.927,-5.143 4.525,-5.793 L 0,-29.168 Z"
                     style="fill:#ffffff;fill-opacity:1;fill-rule:nonzero;stroke:none"
                     id="path665" /></g><g
                   transform="translate(195.21,154.4912)"
                   id="g671"><path
                     d="M 0,0 72.435,106.95 H 61.284 v -1.941 c 0,-1.816 -1.471,-3.287 -3.287,-3.287 H 33.941 L 0,51.606 Z"
                     style="fill:#ffffff;fill-opacity:1;fill-rule:nonzero;stroke:none"
                     id="path669" /></g><g
                   transform="translate(280.3857,185.2344)"
                   id="g675"><path
                     d="M 0,0 V 28.177 L -72.052,-78.209 h 19.083 z"
                     style="fill:#ffffff;fill-opacity:1;fill-rule:nonzero;stroke:none"
                     id="path673" /></g></g></g></g><g
             id="g681"><g
               id="g683" /><g
               id="g695"><g
                 clip-path="url(#clipPath687)"
                 id="g693"><g
                   transform="translate(280.3857,150.7686)"
                   id="g691"><path
                     d="m 0,0 v 31.756 h -9.398 c -2.235,0 -4.044,-1.811 -4.044,-4.044 V 9.343 c 0,-2.234 1.809,-4.044 4.044,-4.044 h 4.373 c 0.125,-1.643 0.06,-4.574 -1.559,-6.86 0,0 3.229,0.302 6.584,1.561"
                     style="fill:#dee4ff;fill-opacity:1;fill-rule:nonzero;stroke:none"
                     id="path689" /></g></g></g></g><g
             id="g697"><g
               id="g699" /><g
               id="g711"><g
                 clip-path="url(#clipPath703)"
                 id="g709"><g
                   transform="translate(104.165,241.3057)"
                   id="g707"><path
                     d="m 0,0 c 1.284,2.605 2.009,5.536 2.009,8.637 0,10.575 -8.4,19.169 -18.889,19.526 v -39.061 c 3.732,0.127 7.2,1.287 10.117,3.22 0,0 4.25,-4.305 16.354,-0.279 C 1.678,-6.47 0,0 0,0"
                     style="fill:#dee4ff;fill-opacity:1;fill-rule:nonzero;stroke:none"
                     id="path705" /></g></g></g></g><g
             id="g713"
             transform="translate(110.7559,237.3486)"><path
               d="m 0,0 c -12.104,-4.026 -16.354,0.279 -16.354,0.279 -3.092,-2.05 -6.8,-3.246 -10.789,-3.246 -10.802,0 -19.56,8.758 -19.56,19.561 0,10.802 8.758,19.56 19.56,19.56 10.803,0 19.561,-8.758 19.561,-19.56 0,-3.101 -0.725,-6.031 -2.009,-8.637 0,0 1.678,-6.47 9.591,-7.957"
               style="fill:#ffffff;fill-opacity:1;fill-rule:nonzero;stroke:none"
               id="path715" /></g><g
             id="g717"
             transform="translate(110.7559,237.3486)"><path
               d="m 0,0 c -12.104,-4.026 -16.354,0.279 -16.354,0.279 -3.092,-2.05 -6.8,-3.246 -10.789,-3.246 -10.802,0 -19.56,8.758 -19.56,19.561 0,10.802 8.758,19.56 19.56,19.56 10.803,0 19.561,-8.758 19.561,-19.56 0,-3.101 -0.725,-6.031 -2.009,-8.637 0,0 1.678,-6.47 9.591,-7.957 z"
               style="fill:none;stroke:#1f2f6d;stroke-width:1;stroke-linecap:round;stroke-linejoin:round;stroke-miterlimit:10;stroke-dasharray:none;stroke-opacity:1"
               id="path719" /></g><g
             id="g721"
             transform="translate(86.8135,246.1904)"><path
               d="m 0,0 v 13.904 c 0,0.331 -0.268,0.6 -0.599,0.6 h -7.114 c -0.331,0 -0.6,-0.269 -0.6,-0.6 v -2.366 c 0,-0.331 0.269,-0.6 0.6,-0.6 h 2.021 c 0.331,0 0.599,-0.268 0.599,-0.599 L -5.093,0 c 0,-0.331 -0.268,-0.599 -0.599,-0.599 h -2.021 c -0.331,0 -0.6,-0.268 -0.6,-0.599 v -2.367 c 0,-0.331 0.269,-0.599 0.6,-0.599 H 2.604 c 0.331,0 0.599,0.268 0.599,0.599 v 2.367 c 0,0.331 -0.268,0.599 -0.599,0.599 H 0.6 C 0.269,-0.599 0,-0.331 0,0"
               style="fill:#1f2f6d;fill-opacity:1;fill-rule:nonzero;stroke:none"
               id="path723" /></g><g
             id="g725"
             transform="translate(86.8145,264.4575)"><path
               d="m 0,0 c 0,-1.412 -1.144,-2.556 -2.556,-2.556 -1.411,0 -2.555,1.144 -2.555,2.556 0,1.411 1.144,2.556 2.555,2.556 C -1.144,2.556 0,1.411 0,0"
               style="fill:#1f2f6d;fill-opacity:1;fill-rule:nonzero;stroke:none"
               id="path727" /></g><g
             id="g729"><g
               id="g731" /><g
               id="g743"><g
                 clip-path="url(#clipPath735)"
                 id="g741"><g
                   transform="translate(402.0176,352.7026)"
                   id="g739"><path
                     d="M 0,0 C 0,2.907 -2.379,5.283 -5.283,5.283 L -21.067,5.282 V -9.286 c 0,-2.234 1.81,-4.044 4.045,-4.044 h 4.373 c 0.125,-1.642 0.06,-4.574 -1.558,-6.859 0,0 10.575,0.982 13.346,6.859 h 0.862 z"
                     style="fill:#f0ab9b;fill-opacity:1;fill-rule:nonzero;stroke:none"
                     id="path737" /></g></g></g></g><g
             id="g745"
             transform="translate(426.415,368.8301)"><path
               d="m 0,0 h -39.42 c -2.234,0 -4.045,-1.811 -4.045,-4.044 v -18.37 c 0,-2.233 1.811,-4.044 4.045,-4.044 h 4.373 c 0.125,-1.642 0.061,-4.574 -1.558,-6.859 0,0 10.576,0.983 13.346,6.859 H 0 c 2.234,0 4.045,1.811 4.045,4.044 v 18.37 C 4.045,-1.811 2.234,0 0,0"
               style="fill:#ffb84d;fill-opacity:1;fill-rule:nonzero;stroke:none"
               id="path747" /></g><g
             id="g749"
             transform="translate(426.415,368.8301)"><path
               d="m 0,0 h -39.42 c -2.234,0 -4.045,-1.811 -4.045,-4.044 v -18.37 c 0,-2.233 1.811,-4.044 4.045,-4.044 h 4.373 c 0.125,-1.642 0.061,-4.574 -1.558,-6.859 0,0 10.576,0.983 13.346,6.859 H 0 c 2.234,0 4.045,1.811 4.045,4.044 v 18.37 C 4.045,-1.811 2.234,0 0,0 Z"
               style="fill:none;stroke:#1f2f6d;stroke-width:1;stroke-linecap:round;stroke-linejoin:round;stroke-miterlimit:10;stroke-dasharray:none;stroke-opacity:1"
               id="path751" /></g><g
             id="g753"
             transform="translate(414.2178,355.3403)"><path
               d="m 0,0 c 0,-2.066 1.675,-3.741 3.741,-3.741 2.067,0 3.741,1.675 3.741,3.741 0,2.066 -1.674,3.741 -3.741,3.741 C 1.675,3.741 0,2.066 0,0"
               style="fill:#ffffff;fill-opacity:1;fill-rule:nonzero;stroke:none"
               id="path755" /></g><g
             id="g757"
             transform="translate(402.9639,355.3403)"><path
               d="m 0,0 c 0,-2.066 1.675,-3.741 3.741,-3.741 2.067,0 3.741,1.675 3.741,3.741 0,2.066 -1.674,3.741 -3.741,3.741 C 1.675,3.741 0,2.066 0,0"
               style="fill:#ffffff;fill-opacity:1;fill-rule:nonzero;stroke:none"
               id="path759" /></g><g
             id="g761"
             transform="translate(391.71,355.3403)"><path
               d="m 0,0 c 0,-2.066 1.675,-3.741 3.741,-3.741 2.067,0 3.741,1.675 3.741,3.741 0,2.066 -1.674,3.741 -3.741,3.741 C 1.675,3.741 0,2.066 0,0"
               style="fill:#ffffff;fill-opacity:1;fill-rule:nonzero;stroke:none"
               id="path763" /></g><g
             id="g765"
             transform="translate(313.4072,185.5244)"><path
               d="m 0,0 h -39.42 c -2.234,0 -4.045,-1.811 -4.045,-4.044 v -18.369 c 0,-2.233 1.811,-4.044 4.045,-4.044 h 4.373 c 0.125,-1.643 0.061,-4.574 -1.558,-6.859 0,0 10.576,0.982 13.346,6.859 H 0 c 2.234,0 4.045,1.811 4.045,4.044 V -4.044 C 4.045,-1.811 2.234,0 0,0"
               style="fill:#4dc7b8;fill-opacity:1;fill-rule:nonzero;stroke:none"
               id="path767" /></g><g
             id="g769"
             transform="translate(313.4072,185.5244)"><path
               d="m 0,0 h -39.42 c -2.234,0 -4.045,-1.811 -4.045,-4.044 v -18.369 c 0,-2.233 1.811,-4.044 4.045,-4.044 h 4.373 c 0.125,-1.643 0.061,-4.574 -1.558,-6.859 0,0 10.576,0.982 13.346,6.859 H 0 c 2.234,0 4.045,1.811 4.045,4.044 V -4.044 C 4.045,-1.811 2.234,0 0,0 Z"
               style="fill:none;stroke:#1f2f6d;stroke-width:1;stroke-linecap:butt;stroke-linejoin:miter;stroke-miterlimit:10;stroke-dasharray:none;stroke-opacity:1"
               id="path771" /></g><g
             id="g773"
             transform="translate(311.4111,177.9023)"><path
               d="m 0,0 h -35.428 c -0.488,0 -0.885,0.396 -0.885,0.884 0,0.489 0.397,0.885 0.885,0.885 L 0,1.769 C 0.488,1.769 0.885,1.373 0.885,0.884 0.885,0.396 0.488,0 0,0"
               style="fill:#ffffff;fill-opacity:1;fill-rule:nonzero;stroke:none"
               id="path775" /></g><g
             id="g777"
             transform="translate(311.4111,173.5225)"><path
               d="m 0,0 h -35.428 c -0.488,0 -0.885,0.396 -0.885,0.885 0,0.488 0.397,0.884 0.885,0.884 L 0,1.769 C 0.488,1.769 0.885,1.373 0.885,0.885 0.885,0.396 0.488,0 0,0"
               style="fill:#ffffff;fill-opacity:1;fill-rule:nonzero;stroke:none"
               id="path779" /></g><g
             id="g781"
             transform="translate(311.4111,169.1426)"><path
               d="m 0,0 h -35.428 c -0.488,0 -0.885,0.396 -0.885,0.885 0,0.488 0.397,0.885 0.885,0.885 H 0 C 0.488,1.77 0.885,1.373 0.885,0.885 0.885,0.396 0.488,0 0,0"
               style="fill:#ffffff;fill-opacity:1;fill-rule:nonzero;stroke:none"
               id="path783" /></g><g
             id="g785"
             transform="translate(311.4111,164.7617)"><path
               d="m 0,0 h -35.428 c -0.488,0 -0.885,0.396 -0.885,0.885 0,0.489 0.397,0.885 0.885,0.885 H 0 C 0.488,1.77 0.885,1.374 0.885,0.885 0.885,0.396 0.488,0 0,0"
               style="fill:#ffffff;fill-opacity:1;fill-rule:nonzero;stroke:none"
               id="path787" /></g><g
             id="g789"
             transform="translate(311.8428,101.8145)"><path
               d="M 0,0 H -125.82"
               style="fill:none;stroke:#1f2f6d;stroke-width:4;stroke-linecap:round;stroke-linejoin:round;stroke-miterlimit:10;stroke-dasharray:none;stroke-opacity:1"
               id="path791" /></g><g
             id="g793"
             transform="translate(178.085,101.8145)"><path
               d="M 0,0 H -5.887"
               style="fill:none;stroke:#1f2f6d;stroke-width:4;stroke-linecap:round;stroke-linejoin:round;stroke-miterlimit:10;stroke-dasharray:none;stroke-opacity:1"
               id="path795" /></g><g
             id="g797"
             transform="translate(164.6279,101.8145)"><path
               d="M 0,0 H -4.523"
               style="fill:none;stroke:#1f2f6d;stroke-width:4;stroke-linecap:round;stroke-linejoin:round;stroke-miterlimit:10;stroke-dasharray:none;stroke-opacity:1"
               id="path799" /></g></g></g></g></g></svg>
